<?xml version="1.0" encoding="utf-8"?>
<!-- Generator: Adobe Illustrator 23.0.0, SVG Export Plug-In . SVG Version: 6.00 Build 0)  -->
<svg version="1.1" xmlns="http://www.w3.org/2000/svg" xmlns:xlink="http://www.w3.org/1999/xlink" x="0px" y="0px"
	 viewBox="0 0 720 216" style="enable-background:new 0 0 720 216;" xml:space="preserve">
<style type="text/css">
	.st0{fill:#2E3192;}
	.st1{fill:#2BB673;}
</style>
<g id="Diamond">
	<circle class="st0" cx="27.51" cy="107.63" r="5.44"/>
	<circle class="st0" cx="35.33" cy="99.89" r="5.26"/>
	<circle class="st0" cx="50.51" cy="84.7" r="5.07"/>
	<circle class="st0" cx="50.51" cy="100.15" r="5.07"/>
	<circle class="st0" cx="43.18" cy="108.04" r="5.07"/>
	<circle class="st0" cx="43.18" cy="123.26" r="5.07"/>
	<circle class="st0" cx="50.51" cy="130.81" r="5.07"/>
	<circle class="st0" cx="58.4" cy="76.85" r="4.67"/>
	<circle class="st0" cx="58.4" cy="107.74" r="4.67"/>
	<circle class="st0" cx="58.4" cy="123.41" r="4.67"/>
	<circle class="st0" cx="73.73" cy="61.52" r="4.56"/>
	<circle class="st0" cx="73.73" cy="76.78" r="4.56"/>
	<circle class="st0" cx="66.01" cy="84.83" r="4.56"/>
	<circle class="st0" cx="66.01" cy="115.94" r="4.56"/>
	<circle class="st0" cx="66.01" cy="131.17" r="4.56"/>
	<circle class="st0" cx="66.01" cy="146.39" r="4.56"/>
	<circle class="st0" cx="73.73" cy="93.07" r="4.56"/>
	<circle class="st0" cx="73.73" cy="108.19" r="4.56"/>
	<circle class="st0" cx="73.73" cy="138.85" r="4.56"/>
	<circle class="st0" cx="73.73" cy="154.26" r="4.56"/>
	<circle class="st0" cx="81.29" cy="53.96" r="4.44"/>
	<circle class="st0" cx="81.29" cy="69.52" r="4.44"/>
	<circle class="st0" cx="81.29" cy="100.04" r="4.44"/>
	<circle class="st0" cx="81.29" cy="115.3" r="4.44"/>
	<circle class="st0" cx="89.14" cy="46.11" r="4"/>
	<circle class="st0" cx="89.14" cy="77.22" r="4"/>
	<circle class="st0" cx="89.14" cy="92.48" r="4"/>
	<circle class="st0" cx="89.14" cy="123.59" r="4"/>
	<circle class="st0" cx="89.14" cy="138.67" r="4"/>
	<circle class="st0" cx="89.14" cy="153.93" r="4"/>
	<circle class="st0" cx="89.14" cy="169.19" r="4"/>
	<circle class="st0" cx="96.7" cy="38.59" r="3.67"/>
	<circle class="st0" cx="96.7" cy="54" r="3.67"/>
	<circle class="st0" cx="96.7" cy="69.7" r="3.67"/>
	<circle class="st0" cx="96.7" cy="84.37" r="3.67"/>
	<circle class="st0" cx="96.7" cy="130.74" r="3.67"/>
	<circle class="st0" cx="96.7" cy="146.3" r="3.67"/>
	<circle class="st0" cx="96.7" cy="162.3" r="3.67"/>
	<circle class="st0" cx="96.7" cy="176.67" r="3.67"/>
	<circle class="st0" cx="104.51" cy="30.78" r="3.15"/>
	<circle class="st0" cx="104.51" cy="61.74" r="3.15"/>
	<circle class="st0" cx="104.51" cy="77.3" r="3.15"/>
	<circle class="st0" cx="104.51" cy="92.85" r="3.15"/>
	<circle class="st0" cx="104.51" cy="108.41" r="3.15"/>
	<circle class="st0" cx="104.51" cy="123.96" r="3.15"/>
	<circle class="st0" cx="104.51" cy="154.19" r="3.15"/>
	<circle class="st0" cx="104.51" cy="185" r="3.15"/>
	<circle class="st0" cx="112.14" cy="22.89" r="2.96"/>
	<circle class="st0" cx="112.14" cy="38.27" r="2.96"/>
	<circle class="st0" cx="112.14" cy="53.65" r="2.96"/>
	<circle class="st0" cx="112.14" cy="69.03" r="2.96"/>
	<circle class="st0" cx="112.14" cy="84.41" r="2.96"/>
	<circle class="st0" cx="112.14" cy="99.79" r="2.96"/>
	<circle class="st0" cx="112.14" cy="115.17" r="2.96"/>
	<circle class="st0" cx="112.14" cy="130.55" r="2.96"/>
	<circle class="st0" cx="112.14" cy="145.93" r="2.96"/>
	<circle class="st0" cx="112.14" cy="161.31" r="2.96"/>
	<circle class="st0" cx="112.14" cy="176.69" r="2.96"/>
	<circle class="st0" cx="112.14" cy="192.07" r="2.96"/>
	<circle class="st0" cx="120.03" cy="30.7" r="2.41"/>
	<circle class="st0" cx="120.03" cy="61.81" r="2.41"/>
	<circle class="st0" cx="120.03" cy="108.04" r="2.41"/>
	<circle class="st0" cx="120.03" cy="123.37" r="2.41"/>
	<circle class="st0" cx="120.03" cy="138.93" r="2.41"/>
	<circle class="st0" cx="120.03" cy="154.37" r="2.41"/>
	<circle class="st0" cx="120.03" cy="184.93" r="2.41"/>
	<circle class="st0" cx="127.88" cy="38.56" r="2.37"/>
	<circle class="st0" cx="127.88" cy="69.56" r="2.37"/>
	<circle class="st0" cx="127.88" cy="84.89" r="2.37"/>
	<circle class="st0" cx="127.88" cy="100.33" r="2.37"/>
	<circle class="st0" cx="127.88" cy="115.67" r="2.37"/>
	<circle class="st0" cx="127.88" cy="131.44" r="2.37"/>
	<circle class="st0" cx="127.88" cy="162.11" r="2.37"/>
	<circle class="st0" cx="127.88" cy="177" r="2.37"/>
	<circle class="st0" cx="135.48" cy="46.19" r="2.11"/>
	<circle class="st0" cx="135.48" cy="61.96" r="2.11"/>
	<circle class="st0" cx="135.48" cy="77.19" r="2.11"/>
	<circle class="st0" cx="135.48" cy="92.63" r="2.11"/>
	<circle class="st0" cx="135.48" cy="123.41" r="2.11"/>
	<circle class="st0" cx="135.48" cy="138.63" r="2.11"/>
	<circle class="st0" cx="135.48" cy="154.41" r="2.11"/>
	<circle class="st0" cx="135.48" cy="169.19" r="2.11"/>
	<circle class="st0" cx="143.4" cy="54.04" r="1.89"/>
	<circle class="st0" cx="143.4" cy="69.41" r="1.89"/>
	<circle class="st0" cx="143.4" cy="84.79" r="1.89"/>
	<circle class="st0" cx="143.4" cy="100.16" r="1.89"/>
	<circle class="st0" cx="143.4" cy="115.54" r="1.89"/>
	<circle class="st0" cx="143.4" cy="130.92" r="1.89"/>
	<circle class="st0" cx="143.4" cy="146.29" r="1.89"/>
	<circle class="st0" cx="143.4" cy="161.67" r="1.89"/>
	<circle class="st0" cx="158.88" cy="69.44" r="1.3"/>
	<circle class="st0" cx="158.88" cy="84.8" r="1.3"/>
	<circle class="st0" cx="158.88" cy="100.16" r="1.3"/>
	<circle class="st0" cx="158.88" cy="115.51" r="1.3"/>
	<circle class="st0" cx="158.88" cy="130.87" r="1.3"/>
	<circle class="st0" cx="166.29" cy="138.35" r="1.3"/>
	<circle class="st0" cx="166.29" cy="76.64" r="1.3"/>
	<circle class="st0" cx="158.88" cy="146.22" r="1.3"/>
	<circle class="st0" cx="151.22" cy="61.78" r="1.96"/>
	<circle class="st0" cx="151.22" cy="76.78" r="1.96"/>
	<circle class="st0" cx="151.22" cy="107.67" r="1.96"/>
	<circle class="st0" cx="151.22" cy="123.44" r="1.96"/>
	<circle class="st0" cx="151.22" cy="153.67" r="1.96"/>
	<circle class="st0" cx="182.18" cy="92.67" r="1.19"/>
	<circle class="st0" cx="182.18" cy="107.72" r="1.19"/>
	<circle class="st0" cx="182.18" cy="122.61" r="1.19"/>
	<circle class="st0" cx="173.73" cy="100.11" r="1.19"/>
	<circle class="st0" cx="173.73" cy="116.33" r="1.19"/>
	<circle class="st0" cx="190.22" cy="100.67" r="0.96"/>
	<circle class="st0" cx="190.22" cy="114.61" r="0.96"/>
	<circle class="st0" cx="197.18" cy="107.67" r="0.78"/>
</g>
<g id="Layer_3">
	<path class="st1" d="M156.45,107.96c0-17.42,4.68-31.06,14.04-40.92c9.36-9.86,21.43-14.79,36.23-14.79
		c9.69,0,18.43,2.32,26.21,6.95c7.78,4.63,13.71,11.09,17.79,19.37c4.08,8.28,6.12,17.68,6.12,28.18c0,10.65-2.15,20.17-6.44,28.57
		c-4.3,8.4-10.38,14.76-18.26,19.08c-7.88,4.32-16.37,6.48-25.49,6.48c-9.88,0-18.71-2.39-26.49-7.16
		c-7.78-4.77-13.68-11.29-17.69-19.55C158.46,125.91,156.45,117.17,156.45,107.96z M170.77,108.17c0,12.65,3.4,22.62,10.2,29.9
		c6.8,7.28,15.33,10.92,25.6,10.92c10.45,0,19.06-3.67,25.81-11.03c6.75-7.35,10.13-17.78,10.13-31.29c0-8.54-1.44-16-4.33-22.38
		c-2.89-6.37-7.11-11.31-12.67-14.82c-5.56-3.51-11.8-5.26-18.73-5.26c-9.83,0-18.3,3.38-25.38,10.13
		C174.32,81.09,170.77,92.37,170.77,108.17z"/>
	<path class="st1" d="M273.1,188.23V83.04h11.74v9.88c2.77-3.87,5.9-6.77,9.38-8.7c3.48-1.93,7.71-2.9,12.67-2.9
		c6.49,0,12.22,1.67,17.19,5.01c4.96,3.34,8.71,8.06,11.24,14.14c2.53,6.09,3.79,12.76,3.79,20.01c0,7.78-1.4,14.79-4.19,21.02
		c-2.79,6.23-6.85,11-12.17,14.32c-5.32,3.32-10.92,4.98-16.79,4.98c-4.3,0-8.15-0.91-11.56-2.72c-3.41-1.81-6.22-4.1-8.41-6.87
		v37.02H273.1z M284.77,121.49c0,9.79,1.98,17.02,5.94,21.7c3.96,4.68,8.76,7.02,14.39,7.02c5.73,0,10.63-2.42,14.71-7.27
		c4.08-4.84,6.12-12.35,6.12-22.52c0-9.69-1.99-16.95-5.98-21.77c-3.99-4.82-8.75-7.23-14.29-7.23c-5.49,0-10.35,2.57-14.57,7.7
		C286.88,104.25,284.77,111.71,284.77,121.49z"/>
	<path class="st1" d="M406.72,134.6l13.32,1.65c-2.1,7.78-5.99,13.82-11.67,18.12c-5.68,4.3-12.94,6.44-21.77,6.44
		c-11.13,0-19.94-3.42-26.46-10.28c-6.52-6.85-9.77-16.46-9.77-28.82c0-12.79,3.29-22.72,9.88-29.79
		c6.59-7.06,15.13-10.6,25.63-10.6c10.17,0,18.47,3.46,24.92,10.38c6.45,6.92,9.67,16.66,9.67,29.22c0,0.76-0.03,1.91-0.07,3.44
		h-56.71c0.48,8.35,2.84,14.75,7.09,19.19c4.25,4.44,9.55,6.66,15.9,6.66c4.73,0,8.76-1.24,12.1-3.72
		C402.11,144,404.76,140.04,406.72,134.6z M364.4,113.76h42.46c-0.57-6.4-2.2-11.19-4.87-14.39c-4.11-4.96-9.43-7.45-15.97-7.45
		c-5.92,0-10.9,1.98-14.93,5.94C367.06,101.82,364.83,107.12,364.4,113.76z"/>
	<path class="st1" d="M436.22,159.08V83.04h11.6v10.81c5.59-8.35,13.65-12.53,24.2-12.53c4.58,0,8.8,0.82,12.64,2.47
		c3.84,1.65,6.72,3.81,8.63,6.48c1.91,2.67,3.25,5.85,4.01,9.52c0.48,2.39,0.72,6.56,0.72,12.53v46.76h-12.89v-46.26
		c0-5.25-0.5-9.18-1.5-11.78c-1-2.6-2.78-4.68-5.33-6.23c-2.55-1.55-5.55-2.33-8.99-2.33c-5.49,0-10.23,1.74-14.21,5.23
		c-3.99,3.49-5.98,10.1-5.98,19.84v41.53H436.22z"/>
	<path class="st0" d="M594.32,122.28l13.89,3.51c-2.91,11.41-8.15,20.11-15.72,26.1c-7.57,5.99-16.82,8.99-27.75,8.99
		c-11.31,0-20.52-2.3-27.6-6.91c-7.09-4.61-12.48-11.28-16.18-20.01c-3.7-8.74-5.55-18.12-5.55-28.14c0-10.93,2.09-20.47,6.27-28.61
		c4.18-8.14,10.12-14.32,17.83-18.55c7.71-4.22,16.19-6.34,25.46-6.34c10.5,0,19.33,2.67,26.49,8.02
		c7.16,5.35,12.15,12.87,14.97,22.56l-13.68,3.22c-2.43-7.64-5.97-13.2-10.6-16.68c-4.63-3.48-10.46-5.23-17.47-5.23
		c-8.07,0-14.81,1.93-20.23,5.8s-9.23,9.06-11.42,15.57c-2.2,6.52-3.29,13.24-3.29,20.16c0,8.93,1.3,16.72,3.9,23.38
		c2.6,6.66,6.65,11.64,12.14,14.93c5.49,3.29,11.43,4.94,17.83,4.94c7.78,0,14.37-2.24,19.76-6.73S592.41,131.11,594.32,122.28z"/>
	<path class="st0" d="M687.84,146.7v12.39h-69.39c-0.1-3.1,0.41-6.09,1.5-8.95c1.77-4.73,4.59-9.38,8.49-13.96
		c3.89-4.58,9.51-9.88,16.86-15.9c11.41-9.36,19.12-16.77,23.13-22.23c4.01-5.47,6.01-10.63,6.01-15.5c0-5.11-1.83-9.42-5.48-12.92
		c-3.65-3.51-8.41-5.26-14.29-5.26c-6.21,0-11.17,1.86-14.89,5.59c-3.72,3.72-5.61,8.88-5.66,15.47l-13.25-1.36
		c0.91-9.88,4.32-17.41,10.24-22.59c5.92-5.18,13.87-7.77,23.84-7.77c10.07,0,18.04,2.79,23.92,8.38
		c5.87,5.59,8.81,12.51,8.81,20.77c0,4.2-0.86,8.33-2.58,12.39c-1.72,4.06-4.57,8.33-8.56,12.82c-3.99,4.49-10.61,10.65-19.87,18.47
		c-7.73,6.49-12.7,10.9-14.89,13.21c-2.2,2.32-4.01,4.64-5.44,6.98H687.84z"/>
</g>
</svg>
