<?xml version="1.0" encoding="UTF-8"?>
<svg xmlns="http://www.w3.org/2000/svg" xmlns:xlink="http://www.w3.org/1999/xlink" width="128px" height="128px" viewBox="0 0 128 128" version="1.1">
<g id="surface1">
<rect x="0" y="0" width="128" height="128" style="fill:rgb(19.607843%,20%,18.823529%);fill-opacity:1;stroke:none;"/>
<path style=" stroke:none;fill-rule:nonzero;fill:rgb(100%,100%,100%);fill-opacity:1;" d="M 22.195312 111.976562 C 21.964844 112.210938 21.90625 112.675781 22.195312 112.96875 C 25.929688 116.648438 31.179688 118.75 36.492188 118.75 C 45.359375 118.75 50.957031 113.375 50.957031 106.71875 C 50.957031 100.820312 47.398438 97.664062 42.789062 95.679688 L 37.597656 93.519531 C 34.332031 92.175781 32 91.242188 32 88.847656 C 32 86.570312 33.804688 85.109375 37.25 85.109375 C 40.339844 85.109375 42.671875 86.21875 45.0625 88.203125 C 45.414062 88.496094 45.882812 88.378906 46.117188 88.085938 L 49.554688 83.765625 C 49.789062 83.53125 49.789062 83.0625 49.5 82.773438 C 46.40625 79.679688 41.855469 77.75 37.25 77.75 C 29.492188 77.75 23.714844 82.65625 23.714844 89.195312 C 23.714844 95.210938 27.972656 98.367188 31.820312 100 L 37.070312 102.28125 C 40.632812 103.796875 42.554688 104.617188 42.554688 107.242188 C 42.554688 109.695312 40.75 111.449219 36.605469 111.449219 C 33.339844 111.449219 29.839844 109.757812 27.214844 107.304688 C 26.867188 107.007812 26.398438 107.070312 26.164062 107.359375 Z M 22.195312 111.976562 "/>
<path style=" stroke:none;fill-rule:nonzero;fill:rgb(100%,100%,100%);fill-opacity:1;" d="M 53.054688 111.976562 C 52.820312 112.210938 52.765625 112.675781 53.054688 112.96875 C 56.789062 116.648438 62.039062 118.75 67.351562 118.75 C 76.214844 118.75 81.816406 113.375 81.816406 106.71875 C 81.816406 100.820312 78.257812 97.664062 73.648438 95.679688 L 68.457031 93.519531 C 65.1875 92.175781 62.859375 91.242188 62.859375 88.847656 C 62.859375 86.570312 64.664062 85.109375 68.109375 85.109375 C 71.199219 85.109375 73.53125 86.21875 75.921875 88.203125 C 76.273438 88.496094 76.742188 88.378906 76.976562 88.085938 L 80.414062 83.765625 C 80.648438 83.53125 80.648438 83.0625 80.359375 82.773438 C 77.265625 79.679688 72.714844 77.75 68.109375 77.75 C 60.347656 77.75 54.574219 82.65625 54.574219 89.195312 C 54.574219 95.210938 58.832031 98.367188 62.679688 100 L 67.929688 102.28125 C 71.492188 103.796875 73.414062 104.617188 73.414062 107.242188 C 73.414062 109.695312 71.609375 111.449219 67.464844 111.449219 C 64.199219 111.449219 60.699219 109.757812 58.074219 107.304688 C 57.722656 107.007812 57.257812 107.070312 57.023438 107.359375 Z M 53.054688 111.976562 "/>
<path style=" stroke:none;fill-rule:nonzero;fill:rgb(100%,100%,100%);fill-opacity:1;" d="M 87.242188 117.347656 C 87.242188 117.640625 87.53125 118.046875 88 118.046875 L 94.765625 118.046875 C 95.058594 118.046875 95.46875 117.816406 95.46875 117.347656 L 95.46875 101.109375 L 109.523438 101.109375 L 109.523438 117.347656 C 109.523438 117.640625 109.757812 118.046875 110.226562 118.046875 L 116.992188 118.046875 C 117.28125 118.046875 117.75 117.816406 117.75 117.347656 L 117.75 79.152344 C 117.75 78.859375 117.460938 78.453125 116.992188 78.453125 L 110.226562 78.453125 C 109.933594 78.453125 109.523438 78.683594 109.523438 79.152344 L 109.523438 93.75 L 95.46875 93.75 L 95.46875 79.152344 C 95.46875 78.859375 95.234375 78.453125 94.765625 78.453125 L 88 78.453125 C 87.707031 78.453125 87.242188 78.683594 87.242188 79.152344 Z M 87.242188 117.347656 "/>
</g>
</svg>
