<?xml version="1.0" encoding="UTF-8"?>
<svg xmlns="http://www.w3.org/2000/svg" xmlns:xlink="http://www.w3.org/1999/xlink" width="256px" height="256px" viewBox="0 0 256 256" version="1.1">
<g id="surface1">
<rect x="0" y="0" width="256" height="256" style="fill:rgb(19.607843%,20%,18.823529%);fill-opacity:1;stroke:none;"/>
<path style=" stroke:none;fill-rule:nonzero;fill:rgb(100%,100%,100%);fill-opacity:1;" d="M 44.394531 223.949219 C 43.929688 224.417969 43.8125 225.351562 44.394531 225.9375 C 51.863281 233.292969 62.363281 237.5 72.980469 237.5 C 90.714844 237.5 101.914062 226.753906 101.914062 213.4375 C 101.914062 201.640625 94.796875 195.332031 85.578125 191.359375 L 75.195312 187.039062 C 68.664062 184.351562 63.996094 182.484375 63.996094 177.695312 C 63.996094 173.136719 67.613281 170.21875 74.496094 170.21875 C 80.679688 170.21875 85.347656 172.4375 90.128906 176.410156 C 90.828125 176.992188 91.761719 176.757812 92.230469 176.175781 L 99.113281 167.53125 C 99.578125 167.0625 99.578125 166.128906 98.996094 165.546875 C 92.8125 159.355469 83.710938 155.5 74.496094 155.5 C 58.980469 155.5 47.429688 165.3125 47.429688 178.394531 C 47.429688 190.425781 55.945312 196.734375 63.644531 200.003906 L 74.144531 204.558594 C 81.261719 207.597656 85.113281 209.230469 85.113281 214.488281 C 85.113281 219.394531 81.496094 222.898438 73.210938 222.898438 C 66.679688 222.898438 59.679688 219.511719 54.429688 214.605469 C 53.730469 214.019531 52.796875 214.136719 52.328125 214.722656 Z M 44.394531 223.949219 "/>
<path style=" stroke:none;fill-rule:nonzero;fill:rgb(100%,100%,100%);fill-opacity:1;" d="M 106.113281 223.949219 C 105.644531 224.417969 105.53125 225.351562 106.113281 225.9375 C 113.578125 233.292969 124.082031 237.5 134.699219 237.5 C 152.429688 237.5 163.632812 226.753906 163.632812 213.4375 C 163.632812 201.640625 156.515625 195.332031 147.296875 191.359375 L 136.914062 187.039062 C 130.378906 184.351562 125.714844 182.484375 125.714844 177.695312 C 125.714844 173.136719 129.332031 170.21875 136.214844 170.21875 C 142.398438 170.21875 147.0625 172.4375 151.847656 176.410156 C 152.546875 176.992188 153.480469 176.757812 153.949219 176.175781 L 160.832031 167.53125 C 161.296875 167.0625 161.296875 166.128906 160.714844 165.546875 C 154.53125 159.355469 145.429688 155.5 136.214844 155.5 C 120.695312 155.5 109.148438 165.3125 109.148438 178.394531 C 109.148438 190.425781 117.664062 196.734375 125.363281 200.003906 L 135.863281 204.558594 C 142.980469 207.597656 146.832031 209.230469 146.832031 214.488281 C 146.832031 219.394531 143.214844 222.898438 134.929688 222.898438 C 128.398438 222.898438 121.398438 219.511719 116.148438 214.605469 C 115.445312 214.019531 114.511719 214.136719 114.046875 214.722656 Z M 106.113281 223.949219 "/>
<path style=" stroke:none;fill-rule:nonzero;fill:rgb(100%,100%,100%);fill-opacity:1;" d="M 174.480469 234.695312 C 174.480469 235.28125 175.066406 236.097656 176 236.097656 L 189.53125 236.097656 C 190.117188 236.097656 190.933594 235.632812 190.933594 234.695312 L 190.933594 202.222656 L 219.050781 202.222656 L 219.050781 234.695312 C 219.050781 235.28125 219.515625 236.097656 220.449219 236.097656 L 233.984375 236.097656 C 234.566406 236.097656 235.5 235.632812 235.5 234.695312 L 235.5 158.304688 C 235.5 157.71875 234.917969 156.902344 233.984375 156.902344 L 220.449219 156.902344 C 219.867188 156.902344 219.050781 157.367188 219.050781 158.304688 L 219.050781 187.503906 L 190.933594 187.503906 L 190.933594 158.304688 C 190.933594 157.71875 190.464844 156.902344 189.53125 156.902344 L 176 156.902344 C 175.414062 156.902344 174.480469 157.367188 174.480469 158.304688 Z M 174.480469 234.695312 "/>
</g>
</svg>
