<?xml version="1.0" encoding="UTF-8"?>
<svg xmlns="http://www.w3.org/2000/svg" xmlns:xlink="http://www.w3.org/1999/xlink" width="250pt" height="132pt" viewBox="0 0 250 132" version="1.1">
<defs>
<linearGradient id="linear0" gradientUnits="userSpaceOnUse" x1="0" y1="0" x2="1" y2="0" gradientTransform="matrix(-0.416417,-45.512746,39.374444,-0.481334,40.637959,88.097532)">
<stop offset="0" style="stop-color:rgb(58.039216%,90.196078%,100%);stop-opacity:1;"/>
<stop offset="1" style="stop-color:rgb(10.588235%,34.901961%,76.078431%);stop-opacity:1;"/>
</linearGradient>
<linearGradient id="linear1" gradientUnits="userSpaceOnUse" x1="0" y1="0" x2="1" y2="0" gradientTransform="matrix(-0.226714,35.491817,-35.46284,-0.226899,39.025677,48.329482)">
<stop offset="0" style="stop-color:rgb(3.921569%,3.921569%,11.764706%);stop-opacity:1;"/>
<stop offset="1" style="stop-color:rgb(14.901961%,19.607843%,64.705882%);stop-opacity:1;"/>
</linearGradient>
<clipPath id="clip1">
  <path d="M 53 62 L 58 62 L 58 66 L 53 66 Z M 53 62 "/>
</clipPath>
<clipPath id="clip2">
  <path d="M 43.363281 60.496094 C 46.371094 60.03125 51.558594 59.148438 55.746094 60.933594 C 59.527344 62.546875 60.839844 65.898438 59.914062 66.371094 C 59.382812 66.644531 55.632812 64.925781 52.167969 68.605469 C 51.40625 69.414062 51.304688 70.371094 50.074219 71.875 C 48.082031 74.3125 45.859375 73.960938 46.140625 73.679688 C 46.601562 73.226562 47.265625 72.398438 46.921875 70.804688 C 46.835938 70.425781 45.566406 72.125 39.285156 73.660156 C 39.171875 73.6875 39.398438 71.015625 36.863281 69.824219 C 34.46875 68.695312 32.40625 70.226562 32.191406 71.226562 C 32.171875 71.3125 35.460938 70.429688 35.636719 73.898438 C 35.636719 73.902344 35.644531 73.914062 35.617188 73.917969 C 34.976562 73.984375 26.765625 73.316406 22.078125 67.230469 C 22.015625 67.148438 20.65625 67.425781 19.46875 67.234375 C 18.003906 66.996094 16.703125 66.265625 16.664062 66.011719 C 16.632812 65.8125 20.246094 64.769531 20.71875 64.230469 C 21.136719 63.753906 21.597656 60.824219 21.875 61.027344 C 22.183594 61.25 22.894531 62.402344 23.167969 63.390625 C 23.480469 64.53125 23.433594 65.503906 23.464844 65.535156 C 23.773438 65.832031 33.574219 65.519531 37.035156 62.90625 C 38.703125 61.648438 34.890625 58.171875 34.726562 58.03125 C 34.457031 57.800781 37.339844 57.34375 39.582031 58.558594 C 41.535156 59.613281 41.9375 60.71875 43.363281 60.496094 Z M 43.363281 60.496094 "/>
</clipPath>
</defs>
<g id="surface3">
<path style="fill-rule:nonzero;fill:rgb(6.666667%,7.843137%,25.882353%);fill-opacity:1;stroke-width:4.29132;stroke-linecap:butt;stroke-linejoin:round;stroke:rgb(6.666667%,7.843137%,25.882353%);stroke-opacity:1;stroke-miterlimit:10;" d="M 449.619138 471.091621 C 467.802448 483.80207 489.427867 490.256984 514.495393 490.456363 C 544.17734 490.082527 559.217856 481.0606 559.641884 463.34074 C 559.841427 448.810952 549.914187 440.088095 529.860166 437.147247 C 520.656268 436.100504 510.579372 434.879304 499.604534 433.558414 C 479.974541 430.792022 465.033796 424.611255 454.7823 414.99119 C 444.231491 405.096978 438.968557 393.084358 438.968557 378.928407 C 438.968557 361.931297 445.603345 348.199028 458.872922 337.781445 C 471.71847 327.463551 489.951666 322.204915 513.572509 322.030458 C 541.982373 322.553829 566.7007 329.28289 587.702548 342.192718 L 568.421754 366.517028 C 551.286042 356.896963 532.429276 351.912473 511.826512 351.538637 C 501.175932 351.538637 492.29629 353.806579 485.187589 358.367387 C 477.779573 363.07773 473.963323 370.105861 473.763781 379.451779 C 473.763781 385.05933 476.307947 390.143509 481.421224 394.679395 C 486.559443 399.31497 494.765629 402.529966 506.03978 404.29946 C 512.300426 405.196668 520.880753 406.218488 531.730877 407.364921 C 553.156753 409.857166 568.995439 416.41177 579.221992 427.00381 C 589.373717 437.421393 594.437107 449.533703 594.437107 463.34074 C 593.289738 500.549955 566.5261 519.441171 514.19608 519.964542 C 480.32374 519.964542 451.240421 511.067228 426.896236 493.247678 Z M 449.619138 471.091621 " transform="matrix(0.156608,0,0,0.156736,0,0.014449)"/>
<path style="fill-rule:nonzero;fill:rgb(6.666667%,7.843137%,25.882353%);fill-opacity:1;stroke-width:4.29132;stroke-linecap:butt;stroke-linejoin:round;stroke:rgb(6.666667%,7.843137%,25.882353%);stroke-opacity:1;stroke-miterlimit:10;" d="M 618.631636 420.9975 C 618.631636 398.392839 619.429806 383.239991 620.97626 375.588799 C 622.647428 367.937608 625.216538 361.731918 628.658646 357.021575 C 634.195951 348.024571 643.075592 340.024465 655.29757 332.971413 C 667.320006 325.868515 682.310636 322.204915 700.294404 322.030458 C 718.477714 322.204915 733.618001 325.868515 745.740208 332.971413 C 757.762644 340.024465 766.4178 348.024571 771.755562 357.021575 C 775.621697 361.731918 778.290578 367.937608 779.762204 375.588799 C 781.109116 383.239991 781.782572 398.392839 781.782572 420.9975 C 781.782572 443.253246 781.109116 458.306405 779.762204 466.132054 C 778.290578 473.982625 775.621697 480.263082 771.755562 484.973425 C 766.4178 493.970429 757.762644 501.895767 745.740208 508.749441 C 733.618001 515.877261 718.477714 519.615628 700.294404 519.964542 C 682.310636 519.615628 667.320006 515.877261 655.29757 508.749441 C 643.075592 501.895767 634.195951 493.970429 628.658646 484.973425 C 626.987478 482.032576 625.490909 479.216339 624.119054 476.549637 C 622.871914 473.808168 621.824316 470.319025 620.97626 466.132054 C 619.429806 458.306405 618.631636 443.253246 618.631636 420.9975 Z M 653.426859 420.9975 C 653.426859 440.13794 654.274915 453.097613 655.946083 459.851597 C 657.392766 466.630503 660.385904 472.113441 664.87561 476.300413 C 668.517261 480.288005 673.331223 483.552845 679.292556 486.04509 C 685.129174 488.985939 692.138104 490.456363 700.294404 490.456363 C 708.550475 490.456363 715.709062 488.985939 721.770165 486.04509 C 727.507012 483.552845 732.09649 480.288005 735.563541 476.300413 C 740.053247 472.113441 743.121213 466.630503 744.792381 459.851597 C 746.363778 453.097613 747.161948 440.13794 747.161948 420.9975 C 747.161948 401.85706 746.363778 388.797697 744.792381 381.869256 C 743.121213 375.264807 740.053247 369.881559 735.563541 365.694587 C 732.09649 361.706995 727.507012 358.367387 721.770165 355.675763 C 715.709062 353.108751 708.550475 351.738016 700.294404 351.538637 C 692.138104 351.738016 685.129174 353.108751 679.292556 355.675763 C 673.331223 358.367387 668.517261 361.706995 664.87561 365.694587 C 660.385904 369.881559 657.392766 375.264807 655.946083 381.869256 C 654.274915 388.797697 653.426859 401.85706 653.426859 420.9975 Z M 653.426859 420.9975 " transform="matrix(0.156608,0,0,0.156736,0,0.014449)"/>
<path style="fill-rule:nonzero;fill:rgb(6.666667%,7.843137%,25.882353%);fill-opacity:1;stroke-width:4.29132;stroke-linecap:butt;stroke-linejoin:round;stroke:rgb(6.666667%,7.843137%,25.882353%);stroke-opacity:1;stroke-miterlimit:10;" d="M 919.142641 448.636495 L 886.068471 363.576179 L 885.444901 363.576179 L 852.370732 448.636495 Z M 929.019994 474.829988 L 842.343721 474.829988 L 824.808924 518.369506 L 788.118047 518.369506 L 871.177612 323.625494 L 900.186103 323.625494 L 983.245669 518.369506 L 946.729391 518.369506 Z M 929.019994 474.829988 " transform="matrix(0.156608,0,0,0.156736,0,0.014449)"/>
<path style="fill-rule:nonzero;fill:rgb(6.666667%,7.843137%,25.882353%);fill-opacity:1;stroke-width:4.29132;stroke-linecap:butt;stroke-linejoin:round;stroke:rgb(6.666667%,7.843137%,25.882353%);stroke-opacity:1;stroke-miterlimit:10;" d="M 1037.870428 408.98488 L 1090.200449 408.98488 C 1103.170711 408.810423 1112.873465 405.595427 1119.358597 399.364815 C 1125.719014 393.582807 1128.911694 386.454987 1128.911694 377.981354 C 1128.712151 367.837918 1124.895901 360.485795 1117.487886 355.94991 C 1111.626325 351.937396 1103.170711 349.9436 1092.096102 349.9436 L 1037.870428 349.9436 Z M 1003.224862 323.625494 L 1092.395416 323.625494 C 1111.426782 323.625494 1126.941212 327.912156 1138.938704 336.460555 C 1153.480364 346.155388 1161.038036 360.012269 1161.661607 377.981354 C 1161.262522 404.424072 1146.521319 422.41808 1117.487886 431.938455 L 1170.441477 518.369506 L 1129.23595 518.369506 L 1082.069092 435.153451 L 1037.870428 435.153451 L 1037.870428 518.369506 L 1003.224862 518.369506 Z M 1003.224862 323.625494 " transform="matrix(0.156608,0,0,0.156736,0,0.014449)"/>
<path style="fill-rule:nonzero;fill:rgb(32.941176%,60%,86.666667%);fill-opacity:1;stroke-width:4.29132;stroke-linecap:butt;stroke-linejoin:round;stroke:rgb(32.941176%,60%,86.666667%);stroke-opacity:1;stroke-miterlimit:10;" d="M 1348.558101 463.864111 C 1343.544595 481.932886 1333.991498 495.839612 1319.873866 505.534445 C 1305.357149 515.15451 1288.171552 519.964542 1268.317073 519.964542 C 1250.333305 519.615628 1235.342675 515.877261 1223.320239 508.749441 C 1211.098261 501.895767 1202.21862 493.970429 1196.681315 484.973425 C 1195.010147 482.032576 1193.488635 479.216339 1192.141723 476.549637 C 1190.894583 473.808168 1189.846985 470.319025 1188.998929 466.132054 C 1187.427532 458.306405 1186.654305 443.253246 1186.654305 420.9975 C 1186.654305 398.392839 1187.427532 383.239991 1188.998929 375.588799 C 1190.670097 367.937608 1193.239207 361.731918 1196.681315 357.021575 C 1202.21862 348.024571 1211.098261 340.024465 1223.320239 332.971413 C 1235.342675 325.868515 1250.333305 322.204915 1268.317073 322.030458 C 1290.366519 322.204915 1308.325344 327.762621 1322.218491 338.728498 C 1336.13658 349.769143 1344.891507 363.426644 1348.558101 379.725926 L 1311.892166 379.725926 C 1309.048686 371.900277 1303.935409 365.221061 1296.527394 359.688277 C 1288.795122 354.429641 1279.391682 351.738016 1268.317073 351.538637 C 1260.160773 351.738016 1253.151843 353.108751 1247.315225 355.675763 C 1241.353892 358.367387 1236.53993 361.706995 1232.898279 365.694587 C 1228.408573 369.881559 1225.415435 375.264807 1223.968752 381.869256 C 1222.297584 388.797697 1221.449528 401.85706 1221.449528 420.9975 C 1221.449528 440.13794 1222.297584 453.097613 1223.968752 459.851597 C 1225.415435 466.630503 1228.408573 472.113441 1232.898279 476.300413 C 1236.53993 480.288005 1241.353892 483.552845 1247.315225 486.04509 C 1253.151843 488.985939 1260.160773 490.456363 1268.317073 490.456363 C 1287.747524 490.456363 1302.264241 481.583972 1311.892166 463.864111 Z M 1348.558101 463.864111 " transform="matrix(0.156608,0,0,0.156736,0,0.014449)"/>
<path style="fill-rule:nonzero;fill:rgb(32.941176%,60%,86.666667%);fill-opacity:1;stroke-width:4.29132;stroke-linecap:butt;stroke-linejoin:round;stroke:rgb(32.941176%,60%,86.666667%);stroke-opacity:1;stroke-miterlimit:10;" d="M 1475.741502 448.636495 L 1442.667332 363.576179 L 1442.043762 363.576179 L 1408.969592 448.636495 Z M 1485.618855 474.829988 L 1398.942582 474.829988 L 1381.382842 518.369506 L 1344.716907 518.369506 L 1427.776473 323.625494 L 1456.760021 323.625494 L 1539.819587 518.369506 L 1503.328252 518.369506 Z M 1485.618855 474.829988 " transform="matrix(0.156608,0,0,0.156736,0,0.014449)"/>
<path style=" stroke:none;fill-rule:nonzero;fill:url(#linear0);" d="M 38.976562 46.972656 C 25.429688 46.972656 14.445312 58.027344 14.445312 71.667969 C 14.445312 72.621094 14.507812 73.558594 14.609375 74.484375 C 15.960938 72.011719 19.957031 71.8125 21.671875 72.664062 C 21.835938 72.75 18.941406 73.640625 18.957031 76.199219 C 18.960938 76.710938 22.464844 73.886719 26.449219 76.015625 C 26.65625 76.125 25.175781 76.320312 24.277344 77.707031 C 23.789062 78.46875 23.855469 80.128906 25.574219 81.0625 C 29.007812 82.929688 34.347656 78.949219 34.472656 79.046875 C 41.457031 84.710938 49.027344 78.914062 49.125 79.039062 C 49.40625 79.382812 58.714844 84.769531 62.269531 78.09375 C 63.246094 76.261719 63.492188 74.507812 63.503906 71.664062 C 63.5625 58.121094 52.523438 46.972656 38.976562 46.972656 Z M 38.976562 46.972656 "/>
<path style=" stroke:none;fill-rule:nonzero;fill:rgb(100%,100%,100%);fill-opacity:1;" d="M 34.675781 73.808594 C 34.578125 74.003906 38.574219 73.941406 39.648438 73.554688 C 39.695312 73.535156 39.464844 73.585938 39.523438 73.5 C 40.027344 72.707031 40.066406 67.683594 38.210938 67.59375 C 33.234375 67.367188 31.539062 72.082031 31.539062 72.082031 C 31.539062 72.082031 32.433594 72.46875 33.574219 73.015625 C 34.179688 73.304688 34.871094 73.421875 34.675781 73.808594 Z M 34.675781 73.808594 "/>
<path style=" stroke:none;fill-rule:nonzero;fill:rgb(100%,100%,100%);fill-opacity:1;" d="M 49.078125 69.566406 C 52.96875 68.699219 59.414062 66.851562 59.964844 66.324219 C 60.421875 65.890625 52.253906 64.472656 52.253906 64.472656 C 52.253906 64.472656 46.777344 70.078125 49.078125 69.566406 Z M 49.078125 69.566406 "/>
<path style=" stroke:none;fill-rule:nonzero;fill:url(#linear1);" d="M 43.363281 60.496094 C 46.371094 60.03125 51.558594 59.148438 55.746094 60.933594 C 59.527344 62.546875 60.839844 65.898438 59.914062 66.371094 C 59.382812 66.644531 55.632812 64.925781 52.167969 68.605469 C 51.40625 69.414062 51.304688 70.371094 50.074219 71.875 C 48.082031 74.3125 45.859375 73.960938 46.140625 73.679688 C 46.601562 73.226562 47.265625 72.398438 46.921875 70.804688 C 46.835938 70.425781 45.566406 72.125 39.285156 73.660156 C 39.171875 73.6875 39.398438 71.015625 36.863281 69.824219 C 34.46875 68.695312 32.40625 70.226562 32.191406 71.226562 C 32.171875 71.3125 35.460938 70.429688 35.636719 73.898438 C 35.636719 73.902344 35.644531 73.914062 35.617188 73.917969 C 34.976562 73.984375 26.765625 73.316406 22.078125 67.230469 C 22.015625 67.148438 20.65625 67.425781 19.46875 67.234375 C 18.003906 66.996094 16.703125 66.265625 16.664062 66.011719 C 16.632812 65.8125 20.246094 64.769531 20.71875 64.230469 C 21.136719 63.753906 21.597656 60.824219 21.875 61.027344 C 22.183594 61.25 22.894531 62.402344 23.167969 63.390625 C 23.480469 64.53125 23.433594 65.503906 23.464844 65.535156 C 23.773438 65.832031 33.574219 65.519531 37.035156 62.90625 C 38.703125 61.648438 34.890625 58.171875 34.726562 58.03125 C 34.457031 57.800781 37.339844 57.34375 39.582031 58.558594 C 41.535156 59.613281 41.9375 60.71875 43.363281 60.496094 Z M 43.363281 60.496094 "/>
<g clip-path="url(#clip1)" clip-rule="nonzero">
<g clip-path="url(#clip2)" clip-rule="nonzero">
<path style=" stroke:none;fill-rule:nonzero;fill:rgb(100%,100%,100%);fill-opacity:1;" d="M 53.644531 63.953125 C 53.625 63.429688 53.972656 62.597656 55.816406 63.042969 C 57.050781 63.339844 57.558594 64.179688 57.496094 64.601562 C 57.402344 65.210938 56.730469 65.414062 55.613281 65.246094 C 54.339844 65.054688 53.667969 64.496094 53.644531 63.953125 Z M 53.644531 63.953125 "/>
</g>
</g>
</g>
</svg>
