<?xml version="1.0" standalone="no"?>
<!DOCTYPE svg PUBLIC "-//W3C//DTD SVG 20010904//EN"
 "http://www.w3.org/TR/2001/REC-SVG-20010904/DTD/svg10.dtd">
<svg version="1.0" xmlns="http://www.w3.org/2000/svg"
 width="1191.000000pt" height="1191.000000pt" viewBox="0 0 1191.000000 1191.000000"
 preserveAspectRatio="xMidYMid meet">
<metadata>
Created by potrace 1.14, written by Peter Selinger 2001-2017
</metadata>
<g transform="translate(0.000000,1191.000000) scale(0.100000,-0.100000)"
fill="#000000" stroke="none">
<path d="M6019 9275 c-1 -3 -2 -9 -3 -14 -2 -19 -16 -24 -31 -11 -8 7 -15 8
-15 3 0 -5 -12 -9 -27 -9 -16 0 -41 -4 -56 -8 -19 -4 -26 -3 -22 4 3 5 1 10
-4 10 -6 0 -11 -4 -11 -9 0 -5 -8 -8 -17 -6 -10 1 -22 0 -28 -4 -21 -12 -55
-11 -56 1 0 7 -4 4 -9 -7 -5 -11 -9 -14 -9 -7 -1 10 -5 10 -23 0 -13 -6 -42
-12 -65 -13 -23 -1 -49 -7 -57 -14 -15 -13 -20 -9 -17 14 1 6 -5 2 -13 -9 -8
-10 -19 -15 -25 -11 -6 3 -11 1 -11 -6 0 -8 -5 -7 -17 2 -14 12 -16 12 -8 0 6
-11 4 -13 -7 -8 -9 3 -20 1 -25 -4 -5 -5 -21 -10 -36 -11 -15 -1 -27 -7 -28
-13 0 -5 -4 -1 -9 10 -6 15 -9 16 -9 4 -1 -15 -11 -19 -54 -20 -9 0 -15 -4
-12 -9 3 -6 -1 -7 -9 -4 -9 3 -16 2 -16 -4 0 -5 -13 -8 -30 -7 -18 2 -27 -1
-23 -8 4 -6 -2 -8 -15 -5 -12 4 -20 3 -17 -2 8 -12 -21 -20 -33 -8 -6 6 -12 6
-17 -3 -6 -8 -4 -10 6 -4 11 6 11 5 3 -4 -6 -7 -31 -15 -54 -18 -23 -3 -44
-12 -47 -19 -3 -8 -9 -11 -14 -8 -5 3 -6 10 -3 16 4 7 2 8 -5 4 -6 -4 -9 -11
-6 -16 3 -4 -2 -11 -11 -14 -10 -4 -13 -2 -7 6 4 7 -6 2 -22 -10 -22 -17 -30
-20 -37 -10 -5 9 -8 8 -8 -6 0 -13 -5 -17 -20 -13 -11 3 -18 1 -14 -4 3 -5 -4
-9 -15 -9 -11 0 -23 -5 -26 -10 -3 -6 -16 -8 -28 -6 -12 1 -16 1 -9 -1 7 -3
10 -9 6 -14 -3 -5 -10 -7 -15 -4 -5 4 -9 1 -9 -6 0 -6 -8 -9 -20 -6 -11 3 -18
2 -15 -3 3 -4 -2 -11 -11 -14 -10 -4 -13 -2 -8 7 4 6 -4 1 -19 -12 -14 -12
-30 -20 -36 -17 -7 5 -8 1 -4 -11 6 -16 5 -16 -10 -4 -10 8 -20 11 -24 7 -3
-3 -1 -6 6 -6 9 0 8 -4 -3 -15 -16 -16 -28 -20 -23 -7 1 4 -2 8 -8 9 -5 1 -8
-6 -7 -15 3 -14 1 -14 -12 -3 -14 12 -16 11 -10 -4 5 -13 4 -16 -4 -11 -7 4
-12 2 -12 -4 0 -7 -7 -10 -15 -6 -8 3 -14 2 -14 -2 3 -19 -2 -25 -11 -12 -8
13 -10 13 -10 -2 0 -10 -10 -22 -21 -29 -15 -7 -19 -8 -15 0 5 7 1 8 -9 5 -9
-4 -14 -13 -11 -21 3 -8 1 -11 -4 -8 -6 3 -10 0 -10 -7 0 -9 -3 -9 -10 2 -8
13 -10 12 -10 -3 0 -10 -5 -15 -11 -12 -6 4 -8 14 -5 22 3 8 1 11 -5 8 -5 -4
-7 -16 -3 -27 4 -14 2 -18 -5 -14 -6 4 -11 1 -11 -8 0 -10 -6 -13 -17 -9 -12
5 -14 3 -8 -7 6 -10 4 -12 -8 -7 -9 3 -18 0 -21 -9 -3 -9 -10 -12 -16 -9 -5 3
-10 -1 -10 -11 0 -14 -3 -14 -15 -4 -13 11 -14 10 -9 -5 5 -13 4 -16 -4 -11
-8 4 -12 0 -12 -11 0 -15 -2 -16 -10 -3 -8 13 -10 12 -10 -3 0 -11 -9 -21 -20
-24 -11 -3 -20 -9 -20 -14 0 -5 -5 -9 -11 -9 -6 0 -8 7 -5 16 3 9 2 12 -5 9
-5 -4 -9 -14 -7 -23 1 -10 -1 -18 -5 -19 -4 -1 -15 -9 -24 -18 -8 -9 -22 -14
-29 -11 -7 3 -16 0 -20 -6 -4 -7 -3 -8 4 -4 16 10 15 -2 -2 -19 -10 -11 -16
-11 -25 -2 -9 9 -11 9 -6 -3 7 -19 -48 -75 -64 -66 -7 4 -9 1 -5 -8 4 -11 0
-14 -14 -11 -13 2 -19 -2 -18 -12 0 -9 -5 -18 -13 -21 -9 -3 -11 0 -6 8 5 9 4
11 -4 6 -6 -4 -9 -11 -6 -16 7 -12 -36 -61 -56 -63 -27 -4 -48 -27 -42 -44 5
-12 2 -15 -10 -10 -9 3 -16 3 -16 -1 3 -18 -2 -32 -12 -32 -5 0 -7 6 -3 13 5
7 1 7 -12 -3 -29 -22 -30 -24 -11 -17 9 4 17 2 17 -3 0 -6 -5 -10 -11 -10 -5
0 -7 -5 -4 -10 4 -7 -3 -9 -20 -6 -15 3 -25 2 -21 -1 3 -4 -2 -16 -11 -27 -13
-15 -10 -14 10 3 15 14 27 20 27 15 0 -5 -13 -18 -29 -29 -16 -10 -27 -23 -24
-28 3 -5 -5 -6 -18 -3 -21 6 -21 5 -6 -4 9 -6 15 -16 11 -21 -4 -6 -10 -6 -19
1 -10 8 -13 6 -11 -7 0 -10 -4 -17 -11 -16 -8 2 -10 -4 -6 -15 6 -15 4 -15 -9
-4 -14 11 -16 10 -11 -7 7 -26 -35 -80 -62 -81 -17 0 -17 -2 -5 -10 13 -9 13
-10 0 -11 -8 -1 -19 -1 -23 0 -5 1 -6 -3 -2 -9 3 -6 12 -8 18 -4 7 3 2 -3 -10
-14 -12 -11 -19 -23 -16 -26 4 -4 -3 -9 -16 -13 -17 -4 -19 -8 -9 -14 10 -7 9
-9 -5 -9 -9 0 -16 -5 -15 -12 2 -7 -2 -12 -9 -13 -6 0 -15 -4 -20 -9 -5 -5 -2
-6 6 -1 9 5 12 3 9 -6 -3 -8 -10 -13 -16 -12 -6 2 -9 -4 -6 -12 4 -8 1 -15 -5
-15 -6 0 -11 5 -11 12 0 6 -3 8 -6 5 -4 -4 -1 -14 7 -24 12 -15 12 -16 -3 -10
-13 4 -15 2 -11 -10 4 -10 -3 -23 -18 -35 -13 -11 -18 -16 -10 -12 10 5 12 3
7 -5 -5 -7 -15 -10 -23 -6 -12 4 -13 2 -5 -8 6 -7 7 -18 3 -26 -7 -11 -11 -9
-20 5 -9 15 -9 13 -4 -15 5 -29 4 -33 -10 -28 -9 3 -19 1 -23 -5 -4 -6 -3 -8
4 -4 6 3 13 2 17 -4 3 -5 -2 -10 -12 -10 -15 0 -16 -2 -3 -10 9 -6 10 -10 3
-10 -6 0 -13 -10 -15 -22 -2 -14 -13 -25 -28 -29 -20 -6 -21 -7 -5 -8 19 -2
19 -3 3 -15 -10 -7 -15 -16 -12 -19 9 -9 -22 -48 -31 -39 -5 4 -5 1 -1 -5 9
-17 -12 -55 -26 -47 -7 5 -8 2 -2 -7 14 -23 13 -37 -4 -51 -13 -11 -14 -11 -7
1 5 9 4 12 -3 7 -6 -4 -8 -14 -5 -23 5 -13 2 -15 -13 -10 -19 7 -19 7 0 -8 17
-13 17 -15 4 -15 -9 0 -20 -5 -24 -12 -4 -7 -3 -8 4 -4 7 4 12 2 12 -3 0 -6
-8 -11 -17 -11 -15 0 -16 -2 -3 -10 12 -8 12 -11 -3 -28 -9 -10 -14 -22 -10
-25 3 -4 1 -7 -6 -7 -7 0 -9 -5 -6 -10 9 -14 -14 -42 -28 -33 -6 3 -7 1 -3 -6
4 -6 12 -8 18 -5 5 4 4 -4 -3 -17 -7 -13 -12 -28 -11 -32 1 -4 -5 -10 -14 -14
-13 -5 -13 -7 -2 -14 10 -7 11 -9 0 -9 -8 0 -10 -5 -6 -12 5 -7 2 -9 -8 -6 -8
4 -15 1 -15 -7 0 -7 5 -12 11 -11 6 2 8 1 4 -1 -5 -3 -8 -12 -8 -22 0 -9 -7
-27 -16 -39 -12 -17 -12 -22 -2 -22 10 0 9 -3 -2 -10 -8 -5 -11 -12 -7 -16 4
-4 -1 -13 -11 -21 -10 -9 -11 -12 -2 -7 10 5 8 -1 -5 -16 -11 -13 -14 -20 -6
-15 11 6 13 4 8 -9 -4 -10 -7 -20 -7 -22 0 -3 -6 -2 -12 2 -8 5 -7 0 2 -11 8
-11 10 -16 3 -11 -9 5 -12 -1 -9 -24 2 -21 0 -30 -9 -27 -6 3 -12 -1 -12 -9 0
-7 3 -11 7 -9 3 2 6 -5 6 -15 0 -18 -1 -18 -20 -2 -20 16 -20 16 -7 0 11 -15
11 -21 0 -35 -12 -16 -12 -17 2 -6 13 10 16 10 16 -2 0 -8 -7 -15 -16 -15 -9
0 -12 -3 -6 -8 13 -9 16 -42 4 -42 -5 0 -9 5 -9 12 0 6 -3 9 -6 6 -3 -4 -1
-15 4 -25 10 -19 5 -46 -7 -39 -4 3 -8 -1 -8 -9 0 -8 3 -12 7 -10 3 2 6 -10 5
-26 0 -16 -4 -29 -8 -29 -5 0 -6 -4 -3 -9 4 -5 1 -11 -6 -13 -6 -2 -12 -12
-14 -21 -1 -9 2 -15 6 -12 7 5 8 -11 1 -58 0 -5 -7 -5 -13 -2 -7 4 -4 -1 6 -9
17 -14 18 -16 3 -16 -9 0 -17 -5 -17 -11 0 -5 4 -8 8 -5 5 3 8 -12 8 -34 -1
-21 -3 -38 -6 -38 -18 1 -23 -4 -11 -11 12 -8 13 -14 3 -35 -7 -16 -8 -26 -2
-26 6 0 10 -5 10 -11 0 -5 -4 -8 -9 -5 -5 4 -7 -4 -3 -16 4 -16 2 -19 -9 -14
-10 5 -10 4 1 -6 17 -15 15 -62 -2 -52 -7 5 -8 2 -3 -6 4 -7 2 -16 -6 -22 -11
-8 -10 -9 3 -5 9 4 19 -1 22 -10 4 -10 2 -13 -7 -10 -15 5 -17 -19 -3 -41 4
-6 4 -12 -1 -12 -4 0 -1 -5 7 -10 9 -6 10 -10 3 -10 -8 0 -10 -19 -8 -60 3
-37 1 -58 -5 -55 -6 4 -10 2 -10 -3 0 -6 6 -12 14 -15 13 -5 14 -46 1 -66 -3
-6 -1 -11 5 -11 11 0 9 -44 -3 -56 -4 -4 -7 -12 -7 -18 0 -6 5 -4 10 4 10 15
11 9 14 -72 0 -14 3 -25 5 -22 2 2 11 -2 19 -9 13 -9 14 -9 8 1 -4 7 -2 12 5
12 8 0 8 4 -1 15 -9 11 -9 15 -1 15 7 0 9 5 5 12 -4 7 -3 8 4 4 7 -4 12 -1 12
8 0 23 91 107 147 136 26 14 50 28 53 31 7 10 164 58 208 64 80 12 100 14 182
15 47 1 108 -3 135 -9 28 -6 61 -13 75 -16 23 -4 80 -25 89 -31 2 -2 -4 -10
-13 -19 -9 -9 -16 -14 -16 -11 0 8 -114 -65 -118 -76 -2 -4 -8 -8 -14 -8 -21
0 -158 -161 -164 -192 -1 -5 -2 -9 -4 -10 -1 -2 -3 -12 -5 -23 -2 -11 -8 -21
-13 -23 -6 -2 -8 -13 -5 -25 4 -21 4 -21 -11 -4 -8 11 -12 26 -9 35 4 10 2 13
-6 8 -6 -4 -9 -16 -6 -27 5 -14 2 -17 -8 -13 -8 3 -18 0 -22 -5 -3 -6 -11 -9
-16 -5 -5 3 -1 13 10 22 11 9 21 24 23 32 2 8 10 21 18 28 13 11 11 11 -8 2
-12 -6 -20 -15 -17 -20 3 -6 -6 -21 -22 -36 -22 -21 -25 -27 -13 -34 9 -6 19
-5 24 0 16 16 30 11 16 -5 -7 -9 -8 -15 -2 -15 5 0 13 8 16 17 10 25 30 -1 31
-40 0 -25 4 -32 20 -32 11 -1 27 3 35 7 59 31 108 46 120 35 9 -9 11 -9 8 2
-3 14 48 35 64 25 4 -3 8 -1 8 4 0 13 39 22 46 11 3 -5 2 -15 -3 -21 -4 -7 -9
-22 -10 -33 -2 -16 -1 -17 6 -5 5 8 8 17 5 21 -2 4 0 11 6 14 6 4 8 14 5 24
-3 11 1 17 13 18 18 1 57 10 57 13 0 8 63 13 181 15 120 3 152 0 225 -20 115
-31 209 -69 209 -85 0 -4 -19 -15 -42 -26 -92 -39 -164 -97 -240 -192 -20 -25
-38 -87 -40 -137 -1 -30 -3 -33 -17 -22 -8 6 -5 -1 7 -17 12 -16 22 -34 22
-41 0 -19 46 -105 74 -136 27 -29 34 -45 16 -34 -6 3 -7 -1 -3 -10 4 -13 8
-14 14 -4 4 8 12 10 16 5 4 -4 -2 -16 -14 -26 -13 -10 -23 -23 -23 -30 0 -6
11 1 25 15 l24 27 30 -21 c16 -12 32 -21 35 -21 3 0 25 -9 49 -19 107 -48 276
-59 427 -26 14 3 38 8 54 11 16 2 34 8 40 12 6 3 16 7 23 8 21 3 87 25 120 40
17 8 34 14 37 14 14 0 229 109 328 166 115 66 107 66 174 19 16 -11 31 -22 34
-25 13 -15 144 -91 220 -127 85 -41 193 -81 240 -89 14 -3 34 -8 45 -11 26 -9
40 -11 95 -19 25 -3 56 -8 70 -10 37 -6 259 -5 305 1 22 3 64 10 94 15 29 5
57 7 62 4 5 -3 9 0 9 7 0 7 3 10 6 7 12 -12 258 63 374 114 69 31 208 101 279
142 l63 36 57 -34 c93 -55 199 -107 291 -141 25 -9 54 -21 65 -25 73 -31 256
-82 340 -95 95 -14 126 -17 225 -19 167 -4 332 31 450 97 71 39 167 115 205
162 52 63 74 85 85 85 6 0 8 -4 5 -10 -3 -6 -2 -10 3 -10 14 0 23 28 12 35 -6
4 -16 3 -22 -1 -14 -8 20 36 37 48 6 4 7 8 2 8 -12 0 22 60 34 60 6 0 7 4 4
10 -3 5 0 20 7 32 7 13 11 26 10 30 -1 4 5 5 13 2 8 -4 12 -10 9 -15 -3 -5 -1
-9 5 -9 11 0 7 52 -4 71 -5 8 0 9 16 5 20 -6 21 -5 7 4 -9 6 -15 17 -12 25 4
8 10 13 14 10 5 -3 12 0 16 6 4 7 3 9 -4 5 -6 -3 -13 -2 -17 4 -3 5 2 10 12
10 15 0 16 2 3 10 -14 9 -7 14 13 11 5 -1 5 4 1 11 -13 21 -12 49 2 44 12 -5
13 18 1 30 -4 4 1 16 10 27 10 11 12 17 6 13 -7 -4 -13 -2 -13 3 0 6 8 11 18
11 10 0 13 3 7 8 -12 8 -17 74 -6 67 4 -2 6 9 5 26 -1 16 3 29 9 29 7 0 5 5
-3 10 -12 8 -12 10 5 11 l20 0 -20 9 c-11 5 -15 9 -9 9 7 1 10 16 7 39 -2 27
-1 33 7 22 6 -9 10 -10 10 -3 0 6 -4 15 -10 18 -5 3 -10 11 -10 16 0 6 4 8 8
5 5 -3 9 1 9 9 0 8 -3 15 -6 15 -12 0 -3 73 11 81 10 7 8 9 -7 9 -17 0 -17 2
-5 10 12 8 12 10 1 10 -11 0 -11 3 0 17 12 15 12 16 -1 8 -12 -7 -13 -6 -4 6
6 8 10 24 8 37 -3 16 0 21 8 17 7 -4 4 1 -6 9 -11 9 -15 16 -9 16 6 0 14 7 17
16 5 14 4 15 -9 4 -9 -8 -15 -8 -15 -2 0 6 4 13 9 17 9 5 9 13 -3 73 -3 12 -1
22 3 22 4 0 8 7 8 15 0 8 -4 12 -9 9 -4 -3 -8 2 -8 11 0 9 5 13 10 10 6 -3 10
-1 10 4 0 6 -5 11 -12 11 -9 0 -9 3 0 12 7 7 12 17 12 22 0 6 -5 4 -10 -4 -9
-13 -10 -13 -10 1 0 8 5 20 11 26 8 8 7 13 -2 18 -8 6 -10 4 -4 -6 5 -8 4 -10
0 -6 -16 14 -14 37 3 37 15 1 15 2 -1 11 -12 7 -15 15 -9 22 12 16 11 46 -1
44 -5 -1 -12 4 -15 12 -2 8 0 11 6 7 12 -7 11 12 -3 34 -14 23 -16 62 -2 53 8
-4 7 -1 -1 9 -10 13 -10 17 0 21 8 4 7 6 -4 6 -21 1 -23 12 -5 30 10 11 10 13
0 7 -12 -7 -19 24 -14 63 2 8 -2 10 -11 5 -9 -5 -8 -2 2 11 9 11 10 16 3 11
-7 -4 -13 -2 -13 3 0 6 6 11 13 11 6 0 4 5 -5 11 -10 5 -18 14 -18 19 0 5 8 7
18 4 14 -5 15 -4 2 5 -8 6 -15 14 -15 18 -1 4 -6 18 -13 30 -10 18 -9 24 5 33
17 11 17 11 0 6 -11 -4 -17 -1 -15 7 1 6 -4 23 -11 35 -7 13 -10 26 -7 30 3 3
6 0 6 -6 0 -7 5 -12 12 -12 6 0 2 10 -10 23 -12 13 -22 32 -22 43 0 11 -6 26
-12 33 -11 11 -10 12 1 6 9 -5 8 0 -3 18 -13 20 -14 26 -4 30 8 4 7 6 -4 6
-20 1 -23 12 -7 28 8 8 7 13 -2 18 -8 6 -10 4 -4 -5 5 -9 4 -11 -3 -6 -9 5 -9
13 -2 26 8 15 7 18 -3 14 -9 -3 -17 3 -20 16 -4 15 -2 19 7 13 6 -4 5 -1 -4 7
-22 21 -32 50 -17 50 7 0 4 5 -5 11 -10 5 -18 19 -18 29 0 11 -4 20 -8 20 -5
0 -15 23 -22 50 -7 28 -18 50 -23 50 -6 0 -5 5 1 13 6 7 6 20 1 32 -9 18 -9
18 -5 -2 2 -13 0 -23 -5 -23 -5 0 -9 8 -9 18 0 10 -5 23 -12 30 -15 15 -20 44
-6 36 7 -4 8 -2 4 4 -4 7 -15 12 -24 12 -15 0 -15 2 -2 10 13 8 12 10 -4 10
-11 0 -16 3 -13 7 4 3 0 15 -10 25 -9 10 -12 18 -8 18 4 0 0 9 -10 20 -10 11
-13 20 -7 20 6 0 13 -6 15 -12 4 -10 6 -10 6 0 1 8 -8 16 -20 19 -14 4 -19 12
-16 24 3 10 0 17 -7 16 -6 -1 -10 4 -8 11 1 6 -2 12 -8 12 -5 0 -14 10 -21 21
-9 17 -8 20 3 14 7 -3 5 0 -4 8 -10 8 -18 19 -18 26 0 6 -3 11 -7 11 -5 0 -16
11 -26 25 -12 17 -14 26 -5 31 6 4 8 3 5 -3 -4 -6 3 -19 16 -29 l22 -19 -20
24 c-11 13 -19 25 -17 27 4 7 -22 44 -32 44 -5 0 -1 -9 9 -20 10 -11 14 -20 9
-20 -5 0 -18 14 -28 31 -11 18 -13 29 -7 24 8 -4 7 4 -3 24 -9 17 -23 31 -30
31 -16 0 -46 42 -46 65 0 8 -7 15 -15 15 -8 0 -19 9 -25 20 -6 11 -8 20 -5 20
2 0 -9 13 -25 29 -17 15 -30 33 -30 40 0 6 -4 11 -10 11 -5 0 -10 8 -10 18 0
14 -2 15 -10 2 -8 -13 -10 -13 -10 2 0 9 6 19 13 22 6 3 2 3 -10 0 -13 -3 -23
-1 -23 3 0 5 -10 20 -21 32 -18 19 -19 25 -8 32 12 7 12 9 -1 10 -8 1 -21 1
-27 0 -8 -1 -10 5 -6 15 4 11 2 15 -4 11 -15 -9 -36 19 -27 35 6 10 5 11 -8 1
-19 -16 -32 -5 -16 14 8 11 7 12 -6 7 -19 -7 -22 11 -3 20 6 3 3 4 -9 1 -25
-6 -70 37 -59 56 5 7 4 10 -3 6 -15 -10 -42 3 -42 20 0 8 5 11 12 7 7 -4 8 -3
4 4 -4 6 -13 9 -21 6 -8 -3 -19 4 -27 18 -7 13 -19 23 -27 23 -8 0 -16 7 -18
15 -4 13 -3 13 7 0 10 -13 11 -12 6 3 -3 10 -6 22 -6 25 0 4 -5 0 -11 -8 -8
-11 -12 -12 -16 -2 -2 6 -9 10 -14 6 -5 -3 -10 0 -10 5 -1 6 -2 17 -3 24 -1 6
-8 11 -16 9 -8 -2 -19 3 -25 10 -5 8 -18 17 -29 21 -16 6 -16 10 -5 24 13 15
12 15 -11 3 -14 -7 -22 -9 -18 -5 4 4 -7 16 -25 25 -17 10 -31 25 -31 33 1 9
-5 18 -13 21 -9 4 -12 1 -8 -7 4 -6 0 -4 -8 5 -8 10 -17 15 -20 11 -4 -3 -7
-1 -7 5 0 7 5 12 12 12 6 0 8 3 5 6 -4 4 -13 1 -22 -6 -15 -12 -20 -5 -16 22
0 4 -7 4 -16 1 -11 -4 -14 -3 -9 5 5 8 1 10 -10 5 -14 -5 -16 -3 -10 13 6 15
5 17 -5 7 -19 -19 -34 -16 -19 3 8 8 9 14 4 13 -20 -4 -35 2 -29 11 4 6 -1 7
-11 3 -13 -5 -15 -3 -9 8 7 11 5 11 -10 -1 -17 -14 -18 -13 -12 2 3 10 3 17
-1 17 -19 -3 -33 2 -28 10 4 5 -3 7 -14 4 -14 -4 -20 0 -20 12 0 12 -5 15 -16
11 -13 -5 -14 -3 -6 7 8 10 6 13 -8 13 -10 0 -16 -5 -13 -11 2 -5 -5 1 -17 15
-12 14 -18 19 -14 11 5 -10 3 -12 -5 -7 -7 5 -10 14 -8 20 3 7 -1 13 -9 13 -7
0 -11 -4 -8 -9 3 -4 1 -8 -5 -8 -5 0 -14 12 -19 28 -7 18 -11 21 -11 9 -1 -10
-6 -15 -11 -12 -6 4 -8 10 -5 15 3 5 0 12 -6 16 -8 4 -9 3 -5 -4 4 -7 2 -12
-3 -12 -6 0 -11 5 -11 11 0 5 -4 8 -9 4 -5 -3 -16 1 -24 9 -8 8 -18 12 -22 8
-3 -4 -13 2 -21 12 -8 11 -14 16 -14 11 0 -5 -7 0 -16 11 -8 10 -13 13 -9 7 3
-7 1 -13 -4 -13 -6 0 -11 5 -11 11 0 6 -6 9 -12 6 -7 -2 -26 5 -43 17 -16 11
-31 20 -32 19 -7 -6 -40 13 -56 32 -10 11 -16 15 -13 8 4 -6 2 -14 -4 -18 -5
-3 -10 1 -10 10 0 9 -4 14 -9 10 -6 -3 -14 3 -20 12 -10 17 -10 17 -11 -2 0
-19 0 -19 -15 1 -10 16 -21 20 -41 16 -19 -3 -25 -1 -20 6 5 8 1 10 -10 5 -14
-5 -16 -3 -10 13 6 15 5 17 -5 7 -15 -15 -33 -17 -24 -3 3 5 -5 9 -17 8 -38
-1 -49 2 -43 11 3 5 1 12 -4 15 -5 4 -13 1 -17 -5 -5 -8 -3 -9 6 -4 9 5 11 4
6 -3 -5 -9 -15 -8 -37 4 -17 8 -37 13 -45 10 -8 -3 -13 -2 -10 2 3 4 -4 14
-16 21 -14 9 -18 9 -13 1 5 -9 1 -10 -16 -5 -13 3 -32 9 -42 12 -9 2 -15 8
-13 12 3 4 -5 8 -17 8 -17 2 -18 0 -7 -7 11 -7 10 -9 -8 -7 -13 1 -21 6 -18
14 3 8 -1 10 -11 6 -12 -5 -14 -3 -8 8 7 12 6 12 -7 1 -19 -15 -49 -11 -74 8
-10 8 -15 10 -11 4 3 -6 0 -11 -8 -11 -8 0 -12 5 -8 10 3 5 -3 6 -14 3 -12 -4
-25 -1 -33 9 -8 10 -17 12 -28 6 -11 -6 -20 -4 -30 7 -7 10 -11 11 -7 5 4 -8
0 -13 -10 -13 -9 0 -13 5 -9 11 5 8 1 8 -14 0 -17 -9 -21 -8 -25 7 -4 16 -5
16 -6 0 0 -10 -5 -18 -11 -18 -5 0 -10 8 -10 18 0 11 -3 13 -8 6 -4 -7 -21
-11 -39 -11 -17 1 -29 5 -26 10 2 4 8 5 13 2 5 -3 11 -2 14 3 6 10 -45 9 -62
-2 -7 -4 -12 -2 -12 6 0 8 -3 9 -8 3 -9 -14 -52 -17 -52 -3 0 7 -5 6 -14 -1
-11 -10 -17 -8 -25 6 -6 10 -11 12 -11 6 0 -7 -5 -13 -11 -13 -5 0 -7 6 -3 13
6 10 4 10 -7 0 -19 -18 -29 -16 -23 5 5 16 5 16 -6 0 -6 -10 -18 -18 -25 -18
-8 0 -15 8 -15 18 0 14 -2 15 -10 2 -13 -21 -101 -21 -118 0 -11 13 -12 13 -7
0 6 -18 -30 -21 -54 -6 -10 7 -12 6 -6 -4 6 -10 4 -12 -9 -7 -10 4 -20 7 -22
7 -3 0 -2 5 2 12 4 7 3 8 -5 4 -6 -4 -9 -12 -6 -17 9 -13 -9 -11 -24 4 -11 10
-12 9 -6 -2 5 -9 3 -12 -6 -9 -8 3 -13 11 -11 17 2 10 -7 17 -9 6z m-2114
-984 c-3 -6 -11 -11 -17 -11 -6 0 -6 6 2 15 14 17 26 13 15 -4z m5028 -465 c4
-10 1 -13 -9 -9 -15 6 -19 23 -5 23 5 0 11 -7 14 -14z m557 -1496 c0 -5 -2
-10 -4 -10 -3 0 -8 5 -11 10 -3 6 -1 10 4 10 6 0 11 -4 11 -10z"/>
<path d="M6466 9262 c-3 -5 1 -9 9 -9 8 0 12 4 9 9 -3 4 -7 8 -9 8 -2 0 -6 -4
-9 -8z"/>
<path d="M7566 8968 c3 -5 10 -6 15 -3 13 9 11 12 -6 12 -8 0 -12 -4 -9 -9z"/>
<path d="M8210 8591 c0 -6 4 -13 10 -16 6 -3 7 1 4 9 -7 18 -14 21 -14 7z"/>
<path d="M4063 8468 c1 -7 -4 -12 -11 -10 -8 1 -11 -2 -7 -8 5 -8 11 -8 21 1
7 6 11 15 8 20 -8 13 -14 11 -11 -3z"/>
<path d="M3945 8350 c-4 -6 -11 -7 -17 -4 -7 4 -8 2 -4 -5 6 -9 11 -9 22 0 14
11 18 19 10 19 -3 0 -8 -5 -11 -10z"/>
<path d="M3644 8032 c3 -5 0 -13 -6 -15 -9 -4 -10 -6 -1 -6 17 -1 25 16 12 25
-7 4 -9 3 -5 -4z"/>
<path d="M3610 7989 c0 -5 5 -7 10 -4 6 3 10 8 10 11 0 2 -4 4 -10 4 -5 0 -10
-5 -10 -11z"/>
<path d="M8891 7883 c7 -12 15 -20 18 -17 3 2 -3 12 -13 22 -17 16 -18 16 -5
-5z"/>
<path d="M9135 7491 c-3 -5 -2 -12 3 -15 5 -3 9 1 9 9 0 17 -3 19 -12 6z"/>
<path d="M3235 7371 c-3 -5 -2 -12 3 -15 5 -3 9 1 9 9 0 17 -3 19 -12 6z"/>
<path d="M3165 7230 c-3 -6 1 -7 9 -4 18 7 21 14 7 14 -6 0 -13 -4 -16 -10z"/>
<path d="M3075 6990 c-3 -5 -1 -10 4 -10 6 0 11 5 11 10 0 6 -2 10 -4 10 -3 0
-8 -4 -11 -10z"/>
<path d="M3010 5599 c0 -5 5 -7 10 -4 6 3 10 8 10 11 0 2 -4 4 -10 4 -5 0 -10
-5 -10 -11z"/>
<path d="M2956 5552 c-2 -4 -1 -14 4 -22 7 -11 9 -9 7 8 -1 24 -3 26 -11 14z"/>
<path d="M3016 5549 c4 -8 -1 -9 -17 -5 -23 7 -23 6 -4 -6 12 -7 19 -21 17
-30 -2 -10 0 -18 5 -18 4 0 9 16 9 35 1 19 -3 35 -8 35 -5 0 -6 -5 -2 -11z"/>
<path d="M2985 5510 c3 -5 1 -10 -4 -10 -6 0 -11 -5 -11 -11 0 -8 5 -8 15 1
17 14 20 30 4 30 -5 0 -7 -4 -4 -10z"/>
<path d="M3535 5501 c-6 -11 13 -26 22 -17 4 3 1 6 -6 6 -7 0 -9 5 -6 10 3 6
4 10 1 10 -3 0 -7 -4 -11 -9z"/>
<path d="M3450 5489 c0 -5 5 -7 10 -4 6 3 10 8 10 11 0 2 -4 4 -10 4 -5 0 -10
-5 -10 -11z"/>
<path d="M3030 5480 c-9 -6 -10 -10 -3 -10 6 0 15 5 18 10 8 12 4 12 -15 0z"/>
<path d="M2990 5465 c0 -8 2 -15 4 -15 2 0 6 7 10 15 3 8 1 15 -4 15 -6 0 -10
-7 -10 -15z"/>
<path d="M3395 5471 c-3 -5 -2 -12 3 -15 5 -3 9 1 9 9 0 17 -3 19 -12 6z"/>
<path d="M3436 5466 c5 -13 4 -17 -4 -12 -8 5 -10 2 -5 -10 6 -15 7 -15 16 1
6 11 5 21 -3 28 -8 9 -9 7 -4 -7z"/>
<path d="M3016 5448 c3 -4 11 -5 19 -1 21 7 19 12 -4 10 -11 0 -18 -5 -15 -9z"/>
<path d="M3340 5439 c0 -5 -4 -8 -9 -4 -5 3 -12 1 -15 -4 -4 -5 2 -8 11 -7 15
3 33 26 19 26 -3 0 -6 -5 -6 -11z"/>
<path d="M2970 5432 c0 -4 9 -8 20 -9 11 -1 20 2 20 5 0 4 -9 8 -20 9 -11 1
-20 -2 -20 -5z"/>
<path d="M3380 5430 c0 -5 5 -10 10 -10 6 0 10 5 10 10 0 6 -4 10 -10 10 -5 0
-10 -4 -10 -10z"/>
<path d="M3015 5410 c-16 -18 -33 -61 -18 -47 2 3 13 -2 22 -11 12 -12 15 -21
8 -30 -16 -20 -4 -20 16 0 9 10 12 18 6 18 -5 0 -8 4 -4 9 3 5 0 13 -6 17 -8
4 -9 3 -5 -4 4 -7 3 -12 -1 -12 -5 0 -13 8 -20 19 -9 14 -8 21 6 33 10 9 24
18 32 21 11 4 10 6 -2 6 -9 1 -24 -8 -34 -19z"/>
<path d="M3813 5410 c-13 -15 -20 -17 -32 -8 -13 10 -14 10 -4 -2 7 -8 20 -15
29 -16 9 -1 13 0 10 3 -3 4 1 15 11 25 9 10 13 18 9 18 -3 0 -14 -9 -23 -20z"/>
<path d="M3297 5409 c7 -7 15 -10 18 -7 3 3 -2 9 -12 12 -14 6 -15 5 -6 -5z"/>
<path d="M3350 5410 c0 -6 5 -8 10 -5 6 3 10 -3 10 -14 0 -23 16 -36 25 -21 4
6 11 7 17 4 7 -4 8 -2 4 5 -4 6 -2 18 4 26 9 11 9 15 1 15 -6 0 -11 -5 -11
-11 0 -5 -5 -7 -12 -3 -7 4 -8 3 -4 -4 4 -7 4 -18 0 -24 -6 -9 -10 -5 -14 11
-6 25 -30 42 -30 21z"/>
<path d="M3275 5400 c6 -10 4 -12 -9 -7 -10 4 -15 3 -11 -3 8 -13 35 -13 35
-1 0 6 -5 13 -12 17 -7 5 -8 3 -3 -6z"/>
<path d="M3437 5404 c-4 -4 -7 -12 -7 -17 0 -6 3 -7 7 -4 3 4 11 2 18 -3 8 -7
12 -5 12 5 0 8 -4 12 -8 9 -4 -2 -9 1 -11 7 -2 5 -7 7 -11 3z"/>
<path d="M3030 5390 c-8 -5 -10 -10 -5 -10 6 0 17 5 25 10 8 5 11 10 5 10 -5
0 -17 -5 -25 -10z"/>
<path d="M3234 5353 c1 -17 6 -27 14 -25 6 1 12 -7 12 -17 0 -14 -6 -18 -22
-15 -21 4 -21 4 -3 -5 11 -5 24 -5 28 -1 13 12 3 45 -12 42 -10 -2 -12 5 -7
23 4 14 2 25 -2 25 -5 0 -9 -12 -8 -27z"/>
<path d="M3295 5371 c-3 -5 0 -13 6 -17 8 -5 9 -3 4 6 -6 10 -4 12 8 7 10 -3
17 -2 17 3 0 13 -27 13 -35 1z"/>
<path d="M3773 5366 c19 -15 24 -31 5 -20 -7 5 -8 3 -3 -6 5 -8 3 -11 -6 -8
-8 3 -13 11 -11 17 1 6 -2 11 -8 11 -13 0 -13 -17 0 -25 6 -4 5 -11 -3 -19 -6
-8 -16 -11 -21 -8 -5 3 -6 0 -2 -6 11 -18 46 -35 46 -22 0 5 -8 10 -17 10 -13
0 -9 8 17 29 29 25 32 31 21 45 -7 9 -19 16 -25 16 -6 0 -3 -7 7 -14z"/>
<path d="M3341 5365 c0 -5 3 -16 8 -23 7 -11 9 -10 14 3 4 9 3 14 -2 10 -5 -3
-12 1 -14 7 -3 7 -6 9 -6 3z"/>
<path d="M3265 5350 c3 -5 11 -10 16 -10 6 0 7 5 4 10 -3 6 -11 10 -16 10 -6
0 -7 -4 -4 -10z"/>
<path d="M3410 5349 c0 -5 5 -7 10 -4 6 3 10 8 10 11 0 2 -4 4 -10 4 -5 0 -10
-5 -10 -11z"/>
<path d="M3810 5351 c0 -6 4 -13 10 -16 6 -3 7 1 4 9 -7 18 -14 21 -14 7z"/>
<path d="M3200 5341 c0 -7 -4 -9 -10 -6 -6 4 -7 -1 -3 -11 6 -15 7 -15 15 1 6
9 7 19 4 22 -3 4 -6 1 -6 -6z"/>
<path d="M3716 5337 c3 -10 9 -15 12 -12 3 3 0 11 -7 18 -10 9 -11 8 -5 -6z"/>
<path d="M2995 5330 c3 -5 8 -10 11 -10 2 0 4 5 4 10 0 6 -5 10 -11 10 -5 0
-7 -4 -4 -10z"/>
<path d="M3786 5315 c-11 -8 -15 -15 -9 -15 6 0 16 7 23 15 16 19 11 19 -14 0z"/>
<path d="M3046 5311 c-3 -5 0 -11 7 -14 8 -3 14 1 14 9 0 16 -13 19 -21 5z"/>
<path d="M3160 5310 c-9 -6 -10 -10 -3 -10 6 0 15 5 18 10 8 12 4 12 -15 0z"/>
<path d="M2996 5293 c-6 -14 -5 -15 5 -6 7 7 10 15 7 18 -3 3 -9 -2 -12 -12z"/>
<path d="M3676 5293 c-6 -14 -5 -15 5 -6 7 7 10 15 7 18 -3 3 -9 -2 -12 -12z"/>
<path d="M3139 5283 c14 -12 20 -23 13 -27 -6 -3 -13 -1 -15 4 -3 6 -4 5 -3
-1 1 -7 12 -13 23 -14 15 -1 19 3 16 14 -5 13 -3 14 8 4 7 -7 18 -13 24 -13 5
0 2 5 -7 11 -10 5 -18 15 -18 20 0 6 4 8 9 4 5 -3 12 -1 15 4 4 5 -2 8 -11 7
-9 -2 -19 -8 -21 -14 -2 -8 -12 -7 -30 4 l-27 16 24 -19z"/>
<path d="M3013 5274 c-17 -14 -17 -15 2 -6 11 5 26 7 33 5 17 -6 15 4 -2 10
-8 3 -22 -1 -33 -9z"/>
<path d="M3062 5264 c-6 -7 -20 -11 -30 -8 -15 5 -14 4 2 -6 14 -10 21 -9 34
4 9 8 14 17 11 20 -2 2 -10 -2 -17 -10z"/>
<path d="M3685 5270 c-3 -6 1 -7 9 -4 18 7 21 14 7 14 -6 0 -13 -4 -16 -10z"/>
<path d="M3727 5269 c7 -7 15 -10 18 -7 3 3 -2 9 -12 12 -14 6 -15 5 -6 -5z"/>
<path d="M3071 5239 c-18 -15 -27 -17 -38 -8 -7 7 -16 9 -20 6 -3 -4 2 -9 11
-13 9 -3 13 -11 9 -17 -3 -6 4 -3 16 6 13 8 29 13 36 11 16 -6 31 15 19 26 -5
5 -20 0 -33 -11z m29 1 c0 -5 -5 -10 -11 -10 -5 0 -7 5 -4 10 3 6 8 10 11 10
2 0 4 -4 4 -10z"/>
<path d="M3708 5253 c6 -2 12 -9 12 -14 0 -6 -6 -7 -12 -3 -10 5 -10 4 -1 -6
7 -8 16 -11 19 -7 10 10 -4 37 -18 36 -10 0 -10 -2 0 -6z"/>
<path d="M3755 5249 c-4 -6 -5 -12 -2 -15 2 -3 7 2 10 11 7 17 1 20 -8 4z"/>
<path d="M3635 5241 c-3 -5 -2 -12 3 -15 5 -3 9 1 9 9 0 17 -3 19 -12 6z"/>
<path d="M3660 5246 c0 -2 7 -6 15 -10 8 -3 15 -1 15 4 0 6 -7 10 -15 10 -8 0
-15 -2 -15 -4z"/>
<path d="M3126 5227 c3 -10 9 -15 12 -12 3 3 0 11 -7 18 -10 9 -11 8 -5 -6z"/>
<path d="M3105 5210 c-4 -6 -10 -8 -15 -5 -4 3 -15 2 -24 -1 -12 -5 -13 -9 -3
-25 6 -10 16 -19 21 -19 4 0 3 7 -4 15 -7 9 -9 19 -5 23 4 4 10 1 12 -5 3 -7
10 -13 16 -13 5 0 7 3 4 7 -4 3 -2 12 4 20 6 7 9 13 6 13 -3 0 -9 -5 -12 -10z"/>
<path d="M3690 5213 c0 -6 8 -14 17 -17 12 -5 14 -9 5 -18 -15 -15 -42 -19
-42 -7 0 5 -5 9 -10 9 -6 0 -5 -8 2 -20 9 -14 14 -16 20 -7 6 9 8 9 8 0 0 -7
5 -13 10 -13 6 0 9 6 8 13 -2 6 3 11 10 10 6 -2 11 0 10 5 -1 4 3 18 10 32 11
22 11 23 -1 8 -13 -16 -15 -16 -30 0 -9 9 -17 11 -17 5z"/>
<path d="M3670 5201 c0 -10 19 -25 25 -20 1 2 -3 10 -11 17 -8 7 -14 8 -14 3z"/>
<path d="M3033 5175 c0 -8 3 -13 5 -10 3 3 11 -3 19 -13 13 -15 13 -15 3 5
-13 28 -27 37 -27 18z"/>
<path d="M9384 5171 c4 -6 2 -11 -4 -11 -7 0 -10 -6 -7 -14 3 -7 -4 -21 -14
-30 -11 -9 -17 -21 -14 -26 3 -6 1 -10 -5 -10 -6 0 -9 -4 -6 -9 3 -5 -1 -14
-9 -21 -13 -11 -12 -16 6 -41 11 -16 25 -27 30 -23 6 4 6 11 -1 19 -18 22 -21
55 -4 55 8 0 12 -4 9 -10 -3 -5 -2 -18 4 -27 8 -14 9 -11 6 15 -3 28 -1 33 13
28 15 -5 14 -4 -1 8 -14 11 -15 15 -5 20 7 3 2 3 -12 0 -25 -5 -24 -5 5 20 17
14 24 26 17 26 -7 0 -10 5 -7 11 4 6 13 8 21 5 22 -8 17 2 -7 15 -15 8 -19 8
-15 0z m-47 -136 c0 -8 -4 -12 -9 -9 -5 3 -6 10 -3 15 9 13 12 11 12 -6z"/>
<path d="M3616 5144 c-3 -9 1 -11 11 -7 11 4 14 2 9 -5 -5 -8 -1 -10 11 -6 16
5 16 4 -1 -10 -11 -9 -15 -16 -9 -16 7 0 15 5 18 10 4 6 10 8 14 6 4 -3 13 0
21 5 13 9 13 10 0 8 -20 -3 -51 11 -45 20 2 4 -2 8 -10 8 -8 0 -16 -6 -19 -13z"/>
<path d="M3610 5092 c0 -7 5 -12 11 -12 5 0 7 -5 3 -12 -4 -7 -3 -8 4 -4 19
11 14 -5 -5 -20 -16 -12 -16 -15 -3 -24 18 -12 21 -12 40 0 8 5 11 12 7 17 -5
4 -12 1 -16 -6 -5 -7 -13 -11 -19 -7 -7 4 -1 16 14 33 13 14 24 31 24 37 0 6
-6 3 -14 -6 -12 -16 -14 -16 -29 0 -11 10 -17 12 -17 4z"/>
<path d="M3675 5069 c-4 -6 -4 -13 -1 -16 3 -4 6 -1 6 6 0 7 5 9 12 5 7 -4 8
-3 4 4 -9 15 -13 15 -21 1z"/>
<path d="M4125 5069 c-4 -6 -5 -12 -2 -15 2 -3 7 2 10 11 7 17 1 20 -8 4z"/>
<path d="M4175 5070 c-3 -5 -1 -10 4 -10 6 0 11 5 11 10 0 6 -2 10 -4 10 -3 0
-8 -4 -11 -10z"/>
<path d="M3592 5054 c-7 -8 -8 -14 -3 -14 10 0 25 19 20 25 -2 1 -10 -3 -17
-11z"/>
<path d="M3940 5062 c0 -6 -8 -9 -17 -6 -15 5 -16 4 -3 -5 16 -11 40 3 27 16
-4 3 -7 1 -7 -5z"/>
<path d="M4093 5063 c4 -6 0 -13 -8 -17 -8 -3 -15 -1 -15 4 0 6 -5 10 -11 10
-8 0 -7 -6 2 -17 12 -15 12 -16 -6 -9 -13 5 -17 4 -10 -3 15 -15 30 -17 34 -6
2 6 11 15 19 21 12 9 12 13 2 19 -8 5 -11 4 -7 -2z"/>
<path d="M3795 5050 c-3 -5 -1 -10 4 -10 6 0 11 5 11 10 0 6 -2 10 -4 10 -3 0
-8 -4 -11 -10z"/>
<path d="M3878 5033 c2 -12 6 -23 7 -23 1 0 5 11 7 23 3 14 0 24 -7 24 -7 0
-10 -10 -7 -24z"/>
<path d="M3956 5045 c-9 -26 -7 -32 5 -12 6 10 9 21 6 23 -2 3 -7 -2 -11 -11z"/>
<path d="M3837 5043 c-10 -9 -9 -23 1 -23 5 0 9 7 9 15 0 17 -1 18 -10 8z"/>
<path d="M3972 5025 c-12 -14 -18 -25 -13 -25 5 0 15 10 23 22 l14 21 27 -23
c14 -13 24 -28 20 -33 -4 -6 -1 -7 6 -3 9 6 8 13 -6 29 -37 44 -42 45 -71 12z"/>
<path d="M4141 5041 c-15 -10 -7 -31 12 -31 7 0 6 4 -3 10 -13 9 -7 14 13 11
4 0 7 4 7 9 0 12 -10 13 -29 1z"/>
<path d="M4101 5013 c-10 -26 -10 -27 4 -9 8 11 15 23 15 28 0 15 -7 8 -19
-19z"/>
<path d="M4186 5024 c-11 -7 -18 -16 -15 -18 2 -2 13 2 23 10 11 7 18 16 15
18 -2 2 -13 -2 -23 -10z"/>
<path d="M3570 5008 c0 -6 6 -8 14 -5 14 6 54 -29 44 -38 -3 -3 -11 1 -18 10
-7 8 -16 15 -21 15 -4 0 3 -11 17 -25 25 -25 40 -33 29 -16 -3 5 -1 12 4 15 5
4 12 -2 14 -11 4 -15 5 -15 6 -2 0 9 -13 27 -30 40 -33 25 -59 33 -59 17z"/>
<path d="M3685 5010 c-6 -9 -4 -11 5 -5 10 6 12 4 7 -9 -4 -9 -3 -15 2 -11 5
3 11 0 13 -7 3 -7 7 -4 12 7 4 11 4 16 0 12 -4 -4 -12 1 -19 10 -9 13 -14 13
-20 3z"/>
<path d="M3744 5008 c2 -7 8 -14 14 -14 25 -3 27 -5 12 -14 -9 -6 -10 -10 -3
-10 18 0 27 21 12 30 -7 5 -16 7 -20 4 -4 -2 -10 1 -12 6 -3 6 -4 5 -3 -2z"/>
<path d="M3810 5016 c0 -11 27 -37 37 -35 21 4 34 -2 28 -12 -4 -6 2 -5 13 2
12 7 18 17 16 21 -3 4 -2 8 3 8 13 0 35 -17 34 -26 0 -5 18 -9 42 -9 34 0 42
4 44 20 2 15 1 16 -5 5 -7 -16 -25 -20 -38 -7 -4 4 0 7 9 7 19 0 23 15 5 26
-6 4 -8 3 -5 -3 4 -6 0 -14 -9 -17 -8 -3 -12 -10 -9 -16 3 -5 -3 -10 -15 -10
-12 0 -19 4 -15 9 3 6 -4 15 -16 22 -18 9 -25 9 -33 -3 -14 -19 -36 -12 -30
10 5 16 5 16 -8 0 -14 -16 -16 -16 -31 0 -9 9 -17 13 -17 8z"/>
<path d="M3655 5001 c-6 -11 13 -26 22 -17 4 3 1 6 -6 6 -7 0 -9 5 -6 10 3 6
4 10 1 10 -3 0 -7 -4 -11 -9z"/>
<path d="M4121 5005 c0 -5 3 -16 8 -23 7 -11 9 -10 14 3 4 9 3 14 -2 10 -5 -3
-12 1 -14 7 -3 7 -6 9 -6 3z"/>
<path d="M4157 4984 c-4 -4 -7 -11 -7 -15 0 -9 27 -5 37 6 4 4 3 5 -4 2 -6 -4
-13 -2 -15 4 -2 5 -7 7 -11 3z"/>
<path d="M9324 4983 c4 -7 3 -13 -2 -13 -18 0 -21 -29 -7 -57 8 -15 15 -21 15
-12 0 8 -5 20 -12 27 -9 10 -8 16 6 30 17 16 18 16 12 -5 -4 -12 -3 -24 2 -26
14 -9 8 41 -7 55 -10 10 -12 10 -7 1z"/>
<path d="M3726 4964 c-5 -14 -4 -15 9 -4 17 14 19 20 6 20 -5 0 -12 -7 -15
-16z"/>
<path d="M4053 4965 c-3 -9 -3 -18 -1 -21 3 -3 8 4 11 16 6 23 -1 27 -10 5z"/>
<path d="M3683 4963 c9 -2 15 -8 12 -13 -9 -15 35 -22 52 -8 14 11 15 10 10
-12 -4 -14 -4 -19 -1 -12 3 6 10 10 15 7 5 -4 6 1 3 9 -4 11 0 14 15 11 14 -3
18 0 14 12 -3 8 -9 11 -12 6 -3 -5 -13 -9 -21 -9 -8 0 -23 -4 -34 -9 -13 -6
-21 -3 -28 8 -5 10 -17 16 -26 16 -15 -1 -15 -2 1 -6z"/>
<path d="M3815 4946 c0 -13 3 -22 8 -19 4 2 7 13 7 24 0 10 -3 19 -7 19 -5 0
-8 -11 -8 -24z"/>
<path d="M3846 4953 c-6 -14 -5 -15 5 -6 7 7 10 15 7 18 -3 3 -9 -2 -12 -12z"/>
<path d="M3910 4961 c0 -5 7 -12 16 -15 14 -5 15 -4 4 9 -14 17 -20 19 -20 6z"/>
<path d="M9275 4960 c3 -5 8 -10 11 -10 2 0 4 5 4 10 0 6 -5 10 -11 10 -5 0
-7 -4 -4 -10z"/>
<path d="M3585 4944 c4 -11 8 -34 8 -51 0 -18 5 -33 9 -33 5 0 6 10 2 22 -6
20 -5 21 10 9 10 -9 16 -10 16 -2 0 6 -4 11 -10 11 -5 0 -10 4 -10 9 0 5 11 9
25 9 13 0 22 -4 20 -9 -3 -4 3 -13 14 -19 14 -7 22 -7 26 0 4 6 3 10 -2 9 -20
-3 -33 2 -30 14 1 8 -10 12 -30 11 -24 0 -32 4 -30 14 1 8 -4 17 -12 20 -11 3
-12 0 -6 -14z"/>
<path d="M4019 4943 c-13 -16 -12 -17 4 -4 9 7 17 15 17 17 0 8 -8 3 -21 -13z"/>
<path d="M3670 4945 c0 -5 5 -17 10 -25 5 -8 10 -10 10 -5 0 6 -5 17 -10 25
-5 8 -10 11 -10 5z"/>
<path d="M9267 4939 c7 -7 15 -10 18 -7 3 3 -2 9 -12 12 -14 6 -15 5 -6 -5z"/>
<path d="M4190 4926 c7 -7 13 -7 20 0 6 6 3 10 -10 10 -13 0 -16 -4 -10 -10z"/>
<path d="M3565 4910 c-3 -5 -1 -10 4 -10 6 0 11 5 11 10 0 6 -2 10 -4 10 -3 0
-8 -4 -11 -10z"/>
<path d="M3731 4904 c0 -11 3 -14 6 -6 3 7 2 16 -1 19 -3 4 -6 -2 -5 -13z"/>
<path d="M9280 4909 c20 -8 22 -12 10 -19 -8 -5 -10 -10 -4 -10 16 0 23 10 17
26 -3 8 -15 14 -27 13 -19 0 -19 -1 4 -10z"/>
<path d="M3641 4883 c-1 -17 16 -25 25 -12 4 7 3 9 -4 5 -5 -3 -13 0 -15 6 -4
9 -6 10 -6 1z"/>
<path d="M9263 4867 c0 -7 -2 -18 -4 -26 -2 -8 6 -17 20 -20 21 -6 22 -8 7
-20 -18 -15 -21 -31 -5 -31 5 0 8 4 5 9 -3 5 1 14 9 21 18 15 10 30 -15 30
-13 0 -18 5 -14 15 5 12 9 13 20 4 8 -7 17 -10 20 -7 2 3 -6 12 -19 21 -16 10
-24 11 -24 4z"/>
<path d="M9213 4813 c4 -3 1 -13 -6 -22 -11 -14 -10 -14 5 -2 16 12 16 31 1
31 -4 0 -3 -3 0 -7z"/>
<path d="M9232 4775 c4 -4 0 -14 -9 -20 -15 -11 -16 -15 -3 -31 12 -13 12 -18
3 -21 -7 -3 -13 -9 -13 -15 0 -6 6 -6 15 2 8 6 20 8 27 4 7 -4 5 2 -5 13 -9
11 -14 23 -11 26 4 4 13 -1 21 -11 13 -15 13 -15 3 6 -12 24 -2 30 18 10 7 -7
12 -9 12 -6 0 4 -15 17 -32 29 -18 12 -30 19 -26 14z m8 -30 c-7 -9 -15 -13
-19 -10 -3 3 1 10 9 15 21 14 24 12 10 -5z"/>
<path d="M9180 4723 c-5 -25 -5 -28 -13 -40 -8 -13 8 -27 22 -19 5 3 14 -1 21
-9 15 -18 30 -11 29 13 0 15 -1 15 -8 -1 -6 -17 -8 -17 -20 -4 -7 9 -20 13
-29 10 -12 -4 -10 2 8 22 14 16 20 25 13 22 -6 -4 -14 -1 -16 5 -4 10 -6 10
-7 1z"/>
<path d="M4337 4704 c-4 -4 -4 -11 -1 -15 7 -12 34 -11 34 1 0 5 -7 6 -17 3
-11 -4 -14 -3 -9 5 8 13 3 16 -7 6z"/>
<path d="M4389 4673 c-13 -16 -12 -17 4 -4 16 13 21 21 13 21 -2 0 -10 -8 -17
-17z"/>
<path d="M4318 4671 c11 -6 10 -9 -5 -13 -11 -3 -19 -15 -20 -29 0 -13 1 -18
4 -11 3 6 10 9 16 5 8 -4 7 -1 -1 9 -11 13 -9 17 15 23 21 5 24 8 12 16 -7 5
-18 9 -24 9 -5 0 -4 -4 3 -9z"/>
<path d="M7380 4669 c0 -3 11 -6 25 -6 14 0 25 3 25 6 0 4 -11 7 -25 7 -14 0
-25 -3 -25 -7z"/>
<path d="M7438 4655 c-9 -19 -14 -22 -25 -14 -14 12 -39 -3 -74 -45 -11 -13
-18 -15 -23 -7 -4 6 -12 11 -19 11 -6 0 -2 -7 9 -15 17 -13 21 -12 37 6 9 12
17 18 17 14 0 -4 9 3 19 16 11 13 22 21 26 17 4 -4 0 -14 -9 -23 -9 -9 -16
-22 -16 -28 0 -7 5 -4 11 6 6 9 15 14 21 11 7 -4 8 -2 4 4 -4 7 -3 12 3 12 6
0 17 14 26 30 9 17 13 30 10 30 -3 0 -11 -11 -17 -25z"/>
<path d="M4354 4646 c-3 -8 -1 -23 5 -33 9 -15 10 -13 5 11 -5 22 -4 27 6 21
9 -5 11 -4 6 3 -10 16 -15 15 -22 -2z"/>
<path d="M7330 4649 c0 -5 5 -7 10 -4 6 3 10 8 10 11 0 2 -4 4 -10 4 -5 0 -10
-5 -10 -11z"/>
<path d="M7356 4643 c-6 -14 -5 -15 5 -6 7 7 10 15 7 18 -3 3 -9 -2 -12 -12z"/>
<path d="M9144 4649 c-4 -7 -3 -9 3 -6 12 7 36 -16 27 -26 -3 -3 4 -10 15 -17
14 -7 21 -7 21 0 0 5 -7 10 -15 10 -9 0 -12 6 -8 16 4 11 9 12 16 5 6 -6 15
-11 21 -11 5 0 1 6 -9 14 -11 8 -23 12 -28 9 -4 -2 -14 0 -22 7 -10 8 -15 8
-21 -1z"/>
<path d="M7455 4640 c-3 -5 -3 -10 1 -10 4 0 -1 -7 -12 -16 -18 -14 -18 -15 4
-4 13 6 20 16 16 22 -5 8 -1 9 10 5 10 -4 15 -3 11 3 -8 13 -22 13 -30 0z"/>
<path d="M7507 4629 c7 -7 15 -10 18 -7 3 3 -2 9 -12 12 -14 6 -15 5 -6 -5z"/>
<path d="M7315 4621 c-3 -5 0 -13 6 -17 7 -4 9 -3 5 4 -3 5 0 13 6 15 9 4 10
6 1 6 -6 1 -14 -3 -18 -8z"/>
<path d="M4332 4608 c2 -7 -5 -12 -14 -12 -10 1 -14 -4 -11 -12 7 -19 16 -17
30 6 8 12 9 21 3 25 -6 4 -9 1 -8 -7z"/>
<path d="M7474 4605 c-4 -8 -11 -12 -18 -8 -6 3 -7 2 -3 -2 13 -15 36 -14 30
1 -4 10 0 12 13 7 12 -4 15 -3 10 5 -10 16 -26 15 -32 -3z"/>
<path d="M7546 4595 c-11 -8 -15 -15 -9 -15 6 0 16 7 23 15 16 19 11 19 -14 0z"/>
<path d="M9133 4577 c0 -17 -9 -37 -19 -44 -12 -8 -13 -13 -5 -13 8 0 19 -7
26 -17 9 -13 14 -13 20 -3 5 8 4 11 -2 7 -6 -4 -13 -1 -16 7 -8 20 3 57 15 50
5 -3 6 -15 3 -27 -5 -21 -5 -21 7 1 9 19 8 25 -8 38 -16 14 -17 15 -1 10 9 -3
17 -2 17 3 0 5 -8 11 -18 13 -14 4 -18 -2 -19 -25z"/>
<path d="M4347 4577 c-3 -8 1 -14 8 -14 7 0 11 6 8 14 -3 7 -6 13 -8 13 -2 0
-5 -6 -8 -13z"/>
<path d="M7273 4575 c0 -7 7 -11 15 -8 12 5 12 2 3 -15 -6 -11 -16 -22 -22
-24 -6 -2 2 -9 17 -16 21 -8 25 -9 12 0 -14 10 -14 14 -1 34 13 20 13 24 -5
33 -14 7 -19 7 -19 -4z"/>
<path d="M4275 4570 c-19 -8 -19 -9 3 -9 12 -1 22 4 22 9 0 6 -1 10 -2 9 -2 0
-12 -4 -23 -9z"/>
<path d="M7350 4570 c0 -5 5 -10 10 -10 6 0 10 5 10 10 0 6 -4 10 -10 10 -5 0
-10 -4 -10 -10z"/>
<path d="M7552 4568 c-15 -15 -15 -28 -1 -28 5 0 8 4 5 9 -4 5 0 11 6 14 7 2
10 7 7 10 -3 4 -11 1 -17 -5z"/>
<path d="M9180 4576 c0 -2 7 -7 16 -10 8 -3 12 -2 9 4 -6 10 -25 14 -25 6z"/>
<path d="M7580 4555 c0 -8 0 -18 0 -22 0 -5 10 -8 22 -8 15 0 24 7 25 20 2 15
1 16 -5 5 -4 -8 -14 -16 -24 -18 -12 -2 -15 3 -11 18 3 11 3 20 -1 20 -3 0 -6
-7 -6 -15z"/>
<path d="M4302 4540 c-7 -12 -8 -20 -2 -20 5 0 10 5 10 10 0 6 3 9 8 9 4 -1
14 -1 22 0 13 1 13 2 0 11 -21 13 -23 13 -38 -10z"/>
<path d="M7245 4549 c-4 -6 -4 -13 -1 -16 3 -4 6 -1 6 6 0 7 5 9 12 5 7 -4 8
-3 4 4 -9 15 -13 15 -21 1z"/>
<path d="M7326 4545 c4 -8 8 -15 10 -15 2 0 4 7 4 15 0 8 -4 15 -10 15 -5 0
-7 -7 -4 -15z"/>
<path d="M9100 4550 c-9 -6 -10 -10 -3 -10 6 0 15 5 18 10 8 12 4 12 -15 0z"/>
<path d="M4264 4534 c-18 -14 -18 -15 4 -4 12 6 22 13 22 15 0 8 -5 6 -26 -11z"/>
<path d="M5615 4530 c-7 -11 22 -26 32 -16 4 3 -1 6 -11 6 -9 0 -14 5 -11 10
3 6 4 10 1 10 -3 0 -8 -5 -11 -10z"/>
<path d="M5670 4536 c0 -2 7 -7 16 -10 8 -3 12 -2 9 4 -6 10 -25 14 -25 6z"/>
<path d="M7215 4530 c3 -5 8 -10 11 -10 2 0 4 5 4 10 0 6 -5 10 -11 10 -5 0
-7 -4 -4 -10z"/>
<path d="M7310 4531 c0 -6 4 -13 10 -16 6 -3 7 1 4 9 -7 18 -14 21 -14 7z"/>
<path d="M7658 4526 c-9 -8 -18 -13 -22 -11 -3 3 -4 2 -1 -2 3 -3 -1 -13 -8
-22 -10 -14 -10 -14 4 -4 9 7 20 9 24 5 5 -4 5 -2 2 4 -4 7 1 18 10 25 14 12
15 11 9 -11 -6 -22 -5 -23 5 -7 15 26 -3 44 -23 23z"/>
<path d="M9175 4529 c-4 -6 -5 -12 -2 -15 2 -3 7 2 10 11 7 17 1 20 -8 4z"/>
<path d="M4350 4521 c0 -7 -4 -9 -10 -6 -6 4 -7 -1 -3 -12 6 -16 5 -16 -10 -4
-10 8 -20 11 -24 7 -3 -3 -1 -6 6 -6 7 0 10 -4 7 -9 -4 -5 1 -8 10 -7 18 3 39
34 30 43 -3 4 -6 1 -6 -6z"/>
<path d="M4273 4505 c0 -8 4 -12 9 -9 5 3 6 10 3 15 -9 13 -12 11 -12 -6z"/>
<path d="M7194 4491 c0 -17 3 -28 7 -25 4 2 9 1 12 -3 2 -5 3 -3 2 2 -2 10 20
36 30 35 26 -1 29 1 15 10 -10 6 -22 3 -39 -13 l-23 -22 6 23 c4 12 3 22 -2
22 -4 0 -8 -13 -8 -29z"/>
<path d="M9071 4511 c-8 -5 -16 -23 -17 -40 -1 -17 2 -29 7 -25 5 3 7 16 5 30
-3 16 0 24 10 24 8 0 14 5 14 10 0 12 -1 12 -19 1z"/>
<path d="M5679 4508 c-6 -22 -5 -39 3 -45 6 -3 8 -1 4 5 -3 5 0 13 6 15 10 4
10 6 0 6 -7 1 -10 6 -7 11 3 6 4 10 1 10 -3 0 -6 -1 -7 -2z"/>
<path d="M7595 4500 c-3 -5 -1 -10 4 -10 6 0 11 5 11 10 0 6 -2 10 -4 10 -3 0
-8 -4 -11 -10z"/>
<path d="M7716 4497 c3 -10 9 -15 12 -12 3 3 0 11 -7 18 -10 9 -11 8 -5 -6z"/>
<path d="M9097 4492 c-10 -10 -17 -22 -17 -27 0 -4 9 2 20 15 11 13 20 25 20
27 0 7 -8 2 -23 -15z"/>
<path d="M5565 4490 c-5 -8 -4 -11 2 -7 6 4 13 0 16 -7 3 -8 1 -17 -6 -19 -7
-2 -9 -7 -6 -11 3 -4 11 0 17 7 9 10 8 18 -2 32 -10 14 -15 15 -21 5z"/>
<path d="M5614 4485 c-4 -8 -3 -23 2 -32 4 -10 7 -21 6 -24 0 -3 5 -6 13 -6 8
0 12 4 10 8 -3 4 2 10 11 13 13 5 14 9 4 21 -6 8 -8 20 -4 27 5 10 4 10 -6 1
-10 -10 -11 -15 -1 -27 10 -12 9 -15 -9 -13 -17 1 -20 6 -15 24 6 26 -2 32
-11 8z"/>
<path d="M5736 4488 c3 -5 10 -6 15 -3 13 9 11 12 -6 12 -8 0 -12 -4 -9 -9z"/>
<path d="M7275 4489 c-4 -6 -5 -12 -2 -15 2 -3 7 2 10 11 7 17 1 20 -8 4z"/>
<path d="M7694 4492 c7 -12 -5 -16 -31 -13 -7 1 -13 -3 -13 -8 0 -11 39 -6 53
8 5 5 4 12 -4 16 -8 5 -10 4 -5 -3z"/>
<path d="M4290 4482 c0 -7 -4 -10 -10 -7 -6 3 -7 -1 -3 -10 4 -12 8 -13 13 -5
5 9 9 9 14 1 9 -14 26 -14 26 0 0 5 -4 8 -9 4 -6 -3 -14 3 -20 12 -6 11 -11
13 -11 5z"/>
<path d="M7151 4483 c-1 -16 -32 -53 -44 -53 -4 0 -5 5 -1 12 5 7 3 8 -6 3
-10 -6 -7 -12 11 -26 13 -10 29 -19 34 -18 6 0 2 5 -7 13 -16 12 -16 14 4 33
11 12 18 27 15 34 -4 10 -6 10 -6 2z"/>
<path d="M9020 4475 c0 -8 4 -15 10 -15 5 0 7 7 4 15 -4 8 -8 15 -10 15 -2 0
-4 -7 -4 -15z"/>
<path d="M9125 4481 c3 -5 -3 -11 -12 -13 -15 -3 -14 -5 5 -10 12 -3 20 -2 17
2 -3 5 0 10 7 12 7 3 5 7 -6 11 -9 4 -15 3 -11 -2z"/>
<path d="M5546 4467 c3 -10 9 -15 12 -12 3 3 0 11 -7 18 -10 9 -11 8 -5 -6z"/>
<path d="M5720 4470 c8 -5 20 -10 25 -10 6 0 3 5 -5 10 -8 5 -19 10 -25 10 -5
0 -3 -5 5 -10z"/>
<path d="M7745 4470 c3 -5 1 -10 -4 -10 -6 0 -11 -5 -11 -10 0 -6 8 -5 19 2
19 12 19 28 0 28 -6 0 -7 -4 -4 -10z"/>
<path d="M7795 4470 c3 -5 8 -10 11 -10 2 0 4 5 4 10 0 6 -5 10 -11 10 -5 0
-7 -4 -4 -10z"/>
<path d="M8996 4472 c-2 -4 -1 -14 4 -22 7 -11 9 -9 7 8 -1 24 -3 26 -11 14z"/>
<path d="M7710 4461 c0 -7 -5 -9 -12 -5 -7 5 -8 3 -3 -5 5 -9 10 -10 18 -2 6
6 8 14 4 18 -4 3 -7 1 -7 -6z"/>
<path d="M7833 4455 c0 -8 4 -12 9 -9 5 3 6 10 3 15 -9 13 -12 11 -12 -6z"/>
<path d="M4255 4450 c3 -5 8 -10 11 -10 2 0 4 5 4 10 0 6 -5 10 -11 10 -5 0
-7 -4 -4 -10z"/>
<path d="M5497 4446 c-4 -10 7 -23 29 -36 19 -12 32 -26 28 -31 -3 -5 0 -9 6
-9 19 0 5 24 -27 45 -16 11 -28 26 -25 33 5 17 -5 15 -11 -2z"/>
<path d="M7160 4444 c-11 -12 -11 -17 0 -27 10 -9 11 -9 6 1 -4 6 -4 17 0 24
5 8 10 6 15 -8 6 -16 8 -16 8 -2 1 24 -14 31 -29 12z"/>
<path d="M7773 4445 c-2 -8 -3 -20 0 -27 3 -7 6 -3 6 9 1 16 6 20 21 16 11 -3
20 -3 20 0 0 12 -42 14 -47 2z"/>
<path d="M8960 4448 c-12 -8 -11 -9 4 -4 13 5 17 2 13 -8 -3 -8 0 -17 7 -19
10 -4 12 1 9 14 -7 25 -16 30 -33 17z"/>
<path d="M5747 4437 c-3 -8 3 -14 16 -15 12 0 17 2 12 6 -6 4 -13 11 -16 15
-4 4 -9 2 -12 -6z"/>
<path d="M4280 4430 c-8 -5 -10 -10 -5 -10 6 0 17 5 25 10 8 5 11 10 5 10 -5
0 -17 -5 -25 -10z"/>
<path d="M4330 4435 c0 -7 30 -13 34 -7 3 4 -4 9 -15 9 -10 1 -19 0 -19 -2z"/>
<path d="M5454 4420 c0 -13 4 -16 10 -10 7 7 7 13 0 20 -6 6 -10 3 -10 -10z"/>
<path d="M5545 4428 c11 -6 25 -19 32 -27 8 -10 12 -11 13 -4 0 13 -38 43 -55
43 -5 0 -1 -6 10 -12z"/>
<path d="M5590 4433 c0 -5 5 -15 10 -23 7 -12 9 -10 7 8 -1 19 -17 33 -17 15z"/>
<path d="M5665 4430 c-3 -6 1 -7 9 -4 18 7 21 14 7 14 -6 0 -13 -4 -16 -10z"/>
<path d="M7063 4429 c9 -6 15 -14 12 -20 -4 -5 -1 -9 4 -9 6 0 11 4 11 8 0 12
-22 32 -34 32 -6 0 -3 -5 7 -11z"/>
<path d="M7868 4424 c13 -9 19 -21 16 -32 -5 -15 -4 -15 5 -2 7 8 16 24 22 35
10 20 10 20 -5 1 -14 -17 -20 -16 -18 4 0 3 -9 7 -20 7 l-21 2 21 -15z"/>
<path d="M8897 4429 c7 -7 15 -10 18 -7 3 3 -2 9 -12 12 -14 6 -15 5 -6 -5z"/>
<path d="M9019 4438 c-6 -21 -5 -37 2 -32 5 3 7 9 4 14 -3 4 1 11 7 13 10 4
10 6 1 6 -7 1 -13 0 -14 -1z"/>
<path d="M7795 4419 c-4 -6 -5 -12 -2 -15 2 -3 7 2 10 11 7 17 1 20 -8 4z"/>
<path d="M7931 4423 c-1 -6 3 -14 9 -18 5 -3 7 -12 4 -20 -4 -8 -10 -12 -15
-9 -5 3 -7 10 -4 15 4 5 1 9 -4 9 -16 0 -13 -27 4 -34 9 -3 19 3 25 14 6 11 8
20 4 20 -3 0 0 8 7 18 13 15 12 16 -3 4 -13 -10 -17 -10 -21 0 -4 9 -6 9 -6 1z"/>
<path d="M4299 4413 c-1 -4 -1 -12 0 -17 1 -4 -4 -14 -10 -22 -10 -12 -9 -13
5 -8 11 4 16 14 13 25 -4 13 0 19 13 19 12 0 17 -6 13 -18 -6 -25 28 -54 47
-41 13 9 12 10 -2 6 -23 -8 -30 3 -12 20 8 9 12 18 9 21 -3 3 -12 -3 -20 -14
-15 -18 -16 -18 -13 6 2 19 -2 26 -19 28 -13 2 -24 0 -24 -5z"/>
<path d="M5480 4410 c0 -5 0 -13 0 -17 0 -5 9 -9 20 -9 11 -1 20 3 20 8 0 5
-9 7 -20 3 -15 -5 -18 -3 -14 9 3 9 3 16 0 16 -3 0 -6 -4 -6 -10z"/>
<path d="M7813 4406 c-4 -5 -1 -6 7 -1 9 6 12 4 8 -7 -4 -8 -1 -15 7 -15 7 0
11 6 8 14 -4 9 0 11 13 6 11 -4 15 -3 10 5 -8 13 -45 12 -53 -2z"/>
<path d="M8873 4395 c0 -13 7 -31 17 -40 14 -13 17 -13 17 0 0 8 -4 12 -9 9
-8 -5 -11 5 -11 39 0 9 -3 17 -7 17 -4 0 -7 -11 -7 -25z"/>
<path d="M5839 4408 c-4 -10 -4 -77 0 -72 6 5 10 74 4 74 -2 0 -3 -1 -4 -2z"/>
<path d="M7037 4399 c7 -7 15 -10 18 -7 3 3 -2 9 -12 12 -14 6 -15 5 -6 -5z"/>
<path d="M7973 4403 c4 -6 0 -19 -8 -29 -8 -10 -14 -23 -14 -29 0 -5 4 -2 10
8 9 15 13 16 25 6 8 -7 30 -13 50 -14 19 -2 42 -9 52 -16 9 -7 14 -10 10 -5
-4 5 -3 17 3 27 7 15 6 21 -6 25 -8 3 -12 11 -8 17 4 6 1 7 -7 2 -10 -6 -10
-10 3 -20 18 -13 8 -38 -12 -26 -7 5 -12 12 -12 17 1 5 -8 10 -19 10 -11 1
-17 -2 -15 -7 3 -4 1 -10 -5 -14 -10 -6 -14 7 -10 35 1 11 -3 9 -15 -5 -13
-16 -16 -17 -11 -3 3 10 0 20 -6 24 -6 4 -8 3 -5 -3z m82 -43 c-3 -5 -11 -10
-16 -10 -6 0 -7 5 -4 10 3 6 11 10 16 10 6 0 7 -4 4 -10z"/>
<path d="M8839 4396 c8 -10 9 -16 1 -19 -6 -3 -5 -4 2 -3 19 4 20 23 2 30 -14
5 -15 4 -5 -8z"/>
<path d="M8915 4400 c3 -5 8 -10 11 -10 2 0 4 5 4 10 0 6 -5 10 -11 10 -5 0
-7 -4 -4 -10z"/>
<path d="M8943 4395 c0 -7 6 -12 13 -12 7 0 11 4 8 8 -2 4 2 9 8 12 7 3 4 5
-8 4 -11 -1 -21 -6 -21 -12z"/>
<path d="M5436 4387 c3 -10 9 -15 12 -12 3 3 0 11 -7 18 -10 9 -11 8 -5 -6z"/>
<path d="M6994 4393 c3 -4 1 -12 -6 -20 -8 -11 -7 -12 6 -7 9 3 16 10 16 16 0
5 6 6 13 2 6 -4 8 -3 4 1 -4 5 -15 10 -23 11 -9 1 -13 0 -10 -3z"/>
<path d="M7090 4390 c-8 -5 -10 -10 -5 -10 6 0 17 5 25 10 8 5 11 10 5 10 -5
0 -17 -5 -25 -10z"/>
<path d="M5414 4382 c3 -5 0 -13 -6 -15 -9 -4 -10 -6 -1 -6 17 -1 25 16 12 25
-7 4 -9 3 -5 -4z"/>
<path d="M5526 4373 c-6 -14 -5 -15 5 -6 7 7 10 15 7 18 -3 3 -9 -2 -12 -12z"/>
<path d="M5460 4370 c0 -5 5 -10 11 -10 5 0 7 5 4 10 -3 6 -8 10 -11 10 -2 0
-4 -4 -4 -10z"/>
<path d="M5587 4369 c7 -7 15 -10 18 -7 3 3 -2 9 -12 12 -14 6 -15 5 -6 -5z"/>
<path d="M7055 4370 c3 -5 14 -10 23 -10 15 0 15 2 2 10 -20 13 -33 13 -25 0z"/>
<path d="M8191 4375 c1 -19 18 -51 18 -35 0 8 -4 22 -9 30 -5 8 -9 11 -9 5z"/>
<path d="M8744 4366 c11 -9 24 -16 30 -16 12 0 7 5 -24 19 -24 11 -24 11 -6
-3z"/>
<path d="M5495 4361 c3 -5 -4 -12 -15 -16 -11 -3 -20 -11 -20 -16 0 -5 11 -2
25 7 26 17 33 34 14 34 -5 0 -8 -4 -4 -9z"/>
<path d="M7023 4363 c-17 -6 -16 -20 1 -26 11 -4 13 -1 9 11 -6 15 -5 15 10 3
10 -8 19 -12 22 -10 7 8 -29 26 -42 22z"/>
<path d="M8126 4353 c2 -7 -1 -13 -6 -13 -6 0 -10 -4 -10 -10 0 -17 14 -11 28
11 8 12 9 18 4 15 -6 -3 -12 -3 -15 1 -2 5 -2 2 -1 -4z"/>
<path d="M8613 4350 c-1 -11 2 -22 8 -25 5 -4 8 3 6 14 -4 28 -12 34 -14 11z"/>
<path d="M8650 4360 c-9 -6 -10 -10 -3 -10 6 0 15 5 18 10 8 12 4 12 -15 0z"/>
<path d="M8793 4355 c0 -8 4 -15 9 -15 4 0 8 4 8 9 0 6 -4 12 -8 15 -5 3 -9
-1 -9 -9z"/>
<path d="M4313 4345 c0 -8 4 -12 9 -9 4 3 8 9 8 15 0 5 -4 9 -8 9 -5 0 -9 -7
-9 -15z"/>
<path d="M5329 4347 c6 -8 7 -18 3 -22 -4 -5 -1 -5 6 -1 10 6 10 11 1 22 -6 8
-14 14 -16 14 -3 0 0 -6 6 -13z"/>
<path d="M5380 4350 c0 -6 7 -10 15 -10 8 0 15 2 15 4 0 2 -7 6 -15 10 -8 3
-15 1 -15 -4z"/>
<path d="M5422 4340 c-7 -11 -10 -20 -6 -20 7 0 34 27 34 34 0 13 -16 5 -28
-14z"/>
<path d="M5895 4350 c-3 -5 -1 -10 4 -10 6 0 11 5 11 10 0 6 -2 10 -4 10 -3 0
-8 -4 -11 -10z"/>
<path d="M6950 4350 c0 -5 5 -10 10 -10 6 0 10 5 10 10 0 6 -4 10 -10 10 -5 0
-10 -4 -10 -10z"/>
<path d="M8270 4350 c0 -5 11 -17 24 -26 16 -10 23 -22 19 -32 -4 -15 -3 -15
6 -2 15 22 14 25 -15 38 -14 7 -22 17 -19 22 3 6 1 10 -4 10 -6 0 -11 -4 -11
-10z"/>
<path d="M8335 4350 c-8 -13 4 -32 16 -25 15 10 10 -12 -6 -25 -8 -7 -15 -17
-15 -23 0 -5 9 2 21 17 20 25 18 53 -3 40 -7 -5 -9 -1 -5 9 7 19 2 23 -8 7z"/>
<path d="M8380 4350 c-9 -6 -10 -10 -3 -10 6 0 15 5 18 10 8 12 4 12 -15 0z"/>
<path d="M8410 4350 c0 -5 5 -10 11 -10 5 0 7 5 4 10 -3 6 -8 10 -11 10 -2 0
-4 -4 -4 -10z"/>
<path d="M8455 4350 c-3 -5 -3 -10 2 -11 4 -1 -3 -5 -17 -10 l-25 -8 24 2 c14
1 25 9 27 20 3 19 -2 22 -11 7z"/>
<path d="M8725 4344 c17 -8 35 -16 40 -17 6 -1 14 -6 18 -12 5 -6 7 -4 5 4 -2
8 -12 15 -22 17 -10 1 -23 7 -29 13 -6 6 -18 11 -26 11 -9 0 -2 -7 14 -16z"/>
<path d="M8850 4356 c0 -2 7 -7 16 -10 8 -3 12 -2 9 4 -6 10 -25 14 -25 6z"/>
<path d="M5515 4339 c-4 -6 -5 -12 -2 -15 2 -3 7 2 10 11 7 17 1 20 -8 4z"/>
<path d="M8234 4335 c11 -8 24 -15 29 -15 4 0 6 -4 3 -8 -2 -4 4 -9 15 -9 19
-2 19 -1 -3 16 -13 10 -32 21 -43 24 -20 7 -20 7 -1 -8z"/>
<path d="M8482 4345 c4 -4 3 -14 -4 -22 -6 -7 -9 -15 -7 -18 3 -2 10 4 17 15
9 15 9 21 -1 26 -6 4 -9 4 -5 -1z"/>
<path d="M4334 4326 c-3 -9 -10 -14 -14 -11 -5 3 -11 1 -14 -4 -8 -13 22 -7
36 7 6 6 9 15 5 18 -4 4 -9 -1 -13 -10z"/>
<path d="M4388 4333 c7 -3 16 -2 19 1 4 3 -2 6 -13 5 -11 0 -14 -3 -6 -6z"/>
<path d="M5357 4327 c-3 -7 4 -24 14 -38 10 -13 19 -19 19 -13 0 6 -6 17 -14
24 -8 6 -12 18 -9 26 3 8 3 14 0 14 -3 0 -7 -6 -10 -13z"/>
<path d="M5535 4329 c-4 -6 -5 -12 -2 -15 2 -3 7 2 10 11 7 17 1 20 -8 4z"/>
<path d="M5856 4332 c-2 -4 -1 -14 3 -21 6 -9 11 -10 15 -2 4 6 2 11 -4 11 -6
0 -8 5 -5 10 3 6 4 10 1 10 -3 0 -7 -4 -10 -8z"/>
<path d="M6907 4319 c4 -13 8 -18 11 -10 2 7 -1 18 -6 23 -8 8 -9 4 -5 -13z"/>
<path d="M6933 4315 c0 -14 3 -27 7 -30 4 -3 8 7 8 20 0 14 -4 27 -8 30 -4 3
-7 -7 -7 -20z"/>
<path d="M8155 4331 c3 -2 -3 -9 -12 -16 -13 -9 -13 -14 -3 -20 9 -5 11 -4 6
3 -4 7 -3 12 1 12 5 0 18 6 29 14 18 14 18 15 -3 13 -12 -1 -20 -3 -18 -6z"/>
<path d="M8502 4320 c-7 -12 -8 -20 -2 -20 5 0 10 5 10 11 0 5 5 7 12 3 8 -5
6 -11 -7 -20 -16 -12 -16 -13 3 -11 11 0 20 5 19 10 -1 5 4 12 11 14 8 3 10
-2 6 -14 -5 -14 -4 -15 4 -3 13 17 5 33 -14 26 -7 -3 -17 1 -21 9 -7 12 -11
11 -21 -5z"/>
<path d="M8570 4330 c0 -5 5 -10 11 -10 5 0 7 -4 4 -10 -3 -5 -2 -10 4 -10 19
0 19 16 0 28 -11 7 -19 8 -19 2z"/>
<path d="M8633 4314 c-12 -13 -18 -24 -13 -24 5 0 11 4 14 9 3 4 17 7 31 6 14
-2 27 1 30 5 3 5 -7 7 -21 4 -24 -4 -26 -3 -14 11 20 24 -3 15 -27 -11z"/>
<path d="M8815 4331 c-3 -5 -2 -12 3 -15 5 -3 9 1 9 9 0 17 -3 19 -12 6z"/>
<path d="M4362 4310 c0 -14 2 -19 5 -12 2 6 2 18 0 25 -3 6 -5 1 -5 -13z"/>
<path d="M5432 4314 c-7 -8 -8 -14 -3 -14 10 0 25 19 20 25 -2 1 -10 -3 -17
-11z"/>
<path d="M6875 4313 c-5 -10 -8 -21 -7 -25 1 -4 -7 -12 -18 -18 -12 -6 -20 -7
-20 -1 0 5 6 11 13 14 8 3 6 10 -7 23 -12 11 -15 12 -8 3 10 -13 9 -19 -1 -28
-8 -6 -17 -8 -20 -4 -4 3 -7 2 -7 -3 0 -10 -51 -11 -68 0 -6 3 -13 3 -15 -1
-3 -5 -91 -8 -196 -8 -134 1 -192 -3 -195 -11 -2 -6 -3 -25 -2 -42 2 -23 -3
-33 -21 -41 -18 -8 -24 -7 -32 8 -6 10 -7 22 -3 26 4 5 1 5 -6 1 -9 -6 -10
-12 0 -29 7 -12 11 -28 10 -35 -2 -7 6 -4 18 8 11 11 26 17 32 14 9 -6 9 -9 0
-12 -10 -3 -10 -7 0 -20 11 -13 11 -14 -2 -7 -12 7 -13 6 -4 -6 12 -17 12
-458 -1 -479 -5 -9 -4 -15 3 -18 9 -3 9 -9 1 -24 -8 -15 -8 -22 1 -28 8 -5 7
-12 -5 -24 -15 -15 -15 -16 0 -16 9 0 13 -5 10 -10 -4 -6 -11 -8 -16 -5 -5 3
-6 -1 -3 -9 3 -9 10 -16 16 -16 5 0 7 -4 3 -10 -3 -5 -13 -7 -23 -4 -12 4 -11
2 3 -8 21 -13 24 -37 9 -72 -6 -15 -4 -17 6 -11 10 6 11 4 4 -6 -12 -20 -14
-38 -3 -45 6 -3 5 -12 -3 -22 -11 -13 -11 -16 1 -20 10 -3 7 -9 -10 -19 -13
-8 -16 -12 -7 -9 20 6 35 -10 16 -17 -10 -3 -10 -7 -1 -18 10 -12 9 -21 -3
-44 -16 -31 -10 -69 9 -59 8 5 8 2 0 -7 -15 -16 -17 -33 -3 -24 6 3 10 1 10
-6 0 -7 4 -8 13 -2 6 5 53 8 102 8 78 -1 90 -3 89 -18 -2 -23 3 -21 17 4 9 17
8 20 -3 14 -10 -6 -10 -5 -1 5 10 11 16 9 33 -11 l21 -24 -17 32 c-10 18 -20
30 -24 28 -3 -2 -6 38 -5 89 0 67 4 98 15 112 14 17 13 18 -1 7 -13 -10 -16
-10 -16 2 0 8 4 15 9 15 4 0 8 5 8 11 0 5 -6 7 -12 3 -9 -5 -9 -2 1 9 11 14
11 17 0 17 -11 0 -11 2 1 10 8 5 10 10 3 10 -13 0 -14 161 -1 171 14 9 173 -1
176 -11 2 -6 11 -10 20 -9 11 0 12 2 5 6 -23 9 -13 20 13 15 14 -2 30 -14 35
-26 5 -11 18 -36 29 -54 11 -18 18 -38 15 -43 -4 -5 -2 -9 4 -9 15 0 43 -58
35 -72 -4 -6 -3 -8 3 -5 9 6 133 -189 133 -208 0 -3 10 -20 21 -38 l22 -32
126 0 c105 0 126 2 126 15 0 8 -26 58 -58 110 -32 52 -96 157 -142 233 -47 76
-85 142 -85 147 0 5 21 19 47 32 26 13 73 49 105 81 32 31 58 53 58 48 0 -6
-4 -13 -10 -16 -5 -3 -10 -11 -10 -18 0 -6 7 -2 15 10 8 12 12 28 9 36 -3 9
-1 24 5 35 9 16 24 98 24 127 0 31 -16 93 -32 129 -20 44 -82 116 -100 116 -6
0 -11 4 -11 9 0 15 -140 69 -192 73 -15 1 -25 5 -23 8 2 3 -5 11 -16 18 -10 7
-19 8 -19 3 0 -5 6 -11 12 -13 7 -3 3 -7 -10 -10 -22 -6 -26 11 -8 40 4 7 6
15 3 18 -2 3 -8 -3 -12 -13z m70 -235 c33 -5 81 -39 99 -69 24 -41 23 -110 -2
-151 -48 -77 -92 -91 -284 -93 -82 0 -148 3 -148 7 0 4 -11 3 -25 -2 -14 -5
-26 -8 -26 -7 -4 5 -6 312 -3 318 3 5 351 3 389 -3z m-620 -917 c3 -5 1 -12
-5 -16 -5 -3 -10 1 -10 9 0 18 6 21 15 7z"/>
<path d="M6967 4316 c-3 -8 0 -16 6 -19 7 -3 13 3 13 14 0 22 -12 25 -19 5z"/>
<path d="M8053 4315 c0 -7 6 -11 14 -8 7 3 13 6 13 8 0 2 -6 5 -13 8 -8 3 -14
-1 -14 -8z"/>
<path d="M8715 4320 c-3 -5 -1 -10 4 -10 6 0 11 5 11 10 0 6 -2 10 -4 10 -3 0
-8 -4 -11 -10z"/>
<path d="M4387 4303 c3 -7 13 -13 22 -12 10 0 11 2 3 6 -6 2 -10 8 -8 12 3 4
-1 8 -8 8 -8 0 -12 -6 -9 -14z"/>
<path d="M5297 4302 c5 -11 3 -13 -7 -7 -9 6 -11 4 -5 -5 6 -10 11 -10 20 3 7
9 14 16 16 14 2 -1 3 0 1 2 -1 3 -9 6 -17 7 -9 1 -11 -4 -8 -14z"/>
<path d="M5385 4310 c3 -5 11 -10 16 -10 6 0 7 5 4 10 -3 6 -11 10 -16 10 -6
0 -7 -4 -4 -10z"/>
<path d="M5475 4310 c-3 -5 -2 -10 4 -10 5 0 13 5 16 10 3 6 2 10 -4 10 -5 0
-13 -4 -16 -10z"/>
<path d="M8210 4310 c0 -5 5 -10 10 -10 6 0 10 5 10 10 0 6 -4 10 -10 10 -5 0
-10 -4 -10 -10z"/>
<path d="M8397 4313 c-4 -3 -7 -11 -7 -17 0 -6 5 -5 12 2 6 6 9 14 7 17 -3 3
-9 2 -12 -2z"/>
<path d="M5896 4301 c-3 -4 6 -6 19 -3 14 2 25 6 25 8 0 8 -39 4 -44 -5z"/>
<path d="M4335 4290 c-3 -5 -1 -10 4 -10 6 0 11 5 11 10 0 6 -2 10 -4 10 -3 0
-8 -4 -11 -10z"/>
<path d="M5255 4290 c-3 -6 1 -13 9 -16 9 -3 16 -10 16 -16 0 -5 -4 -6 -10 -3
-5 3 -10 1 -10 -4 0 -15 17 -14 26 1 4 6 0 16 -9 23 -9 7 -14 15 -10 18 3 4 4
7 0 7 -3 0 -9 -5 -12 -10z"/>
<path d="M5335 4289 c-4 -6 -4 -13 -1 -16 3 -4 6 -1 6 6 0 7 5 9 12 5 7 -4 8
-3 4 4 -9 15 -13 15 -21 1z"/>
<path d="M5943 4285 c-3 -9 -3 -19 1 -22 3 -4 6 1 6 11 0 9 5 14 10 11 6 -3
10 -1 10 4 0 17 -20 13 -27 -4z"/>
<path d="M8416 4292 c-2 -4 0 -14 6 -22 8 -12 9 -11 4 4 -5 15 -2 17 20 12 17
-5 23 -3 19 4 -7 12 -42 14 -49 2z"/>
<path d="M5406 4274 c-4 -9 -4 -19 -1 -22 3 -3 5 0 5 7 0 7 4 9 10 6 6 -3 7 1
4 9 -8 20 -10 20 -18 0z"/>
<path d="M5910 4280 c-9 -6 -10 -10 -3 -10 6 0 15 5 18 10 8 12 4 12 -15 0z"/>
<path d="M6002 4282 c-13 -4 -23 -11 -22 -17 1 -5 -7 -13 -17 -17 -16 -7 -16
-8 2 -5 11 2 19 9 18 15 -2 7 6 12 17 12 11 0 19 -5 18 -12 -4 -14 31 -23 43
-11 4 4 3 15 -2 23 -9 13 -10 12 -5 -2 4 -13 0 -18 -14 -18 -13 0 -18 6 -15
20 2 11 3 20 2 19 -1 -1 -12 -4 -25 -7z"/>
<path d="M3365 4271 c-3 -2 -21 -5 -42 -6 -21 -2 -59 -12 -85 -23 -25 -11 -49
-18 -52 -15 -3 4 -6 1 -6 -5 0 -6 -9 -14 -20 -17 -33 -10 -105 -88 -129 -138
-28 -58 -35 -171 -14 -239 18 -60 100 -148 170 -181 68 -32 148 -51 263 -62
30 -3 72 -8 92 -11 21 -3 39 -5 40 -3 6 5 85 -41 102 -60 10 -11 21 -41 23
-66 12 -103 -76 -158 -252 -158 -126 0 -239 29 -329 84 l-49 30 -30 -28 c-122
-113 -121 -112 -103 -132 34 -37 234 -126 306 -136 165 -23 299 -23 400 0 14
4 30 7 35 8 74 18 215 123 215 161 0 9 4 16 8 16 5 0 9 6 10 13 0 6 7 37 14
67 8 30 13 68 11 85 -1 16 2 34 8 41 11 13 2 44 -13 44 -6 0 -5 -7 2 -15 7 -9
10 -18 6 -22 -8 -9 -15 -1 -19 23 -2 10 -9 30 -16 44 -12 24 -12 24 5 5 15
-18 16 -18 10 -2 -3 10 -6 21 -6 23 0 2 -5 4 -12 4 -7 0 -30 19 -53 43 -83 89
-164 118 -390 142 -170 18 -248 75 -231 170 14 74 91 119 206 119 77 0 146 -9
184 -23 11 -5 26 -9 31 -10 6 -1 29 -11 52 -21 77 -34 73 -35 136 45 59 75 68
95 42 95 -8 0 -15 4 -15 9 0 4 -37 22 -82 40 -85 32 -97 36 -183 53 -51 9
-233 17 -240 9z"/>
<path d="M4370 4269 c0 -5 5 -7 10 -4 6 3 10 8 10 11 0 2 -4 4 -10 4 -5 0 -10
-5 -10 -11z"/>
<path d="M4410 4270 c0 -5 -5 -10 -11 -10 -19 0 -152 -67 -177 -89 -13 -11
-27 -21 -30 -23 -22 -10 -85 -100 -102 -146 -31 -82 -41 -264 -27 -499 2 -40
1 -70 -4 -68 -4 3 -1 -9 8 -26 13 -26 13 -33 2 -40 -11 -7 -11 -9 2 -9 9 0 22
-14 29 -30 15 -35 101 -127 145 -156 57 -36 70 -41 195 -82 22 -7 169 -5 215
3 22 4 50 8 62 10 12 2 27 6 33 10 6 4 18 1 26 -6 12 -10 13 -9 9 3 -5 11 10
25 51 48 91 52 157 131 189 225 9 27 16 109 19 225 1 52 6 101 10 109 6 10 5
12 -2 7 -7 -4 -12 -2 -12 3 0 6 5 11 11 11 5 0 7 5 4 10 -3 6 -8 38 -10 73 -2
34 -5 62 -6 62 0 0 -2 19 -4 43 -2 44 -60 172 -78 172 -5 0 -6 8 -2 18 4 9 8
24 10 32 2 8 5 22 7 30 1 8 -3 15 -11 15 -8 0 -15 -6 -17 -13 -1 -7 0 -8 3 -2
2 5 9 10 14 10 6 0 5 -8 -1 -20 -6 -12 -17 -17 -28 -14 -16 5 -16 5 1 -6 9 -6
17 -16 17 -21 0 -6 -15 2 -34 18 -18 15 -31 32 -28 37 3 5 -2 7 -11 3 -10 -3
-17 -3 -17 1 0 7 -70 42 -121 61 -66 24 -267 36 -303 18 -13 -6 -16 -6 -12 2
4 6 2 11 -3 11 -6 0 -11 -4 -11 -10z m239 -209 c63 -20 138 -88 148 -135 1 -6
5 -24 9 -41 3 -16 7 -105 7 -196 1 -133 -2 -170 -13 -185 -8 -10 -10 -15 -4
-11 6 3 11 0 11 -8 0 -8 -5 -11 -10 -8 -6 4 -8 -1 -4 -11 5 -13 3 -17 -6 -13
-8 3 -13 -3 -13 -18 0 -14 4 -21 11 -17 5 3 4 -2 -4 -11 -7 -9 -17 -15 -21
-12 -5 3 -12 0 -16 -6 -4 -8 -3 -9 4 -5 20 12 13 -8 -11 -30 -96 -91 -279 -89
-376 4 -56 53 -72 120 -71 297 0 111 2 124 14 144 6 9 5 12 -1 8 -7 -5 -10 65
-4 91 1 1 1 4 1 7 -1 12 34 72 54 93 25 28 88 62 131 72 41 9 123 5 164 -9z"/>
<path d="M4400 3840 c6 -11 13 -20 16 -20 2 0 0 9 -6 20 -6 11 -13 20 -16 20
-2 0 0 -9 6 -20z"/>
<path d="M4370 3830 c0 -5 5 -10 10 -10 6 0 10 5 10 10 0 6 -4 10 -10 10 -5 0
-10 -4 -10 -10z"/>
<path d="M4427 3821 c-4 -17 -3 -21 5 -13 5 5 8 16 6 23 -3 8 -7 3 -11 -10z"/>
<path d="M4322 3817 c10 -8 14 -18 10 -22 -4 -5 -1 -5 6 -1 17 10 15 14 -10
26 -21 10 -21 10 -6 -3z"/>
<path d="M4357 3796 c-4 -10 -3 -15 3 -11 6 3 10 1 10 -6 0 -7 3 -10 6 -6 3 3
2 13 -4 22 -8 16 -9 16 -15 1z"/>
<path d="M4390 3799 c0 -5 5 -7 10 -4 6 3 10 8 10 11 0 2 -4 4 -10 4 -5 0 -10
-5 -10 -11z"/>
<path d="M5214 4268 c4 -13 0 -18 -17 -19 -18 -1 -19 -2 -3 -6 24 -6 38 8 25
27 -9 13 -10 12 -5 -2z"/>
<path d="M5311 4264 c0 -11 3 -14 6 -6 3 7 2 16 -1 19 -3 4 -6 -2 -5 -13z"/>
<path d="M7817 4274 c-1 -2 -14 -5 -27 -7 -57 -11 -110 -28 -154 -52 -51 -27
-60 -34 -114 -85 -34 -33 -98 -120 -88 -120 3 0 -1 -17 -8 -37 -16 -47 -20
-112 -19 -328 0 -187 12 -268 50 -332 26 -45 111 -133 129 -133 6 0 19 -9 29
-20 10 -11 24 -20 32 -20 7 0 16 -6 19 -14 3 -8 12 -12 19 -9 8 2 20 1 27 -3
7 -5 22 -9 33 -10 11 -1 38 -5 60 -9 82 -14 169 -11 255 11 14 3 33 7 43 7 9
1 17 6 17 11 0 5 3 6 7 3 3 -4 15 1 26 10 19 17 20 17 8 -4 -6 -12 -11 -28
-11 -35 1 -7 8 3 16 22 8 19 21 38 29 43 69 38 167 170 181 242 l6 35 -120 0
c-112 0 -121 -1 -127 -20 -3 -11 -11 -20 -16 -20 -5 0 -9 -6 -9 -12 0 -19 -96
-82 -111 -73 -8 5 -10 4 -5 -3 4 -8 -1 -12 -13 -13 -12 -1 -27 -2 -33 -3 -7
-1 -19 2 -26 7 -9 7 -11 6 -6 -6 5 -13 1 -15 -18 -11 -12 2 -40 6 -60 8 -30 3
-85 28 -117 52 -2 2 4 15 14 30 9 15 12 23 6 20 -6 -4 -11 -1 -11 6 0 10 -2
10 -9 -1 -5 -8 -7 -19 -5 -26 3 -6 -2 -12 -11 -12 -8 0 -13 3 -10 5 2 3 -4 12
-14 21 -10 9 -22 32 -26 51 -5 19 -10 42 -12 50 -8 30 -9 317 -1 373 4 32 15
72 24 89 37 71 118 117 216 122 105 5 187 -33 239 -113 l31 -48 115 0 115 0
-5 26 c-10 50 -12 56 -17 61 -3 3 -14 23 -25 45 -19 38 -74 99 -126 140 -47
37 -128 70 -199 81 -43 7 -188 12 -193 8z"/>
<path d="M8356 4268 c3 -4 11 -5 19 -1 21 7 19 12 -4 10 -11 0 -18 -5 -15 -9z"/>
<path d="M8596 4268 c3 -5 10 -6 15 -3 13 9 11 12 -6 12 -8 0 -12 -4 -9 -9z"/>
<path d="M5350 4260 c0 -5 5 -10 10 -10 6 0 10 5 10 10 0 6 -4 10 -10 10 -5 0
-10 -4 -10 -10z"/>
<path d="M5553 4261 c-5 -3 -30 -58 -57 -121 -27 -63 -56 -133 -66 -155 -10
-22 -37 -85 -60 -140 -23 -55 -53 -121 -65 -147 -13 -25 -21 -49 -18 -52 4 -3
1 -6 -5 -6 -7 0 -12 -7 -12 -15 0 -8 -47 -125 -105 -261 -58 -135 -105 -251
-105 -257 0 -8 23 -12 71 -12 39 0 73 -3 76 -8 2 -4 9 -4 15 -1 6 4 24 7 40 6
23 -1 32 6 48 39 11 21 17 39 13 39 -4 0 -2 5 5 12 7 7 12 20 12 30 0 10 4 18
10 18 5 0 9 3 8 8 -3 14 26 93 39 104 14 11 220 15 231 4 3 -3 12 0 20 7 11 8
14 9 9 0 -5 -8 1 -11 18 -9 14 1 28 5 31 9 9 9 35 -4 28 -14 -3 -5 0 -9 5 -9
6 0 11 5 11 10 0 6 5 10 11 10 5 0 7 -4 4 -10 -9 -14 -16 -54 -8 -46 3 3 12 1
19 -5 9 -7 14 -6 20 3 4 7 4 10 -1 6 -4 -4 -14 -3 -21 3 -10 8 -10 16 -2 34 6
14 15 22 19 19 5 -3 4 -15 -2 -27 -10 -22 -10 -22 8 -2 19 22 85 29 92 10 2
-5 13 -28 24 -50 12 -22 20 -46 19 -52 -2 -7 3 -13 9 -13 7 0 10 -3 6 -6 -3
-4 0 -19 9 -35 8 -16 11 -29 7 -29 -5 0 -1 -5 7 -11 11 -8 8 -9 -13 -4 -19 4
-26 2 -22 -5 3 -5 18 -10 33 -10 21 0 24 -2 12 -10 -13 -8 -12 -10 5 -11 63
-5 228 -4 237 2 9 6 -60 181 -153 386 -10 24 -19 45 -19 48 0 3 -16 43 -36 88
-20 45 -42 96 -50 112 -7 17 -31 73 -54 125 -23 52 -43 100 -44 105 -4 15 -20
53 -54 127 -17 37 -28 69 -24 72 3 3 0 6 -6 6 -7 0 -12 8 -13 18 0 9 -8 30
-18 47 -17 29 -19 30 -104 31 -47 0 -90 -2 -94 -5z m131 -371 c7 -19 25 -68
40 -108 15 -41 25 -80 22 -88 -3 -8 -2 -12 3 -9 5 3 12 1 16 -5 6 -9 -8 -14
-28 -11 -5 1 -6 -3 -3 -8 4 -5 0 -12 -6 -14 -9 -4 -10 -6 -1 -6 6 -1 15 4 18
9 10 17 25 11 25 -10 0 -11 4 -20 9 -20 8 0 24 -32 26 -52 0 -3 3 -10 8 -14
10 -11 9 -26 -2 -19 -5 3 -12 1 -16 -5 -4 -6 -12 -7 -18 -3 -7 4 -79 6 -160 5
l-148 -1 6 22 c3 12 10 31 15 42 4 11 15 36 23 55 8 19 41 103 73 187 l58 152
14 -32 c7 -18 19 -48 26 -67z"/>
<path d="M5708 3623 c7 -3 16 -2 19 1 4 3 -2 6 -13 5 -11 0 -14 -3 -6 -6z"/>
<path d="M5730 3605 c-7 -8 -15 -13 -19 -11 -4 3 -7 -4 -7 -14 0 -16 4 -15 24
8 l24 26 14 -25 c7 -13 13 -20 14 -16 0 14 -20 47 -29 47 -5 0 -14 -7 -21 -15z"/>
<path d="M5735 3580 c-3 -5 -1 -10 4 -10 6 0 11 5 11 10 0 6 -2 10 -4 10 -3 0
-8 -4 -11 -10z"/>
<path d="M5720 3555 c0 -8 29 -12 39 -5 9 5 4 8 -13 8 -14 0 -26 -2 -26 -3z"/>
<path d="M8823 4261 c2 -5 -151 -368 -213 -506 -10 -22 -30 -69 -44 -105 -27
-65 -40 -96 -69 -160 -9 -19 -17 -42 -19 -50 -2 -8 -5 -17 -8 -20 -3 -3 -19
-36 -34 -75 -33 -80 -61 -145 -83 -192 -25 -54 -18 -58 105 -58 125 -1 111
-10 155 100 26 65 39 97 42 105 2 3 6 15 10 28 6 18 15 22 49 22 22 0 120 0
216 0 96 0 182 -1 190 -1 8 0 21 1 29 3 13 3 31 -31 104 -204 11 -27 23 -49
26 -49 23 -5 224 -3 227 2 3 6 -22 71 -68 179 -6 14 -12 27 -13 30 0 3 -11 26
-23 52 -12 26 -22 49 -22 52 0 3 -11 29 -24 58 -13 29 -83 193 -156 363 -155
366 -168 395 -179 415 -6 12 -30 15 -104 16 -53 0 -95 -2 -94 -5z m177 -471
c39 -102 75 -194 80 -205 20 -49 20 -55 -3 -55 -12 0 -29 0 -37 0 -8 -1 -51 0
-95 0 -44 1 -84 0 -90 0 -18 -3 -100 2 -104 6 -2 2 10 38 27 81 29 73 113 289
133 342 5 13 11 22 13 20 2 -2 36 -87 76 -189z"/>
<path d="M5146 4235 c-11 -8 -15 -15 -9 -15 6 0 16 7 23 15 16 19 11 19 -14 0z"/>
<path d="M5086 4227 c3 -10 9 -15 12 -12 3 3 0 11 -7 18 -10 9 -11 8 -5 -6z"/>
<path d="M5220 4230 c-8 -5 -10 -10 -5 -10 6 0 17 5 25 10 8 5 11 10 5 10 -5
0 -17 -5 -25 -10z"/>
<path d="M5273 4214 c-12 -13 -28 -24 -35 -24 -7 0 -2 10 12 21 22 18 22 19 3
10 -12 -6 -24 -15 -28 -20 -9 -15 13 -23 33 -12 13 7 23 6 32 -2 12 -10 12 -9
1 5 -11 15 -11 19 3 24 9 3 16 10 16 15 0 15 -14 8 -37 -17z"/>
<path d="M5376 4228 c3 -5 10 -6 15 -3 13 9 11 12 -6 12 -8 0 -12 -4 -9 -9z"/>
<path d="M5995 4230 c3 -5 8 -10 11 -10 2 0 4 5 4 10 0 6 -5 10 -11 10 -5 0
-7 -4 -4 -10z"/>
<path d="M6104 4228 c10 -6 22 -6 26 -2 5 5 -3 10 -18 11 -22 1 -24 0 -8 -9z"/>
<path d="M6180 4230 c-9 -6 -10 -10 -3 -10 6 0 15 5 18 10 8 12 4 12 -15 0z"/>
<path d="M5060 4222 c0 -6 -8 -9 -17 -6 -15 5 -16 4 -3 -5 16 -11 40 3 27 16
-4 3 -7 1 -7 -5z"/>
<path d="M5146 4195 c-20 -30 -21 -47 -1 -21 8 11 15 16 15 12 0 -5 7 -3 15 4
14 12 12 30 -4 30 -5 0 -16 -11 -25 -25z m34 11 c0 -3 -4 -8 -10 -11 -5 -3
-10 -1 -10 4 0 6 5 11 10 11 6 0 10 -2 10 -4z"/>
<path d="M5315 4209 c-4 -6 -5 -12 -2 -15 2 -3 7 2 10 11 7 17 1 20 -8 4z"/>
<path d="M5348 4213 c7 -3 16 -2 19 1 4 3 -2 6 -13 5 -11 0 -14 -3 -6 -6z"/>
<path d="M6055 4210 c-4 -7 3 -8 21 -4 21 5 25 4 19 -6 -5 -9 -4 -11 3 -6 7 4
12 2 12 -3 0 -6 5 -11 12 -11 6 0 3 9 -7 20 -20 22 -50 26 -60 10z"/>
<path d="M6135 4211 c-3 -5 0 -13 6 -17 8 -4 9 -3 5 4 -11 19 5 14 21 -5 13
-16 13 -16 3 5 -11 23 -25 28 -35 13z"/>
<path d="M6200 4194 c-7 -17 -7 -31 0 -42 9 -14 10 -12 4 8 -6 22 -5 23 10 11
10 -9 16 -10 16 -2 0 6 -5 11 -11 11 -6 0 -9 9 -6 20 7 29 -2 25 -13 -6z"/>
<path d="M6235 4209 c-4 -6 -5 -12 -2 -15 2 -3 7 2 10 11 7 17 1 20 -8 4z"/>
<path d="M5115 4200 c3 -5 8 -10 11 -10 2 0 4 5 4 10 0 6 -5 10 -11 10 -5 0
-7 -4 -4 -10z"/>
<path d="M5171 4172 c-28 -28 -30 -31 -9 -22 21 10 55 49 46 53 -2 1 -18 -13
-37 -31z"/>
<path d="M6281 4194 c0 -11 3 -14 6 -6 3 7 2 16 -1 19 -3 4 -6 -2 -5 -13z"/>
<path d="M5021 4190 c10 -6 15 -20 14 -34 l-3 -25 29 21 c16 12 29 26 29 30 0
5 5 6 12 2 6 -4 8 -3 5 4 -8 12 -32 10 -44 -3 -4 -4 -2 -5 5 -1 21 13 13 -9
-9 -23 -20 -12 -21 -11 -15 5 6 17 -8 34 -29 34 -5 -1 -3 -5 6 -10z"/>
<path d="M4906 4168 c3 -5 10 -6 15 -3 13 9 11 12 -6 12 -8 0 -12 -4 -9 -9z"/>
<path d="M4986 4164 c-6 -15 -4 -15 11 -3 10 7 20 15 22 16 2 2 -3 3 -11 3 -9
0 -19 -7 -22 -16z"/>
<path d="M5075 4145 c-16 -13 -24 -24 -17 -25 6 0 12 3 12 8 0 4 12 15 28 24
15 10 23 18 17 18 -5 0 -23 -11 -40 -25z"/>
<path d="M5001 4143 c-5 -10 -13 -17 -18 -15 -4 2 -8 -1 -9 -7 -2 -7 -1 -8 3
-1 2 5 9 8 13 5 5 -3 14 4 20 15 13 24 5 27 -9 3z"/>
<path d="M6239 4158 c-6 -21 -5 -37 2 -32 5 3 7 9 4 14 -3 4 1 11 7 13 10 4
10 6 1 6 -7 1 -13 0 -14 -1z"/>
<path d="M5105 4137 c-14 -11 -15 -16 -5 -22 9 -5 11 -4 6 3 -4 7 -1 12 8 12
9 0 16 5 16 10 0 13 -3 13 -25 -3z"/>
<path d="M4999 4103 c-13 -16 -12 -17 3 -5 9 8 23 10 29 6 8 -4 9 -3 5 4 -10
17 -21 15 -37 -5z"/>
<path d="M7785 3830 c-3 -5 -1 -10 4 -10 6 0 11 5 11 10 0 6 -2 10 -4 10 -3 0
-8 -4 -11 -10z"/>
<path d="M7820 3805 c15 -18 -1 -20 -19 -2 -9 8 -12 8 -7 0 3 -6 3 -13 -1 -16
-5 -2 -3 -2 4 -1 7 2 22 -6 35 -17 18 -16 19 -19 5 -15 -11 3 -16 2 -12 -4 3
-6 1 -10 -4 -10 -6 0 -11 -5 -11 -11 0 -8 4 -8 15 1 8 6 26 13 40 15 15 1 32
8 38 15 10 10 8 10 -9 2 -16 -9 -26 -7 -43 4 -12 9 -19 20 -15 25 3 6 11 4 18
-6 12 -17 46 -11 46 8 0 7 -4 7 -12 -1 -15 -15 -32 -16 -23 -2 6 9 -8 14 -27
11 -5 0 -8 4 -8 9 0 6 -5 10 -11 10 -8 0 -8 -5 1 -15z"/>
<path d="M5141 3804 c-1 -6 -16 -10 -37 -9 -19 2 -33 0 -30 -3 3 -3 0 -12 -6
-21 -10 -12 -8 -12 8 2 27 22 42 22 21 -1 -12 -13 -13 -21 -6 -32 9 -13 10
-12 5 2 -3 10 -1 20 4 23 6 4 10 1 10 -4 0 -6 9 -2 21 10 11 11 18 26 15 32
-3 8 -5 8 -5 1z"/>
<path d="M5136 3762 c-7 -11 -2 -40 9 -49 4 -4 5 -3 2 3 -4 7 0 14 8 18 8 3
15 1 15 -4 0 -6 5 -10 11 -10 8 0 8 5 -1 15 -17 20 -1 19 22 -2 10 -9 18 -12
18 -7 0 11 -52 44 -68 44 -6 0 -13 -4 -16 -8z m29 -12 c-3 -5 -10 -10 -16 -10
-5 0 -9 5 -9 10 0 6 7 10 16 10 8 0 12 -4 9 -10z"/>
<path d="M7796 3755 c-9 -26 -7 -32 5 -12 6 10 9 21 6 23 -2 3 -7 -2 -11 -11z"/>
<path d="M3996 3732 c-2 -4 -1 -14 4 -22 7 -11 9 -9 7 8 -1 24 -3 26 -11 14z"/>
<path d="M7886 3725 c-3 -8 -10 -15 -16 -15 -6 0 -8 5 -5 10 3 6 1 10 -5 10
-16 0 -6 -24 11 -28 8 -1 20 7 27 18 7 11 8 20 3 20 -5 0 -11 -7 -15 -15z"/>
<path d="M4030 3710 c-9 -6 -10 -10 -3 -10 6 0 15 5 18 10 8 12 4 12 -15 0z"/>
<path d="M6296 3712 c-2 -4 -1 -14 4 -22 7 -11 9 -9 7 8 -1 24 -3 26 -11 14z"/>
<path d="M7773 3708 c2 -7 11 -13 20 -13 20 0 35 -15 16 -16 -8 -1 -18 0 -24
1 -5 1 -7 -1 -3 -5 4 -4 1 -13 -5 -20 -9 -10 -15 -10 -26 -1 -12 9 -12 8 -3
-10 11 -22 12 -21 45 10 24 21 32 35 25 43 -5 6 -17 9 -25 6 -11 -4 -14 -2 -9
5 4 7 2 12 -4 12 -7 0 -10 -6 -7 -12z"/>
<path d="M7830 3715 c0 -5 5 -17 10 -25 5 -8 10 -10 10 -5 0 6 -5 17 -10 25
-5 8 -10 11 -10 5z"/>
<path d="M7890 3687 c-14 -17 -20 -28 -13 -24 6 4 14 3 17 -2 4 -5 -2 -12 -11
-14 -16 -4 -16 -5 -1 -6 9 0 20 4 23 9 9 15 22 12 29 -6 4 -11 2 -15 -7 -11
-8 3 -20 1 -28 -4 -9 -5 -4 -7 16 -5 20 1 29 7 26 17 -2 8 -4 19 -4 26 0 8 -6
9 -18 2 -10 -5 -20 -6 -22 -2 -5 9 18 34 25 27 3 -2 5 3 5 11 0 22 -9 18 -37
-18z"/>
<path d="M3976 3693 c-6 -14 -5 -15 5 -6 7 7 10 15 7 18 -3 3 -9 -2 -12 -12z"/>
<path d="M5176 3701 c-3 -4 6 -6 19 -3 14 2 25 6 25 8 0 8 -39 4 -44 -5z"/>
<path d="M5223 3685 c-8 -22 5 -31 20 -15 10 10 9 11 -2 5 -11 -6 -13 -4 -8 8
3 10 4 17 1 17 -2 0 -7 -7 -11 -15z"/>
<path d="M5274 3692 c3 -5 0 -13 -6 -15 -9 -4 -10 -6 -1 -6 17 -1 25 16 12 25
-7 4 -9 3 -5 -4z"/>
<path d="M4010 3681 c0 -7 -4 -10 -8 -7 -5 3 -9 0 -10 -7 0 -7 -2 -21 -5 -32
-2 -11 -2 -14 0 -7 3 6 9 12 15 12 6 0 8 3 5 7 -4 3 -2 12 5 20 6 7 8 16 4 20
-3 3 -6 1 -6 -6z"/>
<path d="M6273 3675 c0 -8 4 -12 9 -9 5 3 6 10 3 15 -9 13 -12 11 -12 -6z"/>
<path d="M7755 3680 c3 -5 8 -10 11 -10 2 0 4 5 4 10 0 6 -5 10 -11 10 -5 0
-7 -4 -4 -10z"/>
<path d="M6297 3663 c-4 -3 -7 -11 -7 -17 0 -6 5 -5 12 2 6 6 9 14 7 17 -3 3
-9 2 -12 -2z"/>
<path d="M3925 3650 c-16 -7 -17 -9 -3 -9 9 -1 20 4 23 9 7 11 7 11 -20 0z"/>
<path d="M5255 3650 c3 -5 8 -10 11 -10 2 0 4 5 4 10 0 6 -5 10 -11 10 -5 0
-7 -4 -4 -10z"/>
<path d="M7798 3633 c7 -3 16 -2 19 1 4 3 -2 6 -13 5 -11 0 -14 -3 -6 -6z"/>
<path d="M6275 3621 c-3 -5 0 -13 6 -17 7 -4 9 -3 5 4 -3 5 0 13 6 15 9 4 10
6 1 6 -6 1 -14 -3 -18 -8z"/>
<path d="M3935 3610 c-8 -13 5 -13 25 0 13 8 13 10 -2 10 -9 0 -20 -4 -23 -10z"/>
<path d="M7735 3610 c-3 -5 -1 -10 4 -10 6 0 11 5 11 10 0 6 -2 10 -4 10 -3 0
-8 -4 -11 -10z"/>
<path d="M7770 3605 c-7 -9 -10 -18 -6 -22 3 -3 6 -1 6 6 0 7 5 9 12 5 7 -4 8
-3 4 5 -5 8 0 10 19 7 15 -3 25 -2 21 1 -13 14 -44 12 -56 -2z"/>
<path d="M7932 3594 c-16 -19 -18 -25 -6 -20 8 3 18 6 20 6 2 0 4 6 4 14 0 8
6 17 13 19 6 3 8 6 2 6 -5 0 -20 -11 -33 -25z"/>
<path d="M6263 3588 c12 -19 13 -28 5 -30 -8 -3 -6 -6 3 -10 31 -12 33 8 4 37
-28 29 -28 29 -12 3z"/>
<path d="M6296 3593 c-6 -14 -5 -15 5 -6 7 7 10 15 7 18 -3 3 -9 -2 -12 -12z"/>
<path d="M7910 3599 c0 -5 5 -7 10 -4 6 3 10 8 10 11 0 2 -4 4 -10 4 -5 0 -10
-5 -10 -11z"/>
<path d="M3960 3596 c0 -2 7 -7 16 -10 8 -3 12 -2 9 4 -6 10 -25 14 -25 6z"/>
<path d="M3944 3569 c0 -13 3 -15 13 -7 7 6 13 12 13 13 0 2 -6 5 -13 8 -7 3
-13 -3 -13 -14z"/>
<path d="M7740 3581 c0 -7 -5 -9 -12 -5 -7 5 -8 3 -3 -5 5 -9 10 -10 18 -2 6
6 8 14 4 18 -4 3 -7 1 -7 -6z"/>
<path d="M7948 3566 c-17 -12 -18 -51 -2 -65 4 -3 4 2 1 12 -5 13 -3 17 5 14
7 -2 12 -10 11 -16 -2 -6 1 -11 7 -11 5 0 8 10 6 23 -2 15 -9 21 -22 19 -15
-3 -16 -1 -5 12 7 9 18 13 24 9 6 -3 7 -1 3 5 -9 14 -7 14 -28 -2z"/>
<path d="M6713 3555 c0 -8 4 -15 9 -15 4 0 8 4 8 9 0 6 -4 12 -8 15 -5 3 -9
-1 -9 -9z"/>
<path d="M7771 3553 c-1 -12 4 -25 9 -28 12 -7 12 2 0 30 -8 19 -9 19 -9 -2z"/>
<path d="M7746 3551 c-3 -4 1 -17 10 -27 14 -18 15 -18 5 2 -6 12 -7 24 -4 28
3 3 4 6 0 6 -3 0 -8 -4 -11 -9z"/>
<path d="M6255 3530 c3 -5 8 -10 11 -10 2 0 4 5 4 10 0 6 -5 10 -11 10 -5 0
-7 -4 -4 -10z"/>
<path d="M6736 3531 c-3 -5 2 -15 12 -22 16 -13 16 -13 2 5 -14 18 -13 19 3
13 9 -3 17 -2 17 3 0 12 -27 13 -34 1z"/>
<path d="M7990 3534 c0 -5 7 -18 15 -28 8 -11 15 -16 15 -10 0 5 -7 18 -15 28
-8 11 -15 16 -15 10z"/>
<path d="M6282 3510 c0 -14 2 -19 5 -12 2 6 2 18 0 25 -3 6 -5 1 -5 -13z"/>
<path d="M6701 3523 c-10 -4 -8 -9 10 -19 13 -7 18 -13 12 -14 -7 0 -13 -5
-13 -11 0 -8 6 -7 17 2 15 12 16 12 9 -6 -6 -17 -5 -18 6 -7 11 11 9 17 -9 31
-12 10 -19 21 -16 25 7 7 4 7 -16 -1z"/>
<path d="M7714 3508 c-4 -7 -3 -8 4 -4 7 4 12 3 12 -3 0 -5 -5 -12 -10 -14 -6
-3 -5 -4 2 -3 16 3 24 36 9 36 -5 0 -13 -5 -17 -12z"/>
<path d="M6675 3491 c-3 -5 0 -13 6 -17 7 -4 9 -3 5 4 -3 5 0 13 6 15 9 4 10
6 1 6 -6 1 -14 -3 -18 -8z"/>
<path d="M7977 3480 c-9 -11 -13 -20 -7 -20 5 0 14 9 20 20 6 11 9 20 8 20 -2
0 -11 -9 -21 -20z"/>
<path d="M3955 3481 c-5 -10 41 -51 57 -51 5 0 6 -4 3 -10 -3 -5 -1 -10 4 -10
20 0 11 20 -13 31 -16 8 -23 17 -19 28 4 14 3 14 -6 1 -10 -13 -15 -8 -12 13
1 10 -7 9 -14 -2z"/>
<path d="M7760 3480 c-23 -7 -23 -8 -3 -9 12 -1 25 4 28 9 3 6 5 10 3 9 -2 -1
-14 -5 -28 -9z"/>
<path d="M7948 3483 c7 -3 16 -2 19 1 4 3 -2 6 -13 5 -11 0 -14 -3 -6 -6z"/>
<path d="M8011 3468 c-1 -21 15 -32 25 -17 4 7 3 9 -4 5 -6 -3 -13 2 -15 11
-4 16 -5 16 -6 1z"/>
<path d="M7715 3460 c-4 -6 -3 -9 2 -8 4 1 19 -4 32 -11 14 -8 21 -8 17 -2
-12 19 -44 32 -51 21z"/>
<path d="M6285 3450 c3 -5 11 -10 16 -10 6 0 7 5 4 10 -3 6 -11 10 -16 10 -6
0 -7 -4 -4 -10z"/>
<path d="M6643 3446 c-3 -5 -1 -6 4 -3 6 4 14 -4 17 -18 4 -15 13 -25 24 -25
16 1 16 1 0 11 -10 5 -18 18 -18 27 1 16 2 16 14 0 18 -24 29 -23 14 1 -12 20
-45 24 -55 7z"/>
<path d="M6708 3448 c5 -5 16 -8 23 -6 8 3 3 7 -10 11 -17 4 -21 3 -13 -5z"/>
<path d="M7990 3455 c1 -5 7 -18 15 -28 14 -19 10 -46 -9 -60 -6 -4 1 -5 17
-3 31 5 34 -1 10 -21 -16 -13 -16 -13 5 -3 23 11 25 37 3 33 -18 -4 -13 25 7
37 11 7 12 10 2 7 -8 -2 -23 8 -32 22 -10 14 -18 22 -18 16z"/>
<path d="M7958 3443 c6 -2 10 -8 7 -13 -3 -4 2 -11 10 -14 13 -4 14 -2 5 14
-6 11 -16 20 -23 19 -9 0 -9 -2 1 -6z"/>
<path d="M3960 3430 c8 -5 20 -10 25 -10 6 0 3 5 -5 10 -8 5 -19 10 -25 10 -5
0 -3 -5 5 -10z"/>
<path d="M6260 3432 c0 -4 10 -9 22 -9 18 -2 20 0 8 7 -18 12 -30 13 -30 2z"/>
<path d="M6839 3423 c-13 -17 -13 -17 6 -3 11 8 22 16 24 17 2 2 0 3 -6 3 -6
0 -17 -8 -24 -17z"/>
<path d="M7706 3429 c3 -5 9 -7 14 -4 5 3 11 1 15 -5 3 -5 16 -10 28 -9 14 0
17 2 7 6 -8 2 -22 7 -30 10 -27 11 -40 11 -34 2z"/>
<path d="M6639 3413 c14 -27 14 -46 1 -38 -5 3 -10 1 -10 -5 0 -16 24 -6 28
11 1 8 -5 23 -13 34 -16 20 -16 19 -6 -2z"/>
<path d="M3953 3405 c0 -8 4 -12 9 -9 5 3 6 10 3 15 -9 13 -12 11 -12 -6z"/>
<path d="M4047 3400 c3 -11 9 -20 15 -20 5 0 4 9 -2 20 -6 11 -12 20 -14 20
-2 0 -2 -9 1 -20z"/>
<path d="M6600 3411 c0 -7 -5 -9 -12 -5 -7 5 -8 3 -3 -5 5 -9 10 -10 18 -2 6
6 8 14 4 18 -4 3 -7 1 -7 -6z"/>
<path d="M6856 3412 c-2 -4 -1 -14 4 -22 8 -12 11 -13 22 -2 7 8 9 13 3 12
-22 -5 -29 1 -15 10 9 6 10 10 3 10 -6 0 -14 -4 -17 -8z"/>
<path d="M7693 3405 c0 -8 4 -12 9 -9 5 3 6 10 3 15 -9 13 -12 11 -12 -6z"/>
<path d="M3987 3396 c-4 -10 0 -12 14 -9 13 4 19 1 17 -7 -2 -7 5 -14 15 -15
14 -3 15 0 8 9 -6 7 -10 15 -8 17 1 2 0 3 -2 2 -2 -1 -12 2 -21 7 -13 7 -20 6
-23 -4z"/>
<path d="M6273 3403 c9 -2 17 -9 17 -15 0 -5 -8 -7 -17 -4 -16 6 -16 6 0 -12
20 -22 23 -47 5 -36 -7 4 -10 4 -6 -1 4 -4 2 -15 -4 -24 -10 -12 -8 -12 8 2
11 9 24 17 29 17 4 0 1 -8 -6 -17 -13 -16 -12 -17 3 -4 16 12 16 15 3 34 -16
23 -20 41 -7 33 4 -2 8 3 8 13 0 11 -9 17 -26 18 -14 0 -18 -1 -7 -4z"/>
<path d="M6617 3395 c-4 -8 -13 -15 -22 -15 -8 0 -15 -5 -15 -10 0 -7 6 -7 19
0 22 11 36 29 28 36 -2 3 -7 -2 -10 -11z"/>
<path d="M6825 3389 c-4 -6 -5 -12 -2 -15 2 -3 7 2 10 11 7 17 1 20 -8 4z"/>
<path d="M8050 3390 c0 -5 5 -10 11 -10 5 0 7 5 4 10 -3 6 -8 10 -11 10 -2 0
-4 -4 -4 -10z"/>
<path d="M6675 3379 c-4 -6 -5 -12 -2 -15 2 -3 7 2 10 11 7 17 1 20 -8 4z"/>
<path d="M6847 3363 c4 -11 3 -14 -5 -9 -8 5 -10 1 -5 -10 4 -11 8 -13 11 -6
2 7 8 9 14 6 6 -4 5 2 -1 15 -14 25 -23 28 -14 4z"/>
<path d="M7747 3365 c-4 -8 -3 -16 1 -19 4 -3 9 4 9 15 2 23 -3 25 -10 4z"/>
<path d="M6878 3358 c11 -14 10 -18 -7 -28 -23 -12 -28 -30 -9 -30 6 0 9 3 5
6 -3 3 4 16 17 28 12 11 20 20 17 19 -2 -2 -11 3 -20 10 -14 10 -14 10 -3 -5z"/>
<path d="M6595 3350 c-3 -5 -2 -10 4 -10 5 0 13 5 16 10 3 6 2 10 -4 10 -5 0
-13 -4 -16 -10z"/>
<path d="M6814 3333 c2 -9 8 -18 15 -19 6 -1 7 0 1 3 -5 2 -8 9 -5 13 3 5 1
11 -4 14 -5 4 -8 -2 -7 -11z"/>
<path d="M5600 3325 c-10 -13 -9 -18 7 -33 11 -9 25 -26 32 -37 12 -19 12 -19
6 2 -4 14 0 25 11 31 10 5 12 12 6 16 -5 3 -13 -1 -16 -10 -6 -15 -8 -15 -26
1 -15 14 -17 21 -9 32 6 7 9 13 6 13 -2 0 -10 -7 -17 -15z"/>
<path d="M5633 3323 c-3 -8 -3 -17 1 -20 3 -4 6 1 6 11 0 13 4 15 18 7 11 -6
24 -6 33 0 7 5 10 9 4 10 -5 0 -21 2 -33 3 -13 2 -26 -3 -29 -11z"/>
<path d="M5840 3320 c6 -11 13 -20 16 -20 2 0 0 9 -6 20 -6 11 -13 20 -16 20
-2 0 0 -9 6 -20z"/>
<path d="M5867 3319 c3 -10 12 -20 20 -24 13 -4 14 -3 4 9 -7 8 -10 19 -7 24
3 5 -1 9 -8 9 -8 0 -11 -8 -9 -18z"/>
<path d="M5720 3310 c-13 -8 -12 -10 3 -10 9 0 17 5 17 10 0 12 -1 12 -20 0z"/>
<path d="M5810 3310 c0 -5 5 -10 10 -10 6 0 10 5 10 10 0 6 -4 10 -10 10 -5 0
-10 -4 -10 -10z"/>
<path d="M5680 3296 c0 -2 7 -7 16 -10 8 -3 12 -2 9 4 -6 10 -25 14 -25 6z"/>
<path d="M6813 3279 c-4 -15 -8 -17 -14 -7 -6 9 -8 6 -6 -10 2 -29 15 -28 23
2 6 26 28 26 38 -1 5 -11 2 -13 -9 -9 -9 3 -14 2 -11 -3 3 -5 -1 -11 -9 -15
-17 -6 -20 -26 -4 -26 5 0 7 5 3 12 -5 8 -2 9 10 5 9 -4 15 -3 12 2 -3 5 1 12
9 15 12 4 13 10 6 25 -16 29 -42 35 -48 10z"/>
<path d="M6268 3283 c6 -2 18 -2 25 0 6 3 1 5 -13 5 -14 0 -19 -2 -12 -5z"/>
<path d="M5660 3269 c0 -5 5 -7 10 -4 6 3 10 8 10 11 0 2 -4 4 -10 4 -5 0 -10
-5 -10 -11z"/>
<path d="M5599 3268 c-4 -15 -6 -50 -3 -41 3 7 5 15 4 19 -1 4 4 11 12 15 10
7 10 9 1 9 -7 0 -13 -1 -14 -2z"/>
<path d="M5906 3252 c-3 -5 1 -9 9 -9 8 0 12 4 9 9 -3 4 -7 8 -9 8 -2 0 -6 -4
-9 -8z"/>
<path d="M5616 3235 c-3 -8 -1 -15 4 -15 6 0 10 7 10 15 0 8 -2 15 -4 15 -2 0
-6 -7 -10 -15z"/>
<path d="M6253 3235 c0 -8 4 -12 9 -9 5 3 6 10 3 15 -9 13 -12 11 -12 -6z"/>
<path d="M6270 3215 c0 -5 5 -17 10 -25 8 -13 11 -13 22 -1 8 9 9 12 1 7 -6
-3 -16 2 -22 11 -6 10 -10 14 -11 8z"/>
<path d="M6855 3210 c-3 -5 -4 -10 0 -10 3 0 0 -10 -6 -22 -8 -17 -8 -20 0
-12 6 6 13 20 16 32 4 23 0 28 -10 12z"/>
<path d="M5620 3206 c0 -2 7 -7 16 -10 8 -3 12 -2 9 4 -6 10 -25 14 -25 6z"/>
<path d="M5910 3206 c0 -2 7 -9 15 -16 13 -11 14 -10 9 4 -5 14 -24 23 -24 12z"/>
<path d="M6808 3171 c9 -16 19 -28 21 -25 6 6 -21 54 -30 54 -5 0 0 -13 9 -29z"/>
<path d="M6825 3190 c3 -5 8 -10 11 -10 2 0 4 5 4 10 0 6 -5 10 -11 10 -5 0
-7 -4 -4 -10z"/>
<path d="M5575 3179 c-3 -4 2 -6 10 -5 21 3 28 13 10 13 -9 0 -18 -4 -20 -8z"/>
<path d="M6255 3181 c-3 -5 -1 -12 5 -16 6 -4 7 -12 3 -18 -4 -7 0 -6 10 2 20
16 22 22 5 19 -7 -2 -12 3 -10 10 2 14 -4 16 -13 3z"/>
<path d="M5930 3166 c0 -2 7 -7 16 -10 8 -3 12 -2 9 4 -6 10 -25 14 -25 6z"/>
<path d="M5555 3149 c-4 -6 -5 -12 -2 -15 2 -3 7 2 10 11 7 17 1 20 -8 4z"/>
<path d="M5590 3150 c8 -5 20 -10 25 -10 6 0 3 5 -5 10 -8 5 -19 10 -25 10 -5
0 -3 -5 5 -10z"/>
<path d="M6784 3140 c0 -10 6 -16 13 -13 7 3 13 9 13 13 0 4 -6 10 -13 13 -7
3 -13 -3 -13 -13z"/>
<path d="M6840 3144 c0 -5 -12 -17 -27 -26 -16 -10 -23 -17 -18 -18 17 0 60
38 52 46 -4 4 -7 3 -7 -2z"/>
<path d="M5566 3125 c-3 -9 -12 -12 -23 -9 -15 5 -16 4 -3 -5 20 -15 23 -14
38 9 7 11 8 20 3 20 -5 0 -11 -7 -15 -15z"/>
<path d="M6276 3131 c-3 -5 1 -14 9 -21 10 -9 15 -9 15 -1 0 6 -5 11 -11 11
-5 0 -7 5 -4 10 3 6 4 10 1 10 -3 0 -7 -4 -10 -9z"/>
<path d="M6591 3125 c0 -5 3 -16 8 -23 7 -11 9 -10 14 3 4 9 3 14 -2 10 -5 -3
-12 1 -14 7 -3 7 -6 9 -6 3z"/>
<path d="M5598 3113 c7 -3 16 -2 19 1 4 3 -2 6 -13 5 -11 0 -14 -3 -6 -6z"/>
<path d="M6829 3100 c-13 -10 -18 -19 -11 -20 6 0 12 4 12 8 0 5 10 14 23 20
12 6 17 11 11 11 -7 1 -22 -8 -35 -19z"/>
<path d="M7653 3106 c1 -11 11 -20 24 -22 25 -4 39 11 22 22 -8 5 -9 3 -5 -5
6 -8 2 -11 -10 -9 -11 2 -22 10 -26 18 -6 11 -7 10 -5 -4z"/>
<path d="M4755 3100 c-3 -5 -1 -10 4 -10 6 0 11 5 11 10 0 6 -2 10 -4 10 -3 0
-8 -4 -11 -10z"/>
<path d="M6266 3096 c3 -9 13 -16 22 -16 8 0 13 1 11 3 -2 1 -12 9 -22 16 -15
12 -17 12 -11 -3z"/>
<path d="M5527 3093 c-4 -3 -7 -11 -7 -17 0 -6 4 -5 9 3 7 10 10 10 16 1 4 -7
2 -16 -6 -21 -7 -4 -11 -10 -9 -13 3 -2 13 1 22 8 17 12 17 14 0 30 -10 9 -22
13 -25 9z"/>
<path d="M5575 3091 c-3 -5 0 -13 6 -17 7 -4 9 -3 5 4 -3 5 0 13 6 15 9 4 10
6 1 6 -6 1 -14 -3 -18 -8z"/>
<path d="M6853 3089 c-6 -6 -9 -18 -6 -25 3 -8 1 -14 -5 -14 -6 0 -13 6 -15
13 -4 9 -6 9 -6 -1 -1 -8 -6 -10 -13 -6 -7 4 -10 3 -5 -1 15 -17 46 -15 56 4
6 10 7 22 3 26 -4 5 1 5 11 2 11 -4 16 -3 12 3 -8 13 -18 13 -32 -1z"/>
<path d="M8110 3090 c0 -6 7 -10 15 -10 8 0 15 2 15 4 0 2 -7 6 -15 10 -8 3
-15 1 -15 -4z"/>
<path d="M8162 3084 c-7 -8 -8 -14 -3 -14 10 0 25 19 20 25 -2 1 -10 -3 -17
-11z"/>
<path d="M4775 3080 c-4 -6 -11 -7 -17 -4 -7 4 -8 2 -4 -5 5 -8 12 -9 19 -3 7
6 21 12 32 15 19 4 18 5 -2 6 -12 0 -25 -4 -28 -9z"/>
<path d="M5953 3075 c0 -8 4 -15 9 -15 4 0 8 7 8 15 0 8 -4 15 -8 15 -5 0 -9
-7 -9 -15z"/>
<path d="M7630 3086 c0 -2 8 -10 18 -17 15 -13 16 -12 3 4 -13 16 -21 21 -21
13z"/>
<path d="M4399 3063 c-13 -16 -12 -17 4 -4 16 13 21 21 13 21 -2 0 -10 -8 -17
-17z"/>
<path d="M5174 3068 c-4 -7 -3 -8 4 -4 7 4 12 2 12 -5 0 -7 3 -9 7 -6 3 4 12
-1 20 -11 13 -15 13 -15 4 4 -12 26 -38 37 -47 22z"/>
<path d="M5230 3072 c0 -5 7 -9 15 -9 8 0 15 4 15 9 0 4 -7 8 -15 8 -8 0 -15
-4 -15 -8z"/>
<path d="M5988 3063 c-23 -28 -30 -43 -19 -43 6 0 11 7 11 15 0 9 6 12 15 9
18 -7 20 -35 3 -31 -7 1 -13 -4 -13 -12 0 -8 6 -15 13 -17 7 -1 8 0 2 3 -5 2
-10 9 -10 14 0 6 4 8 9 4 5 -3 16 8 24 24 14 29 14 29 -11 25 -22 -4 -24 -3
-12 11 7 8 10 15 8 15 -3 0 -12 -8 -20 -17z"/>
<path d="M6310 3070 c0 -5 5 -10 11 -10 5 0 7 5 4 10 -3 6 -8 10 -11 10 -2 0
-4 -4 -4 -10z"/>
<path d="M6606 3064 c-3 -8 -10 -13 -15 -9 -15 9 -25 -15 -12 -28 9 -9 11 -8
5 6 -3 10 -3 17 2 16 14 -3 44 12 44 22 0 15 -17 10 -24 -7z"/>
<path d="M4458 3058 c6 -6 18 -8 28 -6 14 3 12 5 -9 10 -19 3 -25 2 -19 -4z"/>
<path d="M4791 3061 c-8 -5 -16 -17 -17 -26 -1 -9 1 -14 4 -10 4 4 6 9 4 12
-2 3 5 11 15 19 20 15 16 19 -6 5z"/>
<path d="M6266 3059 c3 -5 10 -7 15 -4 5 4 9 1 9 -4 0 -6 5 -11 12 -11 9 0 9
3 0 12 -14 14 -44 20 -36 7z"/>
<path d="M6635 3051 c-3 -12 -10 -19 -15 -16 -5 3 -11 1 -14 -4 -4 -5 -2 -12
4 -16 6 -4 8 -10 6 -14 -3 -3 4 -7 15 -7 10 0 19 4 19 8 0 4 -7 8 -15 8 -14 0
-13 3 1 25 9 14 14 28 11 31 -3 3 -8 -4 -12 -15z"/>
<path d="M7670 3059 c0 -5 5 -7 10 -4 6 3 10 8 10 11 0 2 -4 4 -10 4 -5 0 -10
-5 -10 -11z"/>
<path d="M8160 3060 c-23 -7 -23 -8 -3 -9 12 -1 25 4 28 9 3 6 5 10 3 9 -2 -1
-14 -5 -28 -9z"/>
<path d="M4415 3050 c-3 -4 -2 -16 1 -27 5 -17 5 -17 -9 0 -10 12 -17 14 -22
8 -3 -6 -1 -11 5 -11 6 0 9 -4 6 -9 -4 -5 2 -8 11 -6 12 1 17 10 16 26 -3 23
-2 23 12 5 12 -16 15 -17 15 -4 0 18 -26 32 -35 18z"/>
<path d="M4815 3050 c-3 -5 -1 -10 4 -10 6 0 11 5 11 10 0 6 -2 10 -4 10 -3 0
-8 -4 -11 -10z"/>
<path d="M5144 3048 c-4 -7 -4 -10 1 -6 4 4 16 3 26 -3 11 -5 19 -7 19 -5 0 3
-9 10 -19 16 -15 7 -22 7 -27 -2z"/>
<path d="M5573 3043 c-3 -8 -3 -17 1 -20 3 -4 6 1 6 11 0 9 4 15 9 11 5 -3 12
-2 15 3 3 5 -2 9 -10 9 -9 0 -18 -7 -21 -14z"/>
<path d="M8194 3045 c-4 -8 -10 -12 -16 -9 -5 3 -4 -3 3 -15 15 -22 31 -9 21
17 -4 11 -1 13 8 7 9 -5 11 -4 6 3 -10 16 -15 15 -22 -3z"/>
<path d="M7640 3046 c0 -2 7 -7 16 -10 8 -3 12 -2 9 4 -6 10 -25 14 -25 6z"/>
<path d="M4836 3032 c-2 -4 -1 -14 4 -22 7 -11 9 -9 7 8 -1 24 -3 26 -11 14z"/>
<path d="M5504 3021 c7 -9 11 -23 8 -31 -6 -20 2 -11 17 17 10 20 9 22 -5 16
-11 -4 -15 -2 -11 4 3 5 0 10 -8 10 -13 0 -13 -3 -1 -16z"/>
<path d="M6255 3030 c-3 -6 1 -7 9 -4 18 7 21 14 7 14 -6 0 -13 -4 -16 -10z"/>
<path d="M6650 3031 c0 -6 4 -12 9 -15 5 -3 7 -15 4 -25 -3 -10 0 -22 6 -25 7
-5 8 -1 5 9 -4 8 0 22 7 31 10 12 10 15 -2 12 -8 -2 -13 3 -11 10 1 6 -2 12
-8 12 -5 0 -10 -4 -10 -9z"/>
<path d="M6860 3030 c0 -5 7 -7 15 -4 8 4 15 8 15 10 0 2 -7 4 -15 4 -8 0 -15
-4 -15 -10z"/>
<path d="M8125 3030 c-3 -6 1 -7 9 -4 18 7 21 14 7 14 -6 0 -13 -4 -16 -10z"/>
<path d="M5184 3015 c-10 -8 -14 -14 -9 -15 15 0 40 18 34 24 -3 3 -14 -1 -25
-9z"/>
<path d="M6310 3021 c0 -6 4 -13 10 -16 6 -3 7 1 4 9 -7 18 -14 21 -14 7z"/>
<path d="M7665 3017 c-14 -11 -15 -16 -5 -22 9 -6 11 -4 5 5 -6 9 -4 12 7 8 9
-4 15 0 15 8 0 17 1 17 -22 1z"/>
<path d="M4350 3010 c0 -5 5 -10 12 -10 6 0 8 -3 5 -7 -4 -3 -2 -12 4 -19 11
-14 39 -8 39 8 0 5 -4 6 -10 3 -5 -3 -15 3 -22 15 -14 21 -28 27 -28 10z"/>
<path d="M4460 3010 c-9 -6 -10 -10 -3 -10 6 0 15 5 18 10 8 12 4 12 -15 0z"/>
<path d="M4779 3009 c-10 -7 -5 -8 14 -5 22 4 27 2 23 -10 -3 -7 -1 -14 5 -14
6 0 9 7 7 17 -4 19 -29 25 -49 12z"/>
<path d="M6853 2994 l-28 -26 29 21 c15 11 33 18 39 14 5 -3 0 -11 -13 -18
-19 -10 -20 -13 -6 -18 10 -4 15 -3 11 3 -6 9 8 14 28 11 4 -1 2 8 -5 19 -16
26 -21 25 -55 -6z"/>
<path d="M7627 3001 c3 -11 11 -22 19 -25 11 -4 11 0 -2 19 -20 30 -24 31 -17
6z"/>
<path d="M8217 3013 c-10 -10 -8 -33 3 -33 5 0 6 8 3 18 -6 15 -5 16 13 2 18
-14 18 -14 5 3 -15 19 -15 19 -24 10z"/>
<path d="M5141 2989 c-7 -12 -10 -23 -8 -26 3 -3 11 5 17 17 15 28 8 35 -9 9z"/>
<path d="M4296 2985 c-6 -17 27 -39 61 -40 22 -1 22 -1 3 17 -23 22 -37 24
-20 3 15 -18 1 -19 -21 -2 -9 7 -14 18 -12 25 6 17 -4 15 -11 -3z"/>
<path d="M4855 2990 c-5 -8 -4 -11 2 -7 6 4 13 0 17 -8 3 -8 10 -15 15 -15 13
0 22 28 10 35 -5 4 -9 3 -8 -2 4 -21 -2 -25 -14 -8 -11 14 -16 15 -22 5z"/>
<path d="M5536 2984 c-6 -15 -4 -15 11 -3 10 7 20 15 22 16 2 2 -3 3 -11 3 -9
0 -19 -7 -22 -16z"/>
<path d="M6028 2993 c7 -3 16 -2 19 1 4 3 -2 6 -13 5 -11 0 -14 -3 -6 -6z"/>
<path d="M6295 2991 c3 -5 1 -13 -5 -16 -8 -5 -7 -11 1 -21 12 -15 29 -10 29
9 0 8 -3 8 -9 -2 -5 -8 -11 -9 -15 -3 -3 6 -2 13 4 17 13 8 13 25 -1 25 -5 0
-8 -4 -4 -9z"/>
<path d="M6685 2990 c-3 -6 1 -7 9 -4 18 7 21 14 7 14 -6 0 -13 -4 -16 -10z"/>
<path d="M6931 2989 c0 -9 2 -19 7 -23 4 -4 7 -13 7 -18 0 -6 7 -13 15 -15 10
-3 11 -2 4 4 -6 4 -10 16 -8 26 1 9 -2 15 -6 12 -5 -3 -11 3 -13 12 -4 14 -5
15 -6 2z"/>
<path d="M8155 2990 c-3 -6 1 -7 9 -4 18 7 21 14 7 14 -6 0 -13 -4 -16 -10z"/>
<path d="M5155 2964 c-9 -15 -12 -23 -6 -20 11 7 35 46 28 46 -3 0 -12 -12
-22 -26z"/>
<path d="M8190 2981 c0 -10 19 -25 25 -20 1 2 -3 10 -11 17 -8 7 -14 8 -14 3z"/>
<path d="M5970 2970 c0 -5 5 -10 11 -10 5 0 7 5 4 10 -3 6 -8 10 -11 10 -2 0
-4 -4 -4 -10z"/>
<path d="M6014 2968 c-3 -5 -3 -12 0 -15 3 -4 6 -2 6 3 0 5 10 10 23 11 21 2
21 1 3 -13 -11 -8 -15 -14 -9 -14 10 0 39 29 32 31 -18 6 -51 4 -55 -3z"/>
<path d="M6628 2973 c7 -3 16 -2 19 1 4 3 -2 6 -13 5 -11 0 -14 -3 -6 -6z"/>
<path d="M6693 2965 c-3 -9 -3 -19 1 -22 3 -3 -2 -12 -12 -20 -15 -13 -15 -13
4 -4 11 5 27 18 35 28 13 17 13 17 -5 3 -18 -14 -18 -13 -12 8 8 25 -1 31 -11
7z"/>
<path d="M7430 2970 c0 -5 7 -7 15 -4 8 4 15 8 15 10 0 2 -7 4 -15 4 -8 0 -15
-4 -15 -10z"/>
<path d="M7476 2968 c3 -4 11 -5 19 -1 21 7 19 12 -4 10 -11 0 -18 -5 -15 -9z"/>
<path d="M4849 2955 c18 -8 36 -15 40 -15 13 1 -45 29 -59 29 -8 0 0 -6 19
-14z"/>
<path d="M5106 2961 c-3 -4 4 -17 15 -27 18 -16 19 -16 13 -1 -3 9 -10 17 -16
17 -5 0 -6 5 -3 10 3 6 4 10 1 10 -3 0 -7 -4 -10 -9z"/>
<path d="M6899 2963 c0 -5 -2 -16 -4 -25 -2 -10 0 -18 5 -18 4 0 8 11 8 25 0
22 -7 36 -9 18z"/>
<path d="M7406 2955 c-9 -26 -7 -32 5 -12 6 10 9 21 6 23 -2 3 -7 -2 -11 -11z"/>
<path d="M4237 2945 c-11 -7 -27 -12 -37 -10 -13 3 -17 -1 -13 -12 4 -11 8
-11 13 -3 5 8 10 9 14 2 4 -6 -2 -15 -11 -21 -10 -5 -14 -13 -10 -18 8 -8 27
15 24 29 -2 8 34 37 47 38 5 0 3 -7 -4 -15 -7 -9 -8 -15 -2 -15 5 0 13 8 16
17 5 12 9 14 18 5 7 -7 17 -12 23 -12 13 1 -26 24 -45 27 -8 1 -23 -4 -33 -12z"/>
<path d="M4928 2944 c12 -8 20 -20 16 -25 -3 -6 -12 -3 -19 8 -12 15 -16 16
-27 4 -11 -12 -10 -13 6 -7 14 5 17 3 12 -11 -4 -10 -4 -14 0 -10 4 4 12 -1
19 -10 9 -13 14 -13 20 -3 6 9 4 11 -5 5 -8 -5 -11 -3 -8 6 5 16 28 19 46 6 6
-5 12 -6 12 -1 0 5 4 3 9 -4 6 -11 10 -10 15 4 4 10 4 15 0 11 -4 -4 -13 1
-19 10 -10 14 -16 15 -27 5 -12 -10 -19 -8 -33 8 -10 11 -23 20 -29 20 -6 0 0
-7 12 -16z m72 -24 c0 -5 -2 -10 -4 -10 -3 0 -8 5 -11 10 -3 6 -1 10 4 10 6 0
11 -4 11 -10z"/>
<path d="M5000 2954 c0 -8 63 -35 68 -29 3 3 -4 8 -16 12 -12 3 -22 9 -22 12
0 4 -7 8 -15 8 -8 0 -15 -2 -15 -3z"/>
<path d="M5072 2944 c19 -10 26 -20 22 -32 -5 -13 -4 -14 4 -3 14 19 -4 47
-32 48 -18 2 -17 0 6 -13z"/>
<path d="M5511 2944 c0 -11 3 -14 6 -6 3 7 2 16 -1 19 -3 4 -6 -2 -5 -13z"/>
<path d="M6267 2949 c7 -9 10 -19 6 -22 -3 -4 -1 -7 5 -7 17 0 15 16 -5 31
-16 12 -17 12 -6 -2z"/>
<path d="M6648 2953 c6 -2 10 -9 7 -14 -4 -5 1 -6 10 -2 13 5 14 7 3 14 -7 5
-17 8 -23 8 -5 0 -4 -3 3 -6z"/>
<path d="M6921 2944 c0 -11 3 -14 6 -6 3 7 2 16 -1 19 -3 4 -6 -2 -5 -13z"/>
<path d="M6984 2948 c-4 -6 1 -17 10 -24 10 -7 15 -17 11 -23 -8 -14 -26 -14
-22 0 1 6 -5 14 -13 16 -13 4 -13 3 0 -6 8 -6 11 -11 6 -11 -6 0 -5 -5 1 -11
8 -8 17 -8 31 3 17 11 18 16 8 31 -7 9 -17 13 -21 9 -5 -4 -5 1 -2 11 7 19 2
23 -9 5z"/>
<path d="M7450 2956 c0 -2 7 -7 16 -10 8 -3 12 -2 9 4 -6 10 -25 14 -25 6z"/>
<path d="M7650 2951 c0 -6 4 -13 10 -16 6 -3 7 1 4 9 -7 18 -14 21 -14 7z"/>
<path d="M8170 2956 c0 -2 7 -7 16 -10 8 -3 12 -2 9 4 -6 10 -25 14 -25 6z"/>
<path d="M4837 2939 c7 -7 15 -10 18 -7 3 3 -2 9 -12 12 -14 6 -15 5 -6 -5z"/>
<path d="M4137 2933 c-6 -14 -2 -38 8 -41 6 -2 15 -7 20 -12 6 -5 11 1 11 15
2 21 0 22 -13 10 -20 -21 -24 -19 -19 10 5 24 1 33 -7 18z"/>
<path d="M5999 2922 c-13 -16 -13 -16 5 -2 18 14 19 13 13 -2 -3 -10 -2 -18 3
-18 12 0 13 27 1 34 -5 3 -15 -2 -22 -12z"/>
<path d="M6057 2933 c-2 -5 -3 -16 -2 -25 2 -10 -6 -19 -21 -22 -30 -8 -31
-21 -2 -23 19 -2 20 0 8 8 -12 9 -11 10 7 6 17 -4 21 -1 18 15 -3 15 0 18 13
14 16 -6 16 -5 0 7 -10 8 -15 17 -11 20 3 4 4 7 0 7 -3 0 -8 -3 -10 -7z"/>
<path d="M6720 2925 c-19 -22 -8 -25 13 -3 9 10 13 18 8 18 -5 0 -14 -7 -21
-15z"/>
<path d="M7023 2933 c4 -7 22 -22 39 -35 17 -12 29 -17 25 -11 -4 6 -4 13 0
16 5 2 3 2 -4 1 -6 -2 -24 7 -39 19 -16 12 -25 16 -21 10z"/>
<path d="M7056 2928 c3 -5 10 -6 15 -3 13 9 11 12 -6 12 -8 0 -12 -4 -9 -9z"/>
<path d="M7296 2928 c3 -4 12 -8 20 -8 8 0 14 4 14 8 0 4 -9 8 -19 8 -11 0
-17 -4 -15 -8z"/>
<path d="M7227 2912 c-19 -21 -13 -32 15 -32 11 0 17 -4 14 -9 -4 -5 2 -8 11
-6 12 1 17 10 16 23 -2 16 2 20 15 16 14 -5 14 -4 2 4 -20 15 -32 4 -24 -21 5
-18 4 -20 -7 -9 -7 6 -22 12 -33 12 -18 0 -19 1 -1 20 10 11 16 20 13 20 -3 0
-12 -8 -21 -18z"/>
<path d="M7341 2912 c0 -13 -5 -21 -10 -17 -5 3 -12 1 -15 -4 -4 -5 -2 -12 3
-15 13 -9 33 21 28 41 -4 14 -5 13 -6 -5z"/>
<path d="M4058 2908 c6 -6 18 -8 28 -6 14 3 12 5 -9 10 -19 3 -25 2 -19 -4z"/>
<path d="M5495 2910 c3 -5 8 -10 11 -10 2 0 4 5 4 10 0 6 -5 10 -11 10 -5 0
-7 -4 -4 -10z"/>
<path d="M6295 2909 c-4 -5 -3 -9 2 -9 4 0 0 -5 -9 -11 -10 -5 -18 -14 -18
-19 0 -6 9 -2 19 7 11 9 17 21 14 26 -4 6 0 8 10 4 9 -3 18 -3 21 1 3 4 -4 8
-14 9 -11 1 -22 -2 -25 -8z"/>
<path d="M6735 2910 c-3 -5 -1 -10 4 -10 6 0 11 5 11 10 0 6 -2 10 -4 10 -3 0
-8 -4 -11 -10z"/>
<path d="M6920 2910 c-8 -5 -10 -10 -5 -10 6 0 17 5 25 10 8 5 11 10 5 10 -5
0 -17 -5 -25 -10z"/>
<path d="M7143 2882 c-1 -31 1 -33 8 -14 5 12 13 22 19 22 6 0 9 -4 5 -9 -6
-11 33 -36 43 -27 3 3 0 6 -7 6 -7 0 -9 4 -6 10 4 6 -1 7 -11 3 -12 -4 -15 -3
-10 5 4 7 0 15 -11 19 -10 4 -20 10 -24 15 -3 4 -5 -9 -6 -30z"/>
<path d="M7186 2908 c3 -5 10 -6 15 -3 13 9 11 12 -6 12 -8 0 -12 -4 -9 -9z"/>
<path d="M7410 2911 c0 -9 38 -12 44 -3 2 4 -7 8 -20 8 -13 1 -24 -1 -24 -5z"/>
<path d="M7626 2908 c3 -5 10 -6 15 -3 13 9 11 12 -6 12 -8 0 -12 -4 -9 -9z"/>
<path d="M3998 2903 c7 -3 16 -2 19 1 4 3 -2 6 -13 5 -11 0 -14 -3 -6 -6z"/>
<path d="M4230 2889 c-7 -11 -9 -23 -7 -26 3 -2 8 5 12 16 3 12 11 21 16 21 6
0 7 -5 3 -12 -4 -7 -3 -8 5 -4 12 8 6 26 -9 26 -5 0 -14 -9 -20 -21z"/>
<path d="M5035 2899 c-11 -16 -1 -19 13 -3 7 8 8 14 3 14 -5 0 -13 -5 -16 -11z"/>
<path d="M3894 2888 c-4 -5 -3 -12 0 -15 3 -4 6 -1 6 5 0 6 7 9 15 6 8 -4 15
-2 15 3 0 12 -29 13 -36 1z"/>
<path d="M4030 2891 c0 -5 7 -11 14 -14 10 -4 13 -1 9 9 -6 15 -23 19 -23 5z"/>
<path d="M4970 2890 c0 -5 5 -10 11 -10 5 0 7 5 4 10 -3 6 -8 10 -11 10 -2 0
-4 -4 -4 -10z"/>
<path d="M6690 2890 c0 -5 5 -10 11 -10 5 0 7 5 4 10 -3 6 -8 10 -11 10 -2 0
-4 -4 -4 -10z"/>
<path d="M7104 2886 c-8 -20 11 -53 20 -37 4 6 2 11 -3 11 -6 0 -11 7 -11 16
0 8 5 12 10 9 6 -3 10 -1 10 4 0 16 -20 13 -26 -3z"/>
<path d="M7375 2891 c-3 -5 -2 -12 3 -15 5 -3 9 1 9 9 0 17 -3 19 -12 6z"/>
<path d="M3940 2875 c0 -8 4 -15 10 -15 5 0 7 7 4 15 -4 8 -8 15 -10 15 -2 0
-4 -7 -4 -15z"/>
<path d="M3973 2870 c5 -31 38 -38 58 -14 8 10 9 15 3 11 -7 -4 -14 0 -18 8
-3 8 -10 15 -16 15 -6 0 -4 -7 4 -16 21 -20 20 -24 -5 -24 -11 0 -18 4 -15 8
2 4 0 14 -5 22 -7 11 -8 8 -6 -10z"/>
<path d="M4101 2878 c-1 -20 14 -24 25 -6 4 6 3 8 -4 4 -5 -3 -13 0 -15 6 -3
8 -6 6 -6 -4z"/>
<path d="M7022 2881 c-11 -7 -10 -9 3 -14 10 -5 14 -3 9 4 -4 7 -1 10 7 7 8
-3 13 -13 11 -23 -2 -10 1 -14 7 -10 16 9 13 32 -5 39 -19 7 -16 7 -32 -3z"/>
<path d="M6310 2870 c0 -5 5 -10 11 -10 5 0 7 5 4 10 -3 6 -8 10 -11 10 -2 0
-4 -4 -4 -10z"/>
<path d="M3916 2857 c3 -10 9 -15 12 -12 3 3 0 11 -7 18 -10 9 -11 8 -5 -6z"/>
<path d="M4076 2857 c3 -10 9 -15 12 -12 3 3 0 11 -7 18 -10 9 -11 8 -5 -6z"/>
<path d="M7295 2861 c-3 -5 -2 -12 3 -15 5 -3 9 1 9 9 0 17 -3 19 -12 6z"/>
<path d="M3895 2851 c6 -11 4 -13 -8 -8 -23 9 -21 0 2 -13 15 -7 19 -7 17 5
-1 8 -6 18 -11 22 -4 5 -5 2 0 -6z"/>
<path d="M4041 2846 c-10 -11 -9 -14 1 -12 14 2 23 15 15 22 -2 2 -10 -2 -16
-10z"/>
<path d="M6055 2850 c-4 -6 -11 -7 -17 -4 -7 4 -8 2 -4 -5 4 -6 12 -9 17 -6 5
4 9 1 9 -4 0 -15 27 -14 36 1 4 7 3 8 -4 4 -7 -4 -17 -4 -24 0 -8 5 -6 10 8
15 16 6 16 8 2 8 -9 1 -20 -4 -23 -9z"/>
<path d="M3940 2836 c0 -2 9 -6 20 -9 11 -3 18 -1 14 4 -5 9 -34 13 -34 5z"/>
<path d="M6035 2810 c-3 -5 -1 -10 4 -10 6 0 11 5 11 10 0 6 -2 10 -4 10 -3 0
-8 -4 -11 -10z"/>
</g>
</svg>
